<?xml version="1.0" encoding="UTF-8"?><svg id="Layer_1" xmlns="http://www.w3.org/2000/svg" viewBox="0 0 760.62 940.97"><defs><style>.cls-1{fill:#3b230a;}.cls-2{fill:#eb810f;}.cls-3{fill:#f49640;}.cls-4{fill:#ca661c;}.cls-5{fill:#ffaf5f;}.cls-6{fill:#f88448;}.cls-7{fill:#f3796e;}.cls-8{fill:#080800;}.cls-9{fill:#fa9585;}</style></defs><path class="cls-8" d="M625.57,573.2c3.13,1.14,5.85,3.37,8.17,6.68,2.39,3.41,4.87,6.59,7.46,9.55,2.17,2.48,5.79,7.72,10.87,15.71.61.95.89,1.92.86,2.89-.01.37-.15.72-.39.99-1.42,1.65-2.76,3.85-4.03,6.62-5.54,12.06-7.99,25.32-8.46,37.79-.23,6.18.41,12.84,1.94,19.97.45,2.14,1.22,4.46,2.31,6.96,3.88,8.97,10.77,14.12,20.67,15.47.35.05.71.05,1.06.02,3.56-.38,7.11-1.16,10.66-2.34,1.76-.59,3.11-.21,4.04,1.12,1.47,2.11,2.88,3.59,4.21,4.44,2.85,1.82,6.01,4.55,9.39,5.99,14.05,5.98,27.51,5.71,40.39-.81,10-5.07,16.38-14.08,21.18-24.01.97-2.01,2.83-8.52,2.95-11.99.35-9.82.04-17.49-.92-23.02-2.24-12.89-7.45-25.02-15.64-36.39-6.06-8.41-14.13-15.39-24.22-20.95-5.22-2.87-10.69-3.66-16.24-4.87-.29-.07-.57-.18-.84-.33-1.02-.6-1.75-1.31-2.18-2.12-2.99-5.67-5.43-9.91-7.31-12.72-2.04-3.05-3.21-4.84-3.5-5.39-2.26-4.22-4.69-7.09-7.34-11-7.53-11.09-16.12-21.19-25.78-30.32-3.99-3.77-6.19-5.86-6.61-6.27-4.78-4.68-10.71-10.63-16.9-15.18-8.01-5.91-14.2-10.35-18.57-13.34-1.95-1.34-6.35-3.84-13.2-7.5-.28-.16-.54-.37-.74-.62-1.1-1.34-1.65-2.89-1.66-4.64-.06-13.39-.15-24.15-.27-32.29-.03-2.35-.44-4.76-.59-7.7-.19-3.73-.31-9.41-.37-17.04-.02-2.87-.18-6.66-.47-11.35-.44-6.95-.66-10.73-.65-11.36.05-8.97,0-14.82-.18-17.55-.8-12.49-.45-23.71-1.21-35.16-.27-4.07-.51-9.93-.74-17.58-.64-21.17-1.38-37.67-2.22-49.51-.8-11.21-1.87-20.37-3.2-27.49-.91-4.86-2.71-10.77-5.4-17.74-1.65-4.28-4.61-7.61-6.81-11.21-1.48-2.41-3.57-4.92-6.27-7.51-4.4-4.23-8.88-7.88-13.43-10.95-1.99-1.35-4.73-2.8-8.22-4.37-5.23-2.34-9.87-4.6-15.82-6.01-1.03-.24-1.89-.94-2.34-1.91-2.73-5.91-4.52-10.4-7.79-16.08-5.47-9.5-11.12-19.51-16.97-30.04-.53-.97-1.04-1.89-1.53-2.78-7.73-14.19-12.2-22.42-13.4-24.69-3.03-5.73-7.16-11.47-10.12-16.93-5.19-9.59-7.97-13.94-15.78-27.69-6.83-12.02-15.45-25-22.74-35.92-2.26-3.39-4.29-5.69-6.42-8.85-3.57-5.29-8.22-9.9-13.56-14.12-2.71-2.13-5.28-3.72-7.73-4.75-5.73-2.42-12.05-4.45-18.28-3.81-5.7.59-10.93,2.4-15.68,5.41-3.48,2.2-6.13,3.72-9.06,6.68-5.32,5.37-9.57,9.71-12.75,13.01-2.15,2.23-3.84,5.34-5.6,7.29-4.27,4.71-7.44,10.74-11.06,15.89-4.64,6.6-9.44,13.94-14.4,22.01-1.85,3-3.91,5-5.17,7.88-.78,1.77-1.89,3.84-3.34,6.21-5.97,9.79-11.09,18.72-15.37,26.77-.17.32-.37.61-.61.87-.65.72-1.18,1.44-1.61,2.16-3.06,5.1-5.53,10.62-8.88,15.88-1.83,2.87-4.81,7.98-8.94,15.32-2.44,4.34-4.98,8.69-7.62,13.06-1.73,2.85-3.13,5.3-4.22,7.35-2.01,3.78-3.4,6.23-4.15,7.36-2.27,3.41-3.58,6.91-5.63,10.86-.61,1.15-1.67,1.99-2.93,2.32-6.11,1.55-11.94,3.9-17.48,7.03-3.75,2.12-9.74,5.72-13.62,9.5-5.51,5.38-9.88,10.21-13.1,14.49-4.63,6.15-8.17,13.01-10.64,20.58-1.57,4.81-2.75,12.46-3.56,22.95-1.09,14.03-1.74,24.33-1.94,30.91-.41,12.93-2.33,35.39-1.94,51.87,0,.04-.1,2.83-.31,8.37-.39,10.36-.79,20.55-1.19,30.57-.27,6.88.1,16.29-.1,21.56-.07,1.71-.54,5.49-.59,7.58-.08,3.27-.46,16.25-1.15,38.93-.14,4.65-.27,9.34-.38,14.08-.27,11.35-.37,21.52-.32,30.51.01,2.28-.54,3.65-3,2.79-7.83-2.74-15.92-5.18-23.49-10.02-6.59-4.21-10.17-6.53-10.76-6.98-.96-.73-4.21-3.63-9.74-8.71-1.45-1.33-2.61-2.53-3.49-3.6-2.96-3.58-5.57-5.63-8.31-9.43-1.87-2.58-4.59-6.17-8.17-10.78-2.31-2.97,1.34-4.85,2.89-6.83,4.71-6.07,8.61-13.63,10.65-21.4,2.29-8.75,3.82-16.35,4.58-22.81.03-.21.43-4.64,1.2-13.31,1.13-12.72-4.41-26.86-15.72-33.06-4.99-2.73-10.96-3.46-17.9-2.19-2.97.55-5.87,2.37-8.95,4.05-1.08.59-2.44.22-3.08-.85-4.36-7.35-11.34-14.67-19.18-18.01-3.61-1.54-7.5-2.49-11.65-2.85-1.55-.13-4.65-.47-9.3-1.01-3.37-.39-6.19-.34-8.44.17-2.95.67-4.82,1.09-5.61,1.24-8.36,1.63-15.71,5.96-21.84,12.09-5.76,5.76-10.79,10.86-13.82,17.34-1.91,4.08-3.11,6.79-3.61,8.12-3.47,9.28-2.92,17.61-2.56,29.79.04,1.5.2,2.81.47,3.93.76,3.07,1.04,6.14,2.18,9.65,2.19,6.73,3.57,10.91,4.13,12.53.11.33.26.64.43.93,3.97,6.73,8.12,12.7,12.45,17.89,6.02,7.2,12.34,13.13,20.84,17.33,7.67,3.78,15.4,6.25,23.19,7.4,3.31.5,5.85,1.49,7.54,3.94,6.74,9.79,12.15,17.47,16.24,23.02,2.58,3.5,7.59,9.35,15.04,17.55,2.35,2.57,5.12,7.09,7.91,9.03,8.06,5.59,15.98,11.08,23.76,16.47,2.73,1.89,5.75,3.63,9.06,5.21,15.34,7.32,29.01,13.28,44.5,15.33.44.06.8.41.86.85.69,4.98,1,9.91.92,14.78-.59,36.55-.04,72.58,1.66,108.11.52,10.84.32,17.49,1.1,25.19.91,8.95.74,23.43,3.26,33.36,2.14,8.45,4.63,15.33,7.46,20.64,2.39,4.5,6.12,9.56,11.17,15.18,3.63,4.05,8.48,7.76,14.55,11.15,8.41,4.69,16.03,8.1,22.86,10.24,7.85,2.47,16.3,4.24,25.34,5.32,2.03.25,3.18,1.35,3.44,3.3.55,4.08-.36,8.09-.46,12.13-.23,9.57-.01,18.94.65,28.09.07.97-.62,1.82-1.57,1.96-3.87.57-9.07,1.6-15.6,3.11-3.91.91-9.57,3.08-16.97,6.53-3.92,1.83-9.52,5.64-16.79,11.43-5.64,4.49-10.44,10.82-14.39,18.99-1.5,3.08-1.8,6.31-2.31,9.12-.09.49-.53.84-.99.77-.09-.01-.17-.04-.25-.08-.13-.07-.16-.33-.09-.77.35-3.79,1.02-6.8,2.02-9.02,3.37-7.51,8.33-14.06,14.89-19.65,14.66-12.49,31.4-19.63,50.23-21.42.36-.03.63-.35.6-.71-.91-13.35-1.01-27.03-.32-41.06.03-.57-.38-1.06-.94-1.15-24.49-3.5-51.84-11.33-68.42-31.12-9.59-11.47-15.27-24.79-17.03-39.98-.94-8.14-1.64-17.34-2.09-27.59-2.12-48.55-3.45-97.16-2.72-145.57,0-.35-.24-.65-.58-.71-7.04-1.33-13.93-3.1-20.66-5.31-5.94-1.95-11.55-4.81-17.33-7.31-8.8-3.8-18.56-9.52-29.28-17.16-7.63-5.44-15.25-12.45-22.86-21.02-10.61-11.94-20.4-24.76-28.01-38.61-.36-.65-1.01-1.07-1.75-1.13-15.91-1.29-31.27-7.53-42.96-18.91-7.95-7.74-14.28-16.39-18.97-25.94-1.53-3.12-3.33-8.66-5.39-16.62-1.92-7.45-2.51-15.65-1.76-24.6,1.75-21.05,13.6-38.74,32.03-49.54,5.82-3.41,16.04-5.96,23.42-5.69,7.49.28,13.28.95,17.36,2.02,11.38,2.97,19.97,10.81,25.87,20.8.32.53,1,.7,1.54.39.01,0,.03-.02.04-.03,6.57-4.38,13.51-5.83,20.82-4.35,14.64,2.95,23.42,18.26,23.4,32.28-.02,13.29-1.75,26.07-5.19,38.34-3.03,10.81-7.31,19.44-14.36,27.28-.55.62-.59,1.54-.1,2.2,1.67,2.24,5.03,6.55,10.09,12.92,8.21,10.33,17.88,18.98,29.02,25.94,7.92,4.95,16.08,7.73,25.09,10.53.32.1.65-.08.75-.4.02-.06.03-.12.03-.18-.01-9.76.12-23.78.4-42.05.2-12.85.83-28.78,1.16-45.32.82-41.18,2.47-84.59,4.94-130.23.44-8.11,1.12-16.77,2.03-25.97,1.33-13.41,6.14-27.22,14.44-37.98,11.41-14.79,26.32-24.8,44.72-30.03.81-.23,1.47-.8,1.83-1.56,2.31-4.93,4.76-9.67,7.35-14.22,12.53-21.97,24.85-43.48,36.96-64.55,10.63-18.47,21.06-35.63,31.31-51.46,10.9-16.86,22.41-32.55,37.04-44.68,8.01-6.65,18.7-11,29.44-9.34,9.64,1.48,18.04,5.93,25.19,13.36,10.33,10.72,18.12,23.69,26.48,36.52,10.23,15.7,21.35,36.2,28.67,48.35,5.03,8.35,10.47,17.95,16.32,28.8,7.41,13.75,15.54,28.44,24.39,44.05,2.81,4.97,5.65,11.17,7.22,15.13.19.48.6.83,1.1.96,4.51,1.11,9.72,2.99,15.63,5.66,10.8,4.88,19.75,11.88,27.08,20.64,1.21,1.45,3.43,4.82,6.66,10.11,1.91,3.12,3.54,6.75,4.91,10.89,1.99,6.04,3.24,10.73,3.74,14.08,1.15,7.61,2,16.26,2.55,25.96,1.03,17.87,2.04,41.12,3.02,69.75,1.67,48.82,3.01,92.49,4.01,131,.03.85.51,1.63,1.26,2.03,9.82,5.18,16.57,9.8,27.56,17.64,11.25,8.01,21.69,18.28,31.4,28.06,5.12,5.15,10.42,11.26,15.89,18.34,9.46,12.23,17.83,25.11,25.12,38.63.45.83,1.25,1.41,2.17,1.57,6.74,1.2,11.92,2.21,18.24,5.92,9.25,5.44,17,12.44,23.23,21,11.65,16.01,17.33,33.94,17.02,53.79-.07,4.62-.66,8.73-1.75,12.34-8.37,27.66-34.94,43.31-62.9,31.96-6.77-2.74-12.35-6.84-16.75-12.31-.36-.45-.98-.6-1.5-.36-6.69,2.93-13.8,4.04-20.55,1.02-10.43-4.67-15.74-14.05-17.51-25.09-2-12.49-1.17-25.03,1.36-36.95,1.89-8.91,5.28-17.3,10.15-25.15.39-.61.35-1.39-.08-1.97-3.77-5.06-7.53-10.4-11.28-16.01-2.27-3.39-7.01-9.02-14.22-16.87Z"/><path class="cls-1" d="M625.57,573.2c-7.54-7.75-16.06-14.82-25.56-21.22-.13-.09-.31-.05-.4.08-.03.05-.05.1-.05.16.09,26.94-.04,55.87-.38,86.79-.11,10.25-.44,23.15-.99,38.69-.69,19.49-1.19,32.38-1.52,38.66-.52,10.07-1.66,20.16-3.41,30.25-3.07,17.62-13.55,31.47-28.78,41.83-16.2,11.02-34.52,15.94-54.01,18.8-.31.05-.53.32-.52.63.63,13.61.51,27.26-.37,40.96-.03.52.35.97.88,1.03,4.05.43,7.45.72,11.51,1.82,8.97,2.43,18.26,6.57,27.87,12.42,3.64,2.21,8.39,6.19,14.26,11.93,9.13,8.93,14.22,19.4,12.74,32.37-1.25,9.41-6.02,16.82-14.33,22.22-5.9,3.84-12.22,6.35-18.97,7.54-9.65,1.69-20.66,2.62-33.04,2.79-8.75.12-17.73-.69-26.94-2.42-20.19-3.8-38.29-15.43-39.75-37.43-.13-2-.24-3.97-.32-5.91.83-6.47,1.38-13.02,2.29-19.37,3.08-21.3,5.68-40.44,6.4-60.83.02-.5-.37-.93-.88-.95-.03,0-.05,0-.08,0-37.03,1.62-74.34,1.5-111.93-.37-.26-.01-.48.19-.49.45,0,.02,0,.03,0,.05.68,16.01,2.2,30.91,4.58,48.51,1.3,9.65,2.48,19.25,3.54,28.8-.12,3.25-.3,6.35-.55,9.28-.61,7.25-2.83,13.51-6.68,18.8-5.32,7.3-15.72,14.01-24.15,16.52-7.52,2.24-15.68,3.69-24.48,4.34-13.45,1-26.48.61-39.09-1.18-5.37-.76-9.77-1.79-13.2-3.1-15.57-5.93-26.01-16.79-25.4-34.56l.27-1.76c-.07.44-.04.7.09.77.41.22.93.03,1.15-.42.04-.09.07-.18.09-.27.51-2.81.81-6.04,2.31-9.12,3.95-8.17,8.75-14.5,14.39-18.99,7.27-5.79,12.87-9.6,16.79-11.43,7.4-3.45,13.06-5.62,16.97-6.53,6.53-1.51,11.73-2.54,15.6-3.11.95-.14,1.64-.99,1.57-1.96-.66-9.15-.88-18.52-.65-28.09.1-4.04,1.01-8.05.46-12.13-.26-1.95-1.41-3.05-3.44-3.3-9.04-1.08-17.49-2.85-25.34-5.32-6.83-2.14-14.45-5.55-22.86-10.24-6.07-3.39-10.92-7.1-14.55-11.15-5.05-5.62-8.78-10.68-11.17-15.18-2.83-5.31-5.32-12.19-7.46-20.64-2.52-9.93-2.35-24.41-3.26-33.36-.78-7.7-.58-14.35-1.1-25.19-1.7-35.53-2.25-71.56-1.66-108.11.08-4.87-.23-9.8-.92-14.78-.06-.44-.42-.79-.86-.85-15.49-2.05-29.16-8.01-44.5-15.33-3.31-1.58-6.33-3.32-9.06-5.21-7.78-5.39-15.7-10.88-23.76-16.47-2.79-1.94-5.56-6.46-7.91-9.03-7.45-8.2-12.46-14.05-15.04-17.55-4.09-5.55-9.5-13.23-16.24-23.02-1.69-2.45-4.23-3.44-7.54-3.94-7.79-1.15-15.52-3.62-23.19-7.4-8.5-4.2-14.82-10.13-20.84-17.33-4.33-5.19-8.48-11.16-12.45-17.89-.17-.29-.32-.6-.43-.93-.56-1.62-1.94-5.8-4.13-12.53-1.14-3.51-1.42-6.58-2.18-9.65-.27-1.12-.43-2.43-.47-3.93-.36-12.18-.91-20.51,2.56-29.79.5-1.33,1.7-4.04,3.61-8.12,3.03-6.48,8.06-11.58,13.82-17.34,6.13-6.13,13.48-10.46,21.84-12.09.79-.15,2.66-.57,5.61-1.24,2.25-.51,5.07-.56,8.44-.17,4.65.54,7.75.88,9.3,1.01,4.15.36,8.04,1.31,11.65,2.85,7.84,3.34,14.82,10.66,19.18,18.01.64,1.07,2,1.44,3.08.85,3.08-1.68,5.98-3.5,8.95-4.05,6.94-1.27,12.91-.54,17.9,2.19,11.31,6.2,16.85,20.34,15.72,33.06-.77,8.67-1.17,13.1-1.2,13.31-.76,6.46-2.29,14.06-4.58,22.81-2.04,7.77-5.94,15.33-10.65,21.4-1.55,1.98-5.2,3.86-2.89,6.83,3.58,4.61,6.3,8.2,8.17,10.78,2.74,3.8,5.35,5.85,8.31,9.43.88,1.07,2.04,2.27,3.49,3.6,5.53,5.08,8.78,7.98,9.74,8.71.59.45,4.17,2.77,10.76,6.98,7.57,4.84,15.66,7.28,23.49,10.02,2.46.86,3.01-.51,3-2.79-.05-8.99.05-19.16.32-30.51.11-4.74.24-9.43.38-14.08.69-22.68,1.07-35.66,1.15-38.93.05-2.09.52-5.87.59-7.58.2-5.27-.17-14.68.1-21.56.4-10.02.8-20.21,1.19-30.57.21-5.54.31-8.33.31-8.37-.39-16.48,1.53-38.94,1.94-51.87.2-6.58.85-16.88,1.94-30.91.81-10.49,1.99-18.14,3.56-22.95,2.47-7.57,6.01-14.43,10.64-20.58,3.22-4.28,7.59-9.11,13.1-14.49,3.88-3.78,9.87-7.38,13.62-9.5,5.54-3.13,11.37-5.48,17.48-7.03,1.26-.33,2.32-1.17,2.93-2.32,2.05-3.95,3.36-7.45,5.63-10.86.75-1.13,2.14-3.58,4.15-7.36,1.09-2.05,2.49-4.5,4.22-7.35,2.64-4.37,5.18-8.72,7.62-13.06,4.13-7.34,7.11-12.45,8.94-15.32,3.35-5.26,5.82-10.78,8.88-15.88.43-.72.96-1.44,1.61-2.16.24-.26.44-.55.61-.87,4.28-8.05,9.4-16.98,15.37-26.77,1.45-2.37,2.56-4.44,3.34-6.21,1.26-2.88,3.32-4.88,5.17-7.88,4.96-8.07,9.76-15.41,14.4-22.01,3.62-5.15,6.79-11.18,11.06-15.89,1.76-1.95,3.45-5.06,5.6-7.29,3.18-3.3,7.43-7.64,12.75-13.01,2.93-2.96,5.58-4.48,9.06-6.68,4.75-3.01,9.98-4.82,15.68-5.41,6.23-.64,12.55,1.39,18.28,3.81,2.45,1.03,5.02,2.62,7.73,4.75,5.34,4.22,9.99,8.83,13.56,14.12,2.13,3.16,4.16,5.46,6.42,8.85,7.29,10.92,15.91,23.9,22.74,35.92,7.81,13.75,10.59,18.1,15.78,27.69,2.96,5.46,7.09,11.2,10.12,16.93,1.2,2.27,5.67,10.5,13.4,24.69.49.89,1,1.81,1.53,2.78,5.85,10.53,11.5,20.54,16.97,30.04,3.27,5.68,5.06,10.17,7.79,16.08.45.97,1.31,1.67,2.34,1.91,5.95,1.41,10.59,3.67,15.82,6.01,3.49,1.57,6.23,3.02,8.22,4.37,4.55,3.07,9.03,6.72,13.43,10.95,2.7,2.59,4.79,5.1,6.27,7.51,2.2,3.6,5.16,6.93,6.81,11.21,2.69,6.97,4.49,12.88,5.4,17.74,1.33,7.12,2.4,16.28,3.2,27.49.84,11.84,1.58,28.34,2.22,49.51.23,7.65.47,13.51.74,17.58.76,11.45.41,22.67,1.21,35.16.17,2.73.23,8.58.18,17.55,0,.63.21,4.41.65,11.36.29,4.69.45,8.48.47,11.35.06,7.63.18,13.31.37,17.04.15,2.94.56,5.35.59,7.7.12,8.14.21,18.9.27,32.29,0,1.75.56,3.3,1.66,4.64.2.25.46.46.74.62,6.85,3.66,11.25,6.16,13.2,7.5,4.37,2.99,10.56,7.43,18.57,13.34,6.19,4.55,12.12,10.5,16.9,15.18.42.41,2.62,2.5,6.61,6.27,9.66,9.13,18.25,19.23,25.78,30.32,2.65,3.91,5.08,6.78,7.34,11,.29.55,1.46,2.34,3.5,5.39,1.88,2.81,4.32,7.05,7.31,12.72.43.81,1.16,1.52,2.18,2.12.27.15.55.26.84.33,5.55,1.21,11.02,2,16.24,4.87,10.09,5.56,18.16,12.54,24.22,20.95,8.19,11.37,13.4,23.5,15.64,36.39.96,5.53,1.27,13.2.92,23.02-.12,3.47-1.98,9.98-2.95,11.99-4.8,9.93-11.18,18.94-21.18,24.01-12.88,6.52-26.34,6.79-40.39.81-3.38-1.44-6.54-4.17-9.39-5.99-1.33-.85-2.74-2.33-4.21-4.44-.93-1.33-2.28-1.71-4.04-1.12-3.55,1.18-7.1,1.96-10.66,2.34-.35.03-.71.03-1.06-.02-9.9-1.35-16.79-6.5-20.67-15.47-1.09-2.5-1.86-4.82-2.31-6.96-1.53-7.13-2.17-13.79-1.94-19.97.47-12.47,2.92-25.73,8.46-37.79,1.27-2.77,2.61-4.97,4.03-6.62.24-.27.38-.62.39-.99.03-.97-.25-1.94-.86-2.89-5.08-7.99-8.7-13.23-10.87-15.71-2.59-2.96-5.07-6.14-7.46-9.55-2.32-3.31-5.04-5.54-8.17-6.68ZM288.01,184.23c3.18.11,6.68-.04,10.51-.45,2.74-.29,6.23-.55,10.46-.76,8.31-.43,15.13-.73,20.46-.9,1.57-.05,2.93-.04,4.09.04,3.35.21,6.32-.18,10.27-.2,25.42-.15,38.28-.22,38.57-.23,10.47-.1,22.4.79,31.24.55,1.1-.03,2.84.07,5.22.3,4.05.4,8.63.07,13.09.24,12.84.5,25.57.96,38.2,1.39,7.79.26,17.61.84,29.46,1.74.53.04.81.06.85.05.79-.12,1.34-.85,1.23-1.64-.02-.15-.07-.3-.14-.44-1.18-2.36-4.46-9.01-9.83-19.95-1.67-3.4-3.81-6.14-5.05-9.22-.53-1.33-1.76-3.66-3.68-6.99-1.08-1.87-4.23-7.64-9.46-17.31-2.77-5.12-5.98-10.85-9.63-17.19-13.34-23.18-20.32-35.47-31.35-53.17-6.53-10.48-13.55-19.83-21.08-28.04-2.59-2.83-8.85-8.79-12.2-9.36-1.98-.34-4.74-.34-8.29-.01-.35.03-.69.15-.99.35-3.67,2.45-6.15,3.93-8.43,6.6-2.94,3.45-6.86,6.75-10.14,10.86-9.33,11.69-17.38,23.9-24.74,36.22-.92,1.54-1.65,2.75-2.19,3.64-11.04,18.05-22.25,37.25-33.62,57.61-2.88,5.16-6.02,9.92-8.11,13.96-1.41,2.71-3.37,6.23-5.9,10.55-3.42,5.83-6.85,12.25-10.3,19.28-.42.85-.07,1.88.78,2.3.22.11.46.17.7.18ZM222.27,253.8c.38,1.39.22,2.38-.48,2.99-1.63,7.59-2.59,15.36-2.87,23.31-.02.69.52,1.27,1.21,1.29.14,0,.28-.02.42-.06l5.11-1.65s.05-.02.08-.02c7.04-1.25,11.72-2.16,14.05-2.74,2.89-.72,5.4-.61,8.63-1.6,4.67-1.43,10.36-1.84,15.29-2.72,4.03-.72,7.78-.69,11.89-1.55,1.95-.41,4.92-.72,8.93-.93,5.39-.29,10.77-.81,16.13-1.56,3.58-.5,8.43-.5,11.36-.48,1.84.01,4.67-.2,8.49-.63,13.36-1.53,20.88-1.32,37.95-1.5,3.73-.04,6-.17,6.8-.38.34-.09.69-.09,1.03,0,.57.15,6.62.13,18.13-.04,10.99-.17,25.45-.4,43.37-.69.78-.01,1.56.06,2.33.21,6.09,1.2,13.18.55,17.57.87,16.67,1.21,29.12,2.02,37.34,2.45,7.76.4,14.32,1.42,22.25,2.19,14.09,1.36,28.35,3.3,42.8,5.83,5.24.91,11.11,2.37,17.13,3.37.99.16,1.92-.51,2.08-1.5.02-.13.03-.26.02-.39-.08-1.65-.22-5.12-.43-10.4-.03-.67-.43-1.45-.47-2.16-.83-13.5-3.09-27.38-11.5-38.33-5.19-6.76-12.09-11.28-20.68-13.57-3.16-.84-8.75-2.34-13.61-2.79-6.13-.55-10.92-1.13-14.36-1.73-3.74-.66-7.07-.28-11.12-.8-5.03-.65-10.89-.94-16.62-1.36-4.27-.31-8.9-.12-13.14-.76-8.2-1.23-16.61-.61-25.22-1.13-9.53-.57-22.56-.61-32.17-.61-5.85,0-10.47-.31-13.86-.9-.77-.13-1.55-.18-2.33-.13-5.24.31-11.51-.27-17.18-.07-6.86.25-13.24.31-19.13.18-2.95-.07-6.64.64-8.99.69-16.74.31-26.84.13-38.09,1.06-5.26.43-8.67.55-10.22.36-.8-.1-1.61-.06-2.4.12-3.86.87-7.78,1.12-11.77.74-.87-.09-1.74-.03-2.59.16-2.68.6-6.59,1.16-11.72,1.67-4.79.47-10.59,1.98-13.8,2.78-5.5,1.36-11.21,4.14-17.12,8.34-3.54,2.51-6.59,5.51-9.15,8.99-5.71,7.79-8.84,16.32-9.37,25.59ZM569.68,305.35c-3.63-1.92-6.93-3.27-9.9-4.04-13.85-3.6-29.27-6.5-46.27-8.69-1.39-.18-4.47-.64-9.24-1.37-3.73-.57-6.83-.91-9.29-1-5.15-.21-8.69-.61-10.62-1.2-.1-.03-.2-.04-.31-.05l-26.33-1.04c-.37-.01-.74-.09-1.09-.22-4.11-1.53-10.23-1.08-16.7-.85-7.22.27-15.7.07-25.43-.6-6.19-.42-15.49-.59-27.9-.51-4.33.03-12.38.39-24.15,1.1-8.01.48-16.08.62-24.21.42-.83-.03-1.85.14-3.06.51-.31.09-.62.15-.94.16-11.7.33-21.09.86-28.18,1.59-3.04.31-5.5.51-7.37.58-5.63.22-11.02,1.01-17.08,1.64-3.42.36-6.65.78-9.69,1.27-11.65,1.85-22.87,3.83-33.65,5.92-6.44,1.25-12.36,3.3-17.75,6.15-1.9,1-2.94,2.41-3.11,4.22-.19,2.11-.37,6.47-.54,13.08-.03,1.08-.47,3.76-1.34,8.05-.09.44-.13.88-.13,1.32.04,4.01-.4,9.27,5.28,6.01,4.29-2.45,8.18-4.01,11.68-4.66,6.45-1.21,10.41-1.95,11.88-2.21,7.95-1.4,16.1-.43,24.35,1.22,4.6.92,8.17,1.89,10.71,2.92,3.77,1.53,7.33,3.03,10.7,4.51,7.44,3.27,15.85,3.91,23.79,3.83,1.41-.01,3.15-.22,5.24-.63,4.3-.85,8.41-1.44,12.81-3.18,5.27-2.09,10.31-4.63,15.1-7.64,3.81-2.39,6.98-4.06,9.52-5.02,7.86-2.99,14.19-5.43,21.11-6.21,3.79-.42,6.01-.7,6.68-.83,3.07-.61,6.42-.81,10.03-.58,9.78.62,17.91.98,25.92,3.62,4.2,1.38,6.76,2.22,7.67,2.53,3.93,1.29,6.46,2.27,7.61,2.92,1.37.79,6.53,3.7,15.48,8.75,3.47,1.96,8.16,3.64,14.09,5.03,4.31,1.01,8.51.78,12.87,1.91.48.13.97.15,1.45.08,6.78-.97,11.6-.93,17.24-2.93,5.48-1.94,10.1-3.73,13.86-5.36,9.72-4.22,19.19-4.42,30.37-4.76,6.48-.2,13.55.92,18.35,2.33,3.49,1.02,6.95,2.49,10.38,4.41.87.49,1.96.18,2.45-.69.05-.09.1-.19.13-.29.29-.83.27-1.94-.05-3.31-.01-.05-.02-.11-.02-.16l-.83-25.53c-.03-1.06-.63-2.03-1.57-2.52ZM215.3,389.1l-.43,30.47-.21-1.38c-.01-.09-.09-.16-.17-.15h-.01c-.09,0-.16.07-.16.16-.47,10.52-1.07,17.27-1.14,27.22-.09,13.88-.12,22.72-.09,26.53.02,3.28-.68,7.01-.74,10.42-.23,12.48-.46,28-.7,46.56-.12,9.47-.08,15.2.11,17.18.18,1.91-.26,4.48-.23,6,.19,10.77.28,21.04.28,30.83,0,8.22.11,14.67.34,19.35.05.97.03,7.41-.06,19.33-.06,8.12,12.89,12.5,19,14.67,3.73,1.31,6.51,2.07,8.34,2.26,5.38.57,9.16,1.59,13.43,1.06,5-.62,8.02-1.06,9.06-1.32,1.8-.45,6.37-1.89,13.72-4.32,2.69-.89,4.97-1.07,7.81-1.83,8.55-2.26,18.11-2.28,27.3-1.3,2.59.27,4.92.69,7,1.24,3.01.81,7.29.95,10.97,2.29,3.02,1.1,8.2,3.19,15.53,6.27,3.59,1.51,6.9,3.29,9.93,5.35,3,2.05,5.83,2.74,8.84,4.41,2.11,1.17,4.4,2.08,6.86,2.73,7.57,1.99,12.33,3,14.29,3.04,9.19.19,14.99.18,17.39-.04,13.43-1.22,25.86-5.4,37.28-12.53.76-.48,1.55-.9,2.37-1.26,1.54-.67,3.3-1.5,5.27-2.47,9.57-4.73,19.86-7.34,30.85-7.83,2.06-.09,4.4-.28,7.03-.57,3.11-.34,6.22-.14,9.35.59.42.1.84.15,1.27.15,6.7,0,13.01,1,18.94,2.99,6.25,2.09,10.26,3.41,12.04,3.95,3.66,1.1,7.05,1.26,11.07,1.83,1.47.21,2.96.23,4.43.06,3.02-.34,5.82-.72,8.39-1.13,7.49-1.19,15.46-4.67,23.93-10.43,2.09-1.42,3.15-2.89,3.18-4.41.22-12.47.98-27.19.94-39.94-.08-21.75.15-42.34-.41-62.52-.41-14.73-.7-24.88-.87-30.47-.34-11.6-.44-26.1-.46-35.11-.01-8-.27-16.77-.76-26.31-.59-11.33-.85-23.94-.77-37.82.02-2.45-.66-4.82-.59-7.21.24-8.29.31-13.11.21-14.46-.16-2.25-.55-4.21-1.17-5.88-.54-1.44-1.87-2.81-3.99-4.1-7.38-4.5-15.09-7.51-23.13-9.04-1.49-.29-6.67-.33-15.53-.12-.44.01-.87.08-1.3.19-2.33.6-5.14,1.12-7.59,2.13-9.18,3.77-15.79,6.13-19.82,7.08-18.71,4.41-37.03,3.49-54.95-2.76-6.24-2.17-11.76-5.39-17.71-8.72-7.35-4.11-15.3-6.71-23.84-7.81-3.28-.42-6.43-1.25-9.66-1.23-13.03.08-25.22,3.2-36.56,9.36-2.71,1.47-5.02,2.75-6.91,3.82-7.09,4.01-15.6,6.32-23.28,7.75-4.79.89-9.93,1.59-15.44,2.09-4.28.39-7.5.36-9.65-.09-2.79-.59-5.54-.91-8.25-.96-.32,0-.64-.04-.95-.11-8.27-1.7-14.54-3.91-22.48-7.11-3.47-1.4-7.78-2.19-10.13-3.01-.39-.14-.8-.23-1.21-.26l-8.57-.71c-.12,0-.24,0-.35.01-3.29.53-6.83.3-9.94.98-9.19,2.02-17.48,5.59-24.87,10.72-.26.18-.48.42-.64.7-.59,1.04-.96,2.87-1.12,5.48-.49,7.84-.46,14.33.09,19.47ZM108.93,371.39c-1.95,1.73-3.09,2.81-3.42,3.26-2.05,2.75-3.67,4.8-4.88,6.15-1.71,1.9-4.12,2.71-7.25,2.44-5.31-.47-6.22-3.16-7.56-7.87-1.3-4.57-2.78-8.19-4.43-10.87-5.13-8.32-12.48-13-22.05-14.05-3.25-.35-6.59-.02-10.03.99-4,1.18-7.1,2.5-9.29,3.96-8.56,5.67-14.51,13.57-17.84,23.69-1.79,5.44-1.19,13.44-.95,18.76.19,4.15,1.2,8.58,3.04,13.28,5.76,14.64,14.19,26.58,28.21,33.69,4.58,2.33,9.3,3.84,14.17,4.53,5.38.77,10.37.9,14.98.39,1.91-.21,4.72-1.15,8.43-2.82,9.79-4.43,17.39-11.13,22.81-20.11,6.67-11.07,10.36-23.14,11.07-36.21.29-5.33.06-13.45-2.96-17.21-3.02-3.76-6.77-4.6-11.26-2.52-.29.14-.55.31-.79.52ZM189.48,521.7c-35.03-3.96-63.03-30.04-82.5-58.33-.33-.47-.94-.65-1.46-.42l-10.01,4.35c-.43.19-.63.7-.44,1.14.02.04.03.07.06.1,12.38,19.79,28.1,36.05,47.15,48.79,13.56,9.06,28.7,15.47,44.38,19.36,1.15.28,1.98.41,2.5.38.53-.02.94-.45.94-.98v-13.7c0-.35-.27-.65-.62-.69ZM600.58,505.16c-.39-.25-.91-.14-1.16.25-.09.14-.14.3-.14.47v16.4c0,1.24.64,2.39,1.69,3.04,13.74,8.59,26.06,18.36,36.97,29.31,10.86,10.9,20.84,22.38,27.8,35.62.19.36.63.49.99.3,0,0,.02,0,.02-.01l10.21-5.9c.12-.06.19-.2.17-.34-.12-.86-.58-1.92-1.38-3.19-3.85-6.07-8.36-12.57-13.55-19.52-13.78-18.48-30.93-35-49.22-48.11-3.5-2.51-7.63-5.28-12.4-8.32ZM665.57,676.72c3.98.71,6.22-1.06,9-3.72,2.76-2.64,5.39-11.25,10.46-7.48,1.77,1.31,2.93,2.6,3.46,3.87,1.57,3.78,3.95,10.12,6.84,13.08,8.65,8.89,20.73,10.32,31.78,4.78.44-.23.86-.52,1.22-.86,3.89-3.74,6.2-6.09,6.91-7.06,3.26-4.37,5.02-9.94,5.28-16.72.64-16.51-4.08-31.13-14.16-43.85-5.33-6.73-11.83-11.77-19.5-15.12-.32-.15-.66-.25-1.01-.31-6.01-1.08-9.37-2.18-14.11-1.2-3.54.73-5.52,1.18-5.93,1.36-3.6,1.54-7.16,3.73-10.68,6.57-3.05,2.45-5.62,5.74-7.71,9.85-4.39,8.62-7.06,16.53-8.01,23.72-.72,5.37-.85,12.32-.38,20.85.19,3.56,2.42,11.51,6.54,12.24ZM576.06,654.8h-1.27c.04-.3,0-.48-.12-.54-.21-.09-.41-.1-.59-.01-8.15,3.91-16.84,6.21-26.09,6.92-5.71.44-14.86.02-27.44-1.27-1.33-.14-5.1-1.26-11.31-3.35-2.92-.99-5.67-1.8-8.25-2.45-6.43-1.62-11.11-1.66-16.27-1.84-9.16-.32-18.78,2.45-27.65,5.94-2.29.9-6.16,2.94-11.62,6.12-5.49,3.2-11.6,5.91-18.31,8.14-4.14,1.38-8.52,1.9-12.57,2.86-2.5.59-5.7,1-9.61,1.25-9.26.59-16.58.66-21.97.22-8.31-.67-14.7-1.71-19.16-3.12-7.9-2.49-12.85-4.36-14.84-5.61-5.25-3.26-10.3-6.17-15.15-8.73-5.38-2.84-11.95-4.2-16.77-5.57-2.61-.75-4.33-1.16-5.14-1.23-2.64-.25-4.39-.45-5.26-.62-4.5-.86-9.84.22-14.15.28-1.65.02-3.73.34-6.23.95-5.65,1.39-12.17,3.98-18.17,5.44-4.06.99-6.51,1.52-7.36,1.59-7.72.69-15.38.74-22.97.15-1.49-.12-3.72-.7-6.67-1.73-.38-.13-.77-.24-1.16-.32-3.81-.79-6.43-1.59-7.86-2.4-2.21-1.27-4.4-2.12-6.59-2.57-1.23-.25-2.43.54-2.68,1.77-.04.18-.05.36-.04.55l1.23,30.26c.02.38.13.75.32,1.08.74,1.25,2.13,1.15,3.49,1.6,5.94,1.96,10.76,4.18,16.88,5.73,5.11,1.3,13.02,3.68,19.57,4.89,8.87,1.64,17.91,3.24,27.11,4.79,6.11,1.03,15.38,2.2,27.79,3.51,10.93,1.15,17.02,1.83,18.27,2.03,4.37.69,8.93.11,13.06.94,3.12.63,6.38.96,9.77.99,3,.03,7.42.25,13.26.68,3.21.24,7.62.31,13.25.2,4.03-.08,18.45-.11,43.26-.1,3.28,0,6.29-.5,9.6-.36.38.02.77-.02,1.14-.13,1.17-.32,1.99-.48,2.45-.49,4.36-.02,7.24.1,11.36-.32,7.47-.76,13.13-.45,20.39-1.29.88-.1,7.58-.77,20.11-2.02,16.85-1.67,38.02-5,56.69-9.3,6.31-1.45,13.22-3.29,20.73-5.51,3.7-1.09,7.43-2.67,11.19-4.73,1.47-.81,2.23-1.64,2.28-2.51.36-6.87.38-17.12.07-30.76ZM227.94,758.72l8.16,8.07c1.45,2.14,3.65,3.92,6.6,5.35,6.99,3.39,11.56,5.41,13.71,6.04,7.01,2.09,16.43,5.82,25.04,6.3.37.02,4.99.62,13.86,1.79,5.97.79,10.58,1.27,13.85,1.44,1.2.06,6.45.61,15.76,1.66,3.63.41,7.5.38,11.32.87,6.31.81,12.06.99,18.05,1.59,3.35.33,6.53.49,9.56.47,22.07-.1,36.28-.13,42.65-.08,3.6.03,6.07.51,8.92.3,2.75-.21,4.97-.31,6.67-.28,7.49.09,13.69-.16,18.59-.77,3.83-.47,7.36.03,11.19-.63,2.26-.39,5.05-.61,8.38-.67,4.21-.08,10.01-.5,17.42-1.25,10.15-1.03,15.89-1.64,17.2-1.81,9-1.17,14.71-2.02,17.12-2.56,2.79-.63,5.81-1.27,9.05-1.9,8.88-1.75,17.86-5.1,26.95-10.07,2.17-1.18,5.04-3.21,8.63-6.1,7.58-6.1,12.14-14.13,14.44-23.54,2.33-9.53,3.32-19.59,2.96-30.2-.65.07-1.05.07-1.19-.02-.71-.51-1.76-.48-3.15.09-8.98,3.61-18.12,6.3-27.41,8.05-13.68,2.59-22.97,4.27-27.88,5.06-9.09,1.47-18.65,2.57-28.69,3.32-2.62.19-6.18.94-9.54,1.03-6.17.17-11.28.59-15.33,1.24-2.97.47-5.31.63-7.02.46-5.44-.54-10.39.93-16.06.79-3.71-.08-8.14.24-13.31.97-1.76.25-6.3.34-13.63.26-11.14-.13-20.45-.05-33.91.3-4.32.11-13.09-1.35-19.68-1.29-5.2.05-9.36-.84-13.94-.78-.18,0-2.68-.08-7.51-.25-.52-.02-1.03-.12-1.51-.3-1.51-.57-3.04-.81-4.57-.71-3.82.24-7.81-.5-11.37-.55-1.69-.03-3.85-.22-6.47-.57-4.87-.67-9.16-1.15-12.85-1.44-4.29-.35-7.96-1.7-11.95-1.78-2.37-.05-5.35-.43-8.95-1.15-.89-.18-4.12-.63-9.67-1.35-11.07-1.43-22.63-3.96-34.67-7.58-4.9-1.47-7.92-2.28-9.06-2.41-.02,0-.04-.01-.06-.02l-6.41-2.56c-.45-.18-.95-.16-1.39.04-1.15.55-1.69,1.44-1.62,2.67.35,5.75,1.09,12.25,2.24,19.52,1.2,7.62,3.13,13.04,6.4,20.28,1.09,2.39,2.45,3.95,4.08,4.66ZM304.23,810.24c-.57-.17-.96.3-1.19,1.43-.01-.31-.05-.47-.11-.47-.4-.04-.75.24-.8.64,0,.03,0,.06,0,.08l.26,36.85c0,.29.11.57.31.78,1.25,1.31,2.99.8,4.54,1.17,3.19.75,6.5,1.34,9.93,1.79.88.12,1.69-.5,1.81-1.38.01-.1.02-.2.01-.3l-2.17-38.2c-.05-.96-.78-1.75-1.74-1.87l-9.54-1.26c-.13-.02-.25-.02-.38,0-1.35.17-1.66.42-.93.74ZM474.83,811.85c-.15.01-.28.14-.28.29l-2.13,39.67c-.01.17.11.31.27.32.03,0,.05,0,.08,0l15.7-2.7c.14-.02.25-.15.25-.29v-37.75c0-.17-.13-.3-.3-.3,0,0-.01,0-.02,0l-13.57.76ZM468.38,875.78c-.39.61-.64,1.24-.77,1.89-1.31,6.41-2.14,12.86-2.49,19.35-.15,2.85.31,5.38,1.38,7.6,1.58,3.27,2.18,5.47,4.85,7.14,11.24,7.07,26.68,7.21,39.44,7.96,2.06.13,4.05,0,5.97-.36.37-.07.74-.1,1.11-.09,6.38.09,12.79-.35,19.22-1.34,5.67-.87,13.23-3.21,17.04-7.22,3.44-3.63,1.6-10.63-.81-14.31-3-4.59-6.68-8.36-11.03-11.32-8.53-5.8-17.61-9.79-27.24-11.96-6.04-1.37-9.09-2.05-9.16-2.06-7.14-1.17-15.39-1.41-23.12.29-5.59,1.23-9.89,2.32-12.91,3.29-.61.19-1.14.6-1.48,1.14ZM322.88,875.88c-.85-.55-1.86-1.01-3.03-1.36-3.12-.93-7.09-1.99-11.9-3.18-5.73-1.41-12.5-.99-18.01-.98-1.4,0-2.79.14-4.16.43-4.36.92-8.46,1.24-12.62,2.57-15.24,4.88-31.22,12.05-37.47,26.48-1.76,4.05-1.31,7.69,1.36,10.93,2.52,3.07,9.73,5.82,13.27,6.43,2.24.38,5.72.85,10.43,1.4,8.14.95,12.85.57,23.96.39,4.47-.07,7.89-.54,12.19-.92,3.83-.33,8.26-1.18,13.28-2.53,3.38-.91,7.28-3.43,11.71-7.57,2.34-2.19,3.62-4.81,3.83-7.87.5-7.35-.19-15.07-2.08-23.15-.1-.44-.38-.83-.76-1.07Z"/><path class="cls-8" d="M288.01,184.23c-.95-.03-1.69-.83-1.66-1.78,0-.24.07-.48.18-.7,3.45-7.03,6.88-13.45,10.3-19.28,2.53-4.32,4.49-7.84,5.9-10.55,2.09-4.04,5.23-8.8,8.11-13.96,11.37-20.36,22.58-39.56,33.62-57.61.54-.89,1.27-2.1,2.19-3.64,7.36-12.32,15.41-24.53,24.74-36.22,3.28-4.11,7.2-7.41,10.14-10.86,2.28-2.67,4.76-4.15,8.43-6.6.3-.2.64-.32.99-.35,3.55-.33,6.31-.33,8.29.01,3.35.57,9.61,6.53,12.2,9.36,7.53,8.21,14.55,17.56,21.08,28.04,11.03,17.7,18.01,29.99,31.35,53.17,3.65,6.34,6.86,12.07,9.63,17.19,5.23,9.67,8.38,15.44,9.46,17.31,1.92,3.33,3.15,5.66,3.68,6.99,1.24,3.08,3.38,5.82,5.05,9.22,5.37,10.94,8.65,17.59,9.83,19.95.36.72.06,1.59-.65,1.94-.14.07-.28.11-.44.14-.04,0-.32,0-.85-.05-11.85-.9-21.67-1.48-29.46-1.74-12.63-.43-25.36-.89-38.2-1.39-4.46-.17-9.04.16-13.09-.24-2.38-.23-4.12-.33-5.22-.3-8.84.24-20.77-.65-31.24-.55-.29,0-13.15.08-38.57.23-3.95.02-6.92.41-10.27.2-1.16-.08-2.52-.09-4.09-.04-5.33.17-12.15.47-20.46.9-4.23.21-7.72.47-10.46.76-3.83.41-7.33.56-10.51.45ZM394.11,180.94c19.48.17,43.61.81,72.38,1.9,10.01.39,21.22,1.13,33.61,2.24.42.04.79-.27.82-.69.01-.15-.02-.29-.08-.42-.27-.51-2.95-5.67-8.02-15.48-10.1-19.51-23.66-44.19-40.67-74.02-8.84-15.49-16.49-28.17-22.96-38.04-7.1-10.83-14.61-20.99-24.04-29.2-2.98-2.6-6.19-3.91-9.62-3.94-3.43-.03-6.66,1.22-9.69,3.76-9.58,8.05-17.27,18.07-24.56,28.77-6.65,9.75-14.53,22.29-23.64,37.62-17.55,29.52-31.55,53.94-42,73.27-5.25,9.73-8.01,14.84-8.3,15.34-.2.37-.06.83.31,1.03.13.07.27.1.41.09,12.41-.88,23.63-1.42,33.64-1.63,28.79-.58,52.93-.78,72.41-.6Z"/><path class="cls-2" d="M395.53,23.29c3.43.03,6.64,1.34,9.62,3.94,9.43,8.21,16.94,18.37,24.04,29.2,6.47,9.87,14.12,22.55,22.96,38.04,17.01,29.83,30.57,54.51,40.67,74.02,5.07,9.81,7.75,14.97,8.02,15.48.19.37.05.83-.32,1.03-.13.07-.27.1-.42.08-12.39-1.11-23.6-1.85-33.61-2.24-28.77-1.09-52.9-1.73-72.38-1.9-19.48-.18-43.62.02-72.41.6-10.01.21-21.23.75-33.64,1.63-.42.03-.78-.29-.81-.71,0-.14.02-.29.09-.41.29-.5,3.05-5.61,8.3-15.34,10.45-19.33,24.45-43.75,42-73.27,9.11-15.33,16.99-27.87,23.64-37.62,7.29-10.7,14.98-20.72,24.56-28.77,3.03-2.54,6.26-3.79,9.69-3.76ZM416.26,66.85c-2.24.87-3.11,2.66-2.61,5.36,2.39,12.87,6.09,22.83,11.63,39.86,4.21,12.92,11.78,30.33,17.35,45.85,1.1,3.07,2.21,5.08,3.34,6.03,4.32,3.65,10.41,4.03,14.2-.61,1.31-1.61,2.13-2.59,2.06-4.48-.06-1.88-.29-4.2-1.01-6.2-2.63-7.23-5.29-17.22-8.39-24.5-8.73-20.45-18.44-37.58-31.15-57.68-1.01-1.6-3.28-4.46-5.42-3.63Z"/><path class="cls-3" d="M416.26,66.85c2.14-.83,4.41,2.03,5.42,3.63,12.71,20.1,22.42,37.23,31.15,57.68,3.1,7.28,5.76,17.27,8.39,24.5.72,2,.95,4.32,1.01,6.2.07,1.89-.75,2.87-2.06,4.48-3.79,4.64-9.88,4.26-14.2.61-1.13-.95-2.24-2.96-3.34-6.03-5.57-15.52-13.14-32.93-17.35-45.85-5.54-17.03-9.24-26.99-11.63-39.86-.5-2.7.37-4.49,2.61-5.36Z"/><path class="cls-8" d="M221.79,256.79l-2.1,23.5c-.02.25.16.48.41.5.07,0,.15,0,.22-.03,2.07-.85,3.77-1.42,5.08-1.73,25.33-6.01,52.36-10,81.09-11.97,20.65-1.42,40.32-2.3,59.01-2.64,23.06-.41,40.39-.52,51.99-.32,21.44.37,44.15,1.41,68.13,3.14,5.58.4,11.83,1.01,18.75,1.83,12.06,1.44,18.3,2.19,18.73,2.24,16.69,2.15,31.52,4.68,44.47,7.58.44.09.88-.19.97-.63.02-.07.02-.15.02-.22-.43-7.14-1.01-14.3-1.74-21.48-.92-9.01-3.44-17.19-7.56-24.53-4.62-8.22-12.3-14.46-21.44-17.07-4.13-1.19-6.97-1.92-8.5-2.19-10.8-1.96-25.09-3.39-37.13-4.18-57.27-3.79-114.67-4.74-172.2-2.85-10.47.35-22.47,1.04-36.01,2.07-20.93,1.61-43.95,5.37-54.92,26.12-3.25,6.14-5.51,12.76-6.79,19.87.53-9.27,3.66-17.8,9.37-25.59,2.56-3.48,5.61-6.48,9.15-8.99,5.91-4.2,11.62-6.98,17.12-8.34,3.21-.8,9.01-2.31,13.8-2.78,5.13-.51,9.04-1.07,11.72-1.67.85-.19,1.72-.25,2.59-.16,3.99.38,7.91.13,11.77-.74.79-.18,1.6-.22,2.4-.12,1.55.19,4.96.07,10.22-.36,11.25-.93,21.35-.75,38.09-1.06,2.35-.05,6.04-.76,8.99-.69,5.89.13,12.27.07,19.13-.18,5.67-.2,11.94.38,17.18.07.78-.05,1.56,0,2.33.13,3.39.59,8.01.89,13.86.9,9.61,0,22.64.04,32.17.61,8.61.52,17.02-.1,25.22,1.13,4.24.64,8.87.45,13.14.76,5.73.42,11.59.71,16.62,1.36,4.05.52,7.38.14,11.12.8,3.44.6,8.23,1.18,14.36,1.73,4.86.45,10.45,1.95,13.61,2.79,8.59,2.29,15.49,6.81,20.68,13.57,8.41,10.95,10.67,24.83,11.5,38.33.04.71.44,1.49.47,2.16.21,5.28.35,8.75.43,10.4.05,1-.72,1.86-1.72,1.91-.13,0-.26,0-.38-.02-6.02-1-11.89-2.46-17.13-3.37-14.45-2.53-28.71-4.47-42.8-5.83-7.93-.77-14.49-1.79-22.25-2.19-8.22-.43-20.67-1.24-37.34-2.45-4.39-.32-11.48.33-17.57-.87-.77-.15-1.55-.22-2.33-.21-17.92.29-32.38.52-43.37.69-11.51.17-17.56.19-18.13.04-.34-.08-.69-.08-1.03,0-.8.21-3.07.34-6.8.38-17.07.18-24.59-.03-37.95,1.5-3.82.43-6.65.64-8.49.63-2.93-.02-7.78-.02-11.36.48-5.36.75-10.74,1.27-16.13,1.56-4.01.21-6.98.52-8.93.93-4.11.86-7.86.83-11.89,1.55-4.93.88-10.62,1.29-15.29,2.72-3.23.99-5.74.88-8.63,1.6-2.33.58-7.01,1.49-14.05,2.74-.03,0-.05,0-.08.02l-5.11,1.65c-.66.21-1.36-.15-1.57-.81-.04-.14-.06-.28-.06-.42.28-7.95,1.24-15.72,2.87-23.31Z"/><path class="cls-2" d="M221.79,256.79c.7-.61.86-1.6.48-2.99,1.28-7.11,3.54-13.73,6.79-19.87,10.97-20.75,33.99-24.51,54.92-26.12,13.54-1.03,25.54-1.72,36.01-2.07,57.53-1.89,114.93-.94,172.2,2.85,12.04.79,26.33,2.22,37.13,4.18,1.53.27,4.37,1,8.5,2.19,9.14,2.61,16.82,8.85,21.44,17.07,4.12,7.34,6.64,15.52,7.56,24.53.73,7.18,1.31,14.34,1.74,21.48.03.45-.32.84-.77.87-.07,0-.15,0-.22-.02-12.95-2.9-27.78-5.43-44.47-7.58-.43-.05-6.67-.8-18.73-2.24-6.92-.82-13.17-1.43-18.75-1.83-23.98-1.73-46.69-2.77-68.13-3.14-11.6-.2-28.93-.09-51.99.32-18.69.34-38.36,1.22-59.01,2.64-28.73,1.97-55.76,5.96-81.09,11.97-1.31.31-3.01.88-5.08,1.73-.24.1-.5-.02-.6-.25-.03-.07-.04-.14-.03-.22l2.1-23.5ZM526.31,241.7c5.22.62,9.22-.23,9.55-6.4.26-4.75-1.26-6.88-5.42-8.37-2.11-.76-3.47-1.18-4.06-1.26-7.32-.97-15.35-2.15-24.09-3.54-7.5-1.19-16.49-1.15-22.3-2.06-6.12-.96-12.03-1.18-17.73-.66-5.83.53-10,6.97-7.29,12.29,1.19,2.34,4.26,2.86,6.78,3.14,8.85.98,18.85,1.96,30.01,2.94,3.11.27,14.62,1.58,34.55,3.92Z"/><path class="cls-3" d="M535.86,235.3c-.33,6.17-4.33,7.02-9.55,6.4-19.93-2.34-31.44-3.65-34.55-3.92-11.16-.98-21.16-1.96-30.01-2.94-2.52-.28-5.59-.8-6.78-3.14-2.71-5.32,1.46-11.76,7.29-12.29,5.7-.52,11.61-.3,17.73.66,5.81.91,14.8.87,22.3,2.06,8.74,1.39,16.77,2.57,24.09,3.54.59.08,1.95.5,4.06,1.26,4.16,1.49,5.68,3.62,5.42,8.37Z"/><path class="cls-8" d="M569.68,305.35c.94.49,1.54,1.46,1.57,2.52l.83,25.53c0,.05,0,.11.02.16.32,1.37.34,2.48.05,3.31-.33.94-1.35,1.44-2.29,1.11-.1-.03-.2-.08-.29-.13-3.43-1.92-6.89-3.39-10.38-4.41-4.8-1.41-11.87-2.53-18.35-2.33-11.18.34-20.65.54-30.37,4.76-3.76,1.63-8.38,3.42-13.86,5.36-5.64,2-10.46,1.96-17.24,2.93-.48.07-.97.05-1.45-.08-4.36-1.13-8.56-.9-12.87-1.91-5.93-1.39-10.62-3.07-14.09-5.03-8.95-5.05-14.11-7.96-15.48-8.75-1.15-.65-3.68-1.63-7.61-2.92-.91-.31-3.47-1.15-7.67-2.53-8.01-2.64-16.14-3-25.92-3.62-3.61-.23-6.96-.03-10.03.58-.67.13-2.89.41-6.68.83-6.92.78-13.25,3.22-21.11,6.21-2.54.96-5.71,2.63-9.52,5.02-4.79,3.01-9.83,5.55-15.1,7.64-4.4,1.74-8.51,2.33-12.81,3.18-2.09.41-3.83.62-5.24.63-7.94.08-16.35-.56-23.79-3.83-3.37-1.48-6.93-2.98-10.7-4.51-2.54-1.03-6.11-2-10.71-2.92-8.25-1.65-16.4-2.62-24.35-1.22-1.47.26-5.43,1-11.88,2.21-3.5.65-7.39,2.21-11.68,4.66-5.68,3.26-5.24-2-5.28-6.01,0-.44.04-.88.13-1.32.87-4.29,1.31-6.97,1.34-8.05.17-6.61.35-10.97.54-13.08.17-1.81,1.21-3.22,3.11-4.22,5.39-2.85,11.31-4.9,17.75-6.15,10.78-2.09,22-4.07,33.65-5.92,3.04-.49,6.27-.91,9.69-1.27,6.06-.63,11.45-1.42,17.08-1.64,1.87-.07,4.33-.27,7.37-.58,7.09-.73,16.48-1.26,28.18-1.59.32-.01.63-.07.94-.16,1.21-.37,2.23-.54,3.06-.51,8.13.2,16.2.06,24.21-.42,11.77-.71,19.82-1.07,24.15-1.1,12.41-.08,21.71.09,27.9.51,9.73.67,18.21.87,25.43.6,6.47-.23,12.59-.68,16.7.85.35.13.72.21,1.09.22l26.33,1.04c.11,0,.21.02.31.05,1.93.59,5.47.99,10.62,1.2,2.46.09,5.56.43,9.29,1,4.77.73,7.85,1.19,9.24,1.37,17,2.19,32.42,5.09,46.27,8.69,2.97.77,6.27,2.12,9.9,4.04ZM235.44,300.9c-4.86,1.13-11.78,2.93-15.8,5.92-.6.44-.97,1.13-1.01,1.87l-1.52,28.36c-.03.44.31.82.75.85.17.01.33-.03.47-.12,5.09-3.07,10.63-5.19,16.62-6.35,15.97-3.64,31.79-2.42,47.44,3.65,4.27,1.66,7.62,3.02,10.07,4.07,2.87,1.24,6.6,2.1,11.19,2.57,12.43,1.27,24.36-.95,35.8-6.68,5.15-2.59,10.35-6.17,16.01-8.7,21.21-9.45,42.98-10.95,65.31-4.48,7.65,2.22,12.96,4.15,15.93,5.78,5.7,3.13,13.15,8.21,19.23,10.53,10.96,4.17,22.33,5.32,34.1,3.43,11.05-1.76,20.9-8.3,32.05-10.51,15.8-3.14,34.14-1.97,48.51,5.88.26.14.59.05.73-.21.05-.09.07-.19.07-.3l-1.69-29.9c-.01-.2-.13-.38-.31-.46-3.09-1.43-6.18-2.55-9.29-3.37-15.65-4.14-32.27-7.27-49.85-9.4-21.53-2.61-43.2-4.2-65.01-4.78-16.5-.44-31.17-.72-44-.85-13.81-.14-32.39.15-55.75.87-18.18.56-37.74,1.89-58.67,4-17.29,1.75-34.42,4.52-51.38,8.33Z"/><path class="cls-5" d="M234.95,331.43c.47-8.26.85-16.52,1.13-24.79.07-1.99-.31-3.8-.64-5.74,16.96-3.81,34.09-6.58,51.38-8.33,20.93-2.11,40.49-3.44,58.67-4,23.36-.72,41.94-1.01,55.75-.87,12.83.13,27.5.41,44,.85,21.81.58,43.48,2.17,65.01,4.78,17.58,2.13,34.2,5.26,49.85,9.4,3.11.82,6.2,1.94,9.29,3.37.18.08.3.26.31.46l1.69,29.9c.02.3-.2.56-.5.58-.1,0-.21-.02-.3-.07-14.37-7.85-32.71-9.02-48.51-5.88-11.15,2.21-21,8.75-32.05,10.51-11.77,1.89-23.14.74-34.1-3.43-6.08-2.32-13.53-7.4-19.23-10.53-2.97-1.63-8.28-3.56-15.93-5.78-22.33-6.47-44.1-4.97-65.31,4.48-5.66,2.53-10.86,6.11-16.01,8.7-11.44,5.73-23.37,7.95-35.8,6.68-4.59-.47-8.32-1.33-11.19-2.57-2.45-1.05-5.8-2.41-10.07-4.07-15.65-6.07-31.47-7.29-47.44-3.65Z"/><path class="cls-3" d="M235.44,300.9c.33,1.94.71,3.75.64,5.74-.28,8.27-.66,16.53-1.13,24.79-5.99,1.16-11.53,3.28-16.62,6.35-.38.23-.87.12-1.1-.26-.09-.14-.13-.31-.12-.47l1.52-28.36c.04-.74.41-1.43,1.01-1.87,4.02-2.99,10.94-4.79,15.8-5.92Z"/><path class="cls-8" d="M214.87,419.57c-1.23,48.55-1.94,85.73-2.11,111.54-.07,10.19.05,39.36.34,87.53.02,4.5-.37,6.34,3.05,8.8,4.57,3.29,9.1,5.59,13.58,6.92,8.99,3.65,18.26,4.81,27.82,3.48,6.61-.91,12.43-3.31,18.93-5.22,9.51-2.8,19.17-3.87,29-3.22,9.61.63,17.71,1.97,24.28,4.02,7.17,2.23,15.49,6.09,24.98,11.56,8.67,5.01,15.93,7.91,25.5,9.16,11.27,1.46,21.31,1.31,30.14-.45,7.77-1.55,14.04-3.6,18.82-6.14,9.27-4.93,14.61-7.74,16.04-8.43,8.43-4.06,17.01-6.66,25.74-7.8,4.58-.59,9.42-.96,14.51-1.11,12.25-.35,23.88,1.77,35.2,6.07,3.33,1.26,6.77,2.14,10.31,2.65,15.28,2.18,29.45-1.24,42.51-10.27,1.71-1.19,2.57-2.29,2.58-3.32.7-58.34.19-116.33-1.52-173.98-.93-31.07-1.59-57.07-2-78-.08-3.83-.32-6.54-.73-8.13-.11-.44-.3-.85-.56-1.21-.35-.49-1.81-1.42-4.39-2.78-8.58-4.52-17.91-8.36-27.59-8.18-4.53.08-7.9.29-10.13.62-2.45.37-5.68,1.32-9.71,2.85-9.99,3.8-16.97,6.55-25.97,7.82-16.68,2.35-32.78.68-48.31-5.01-2.99-1.09-6.85-2.94-11.58-5.54-5.99-3.29-9.81-5.24-11.47-5.84-6.14-2.22-11.77-3.74-16.9-4.56-12.67-2.05-25.05-.77-37.16,3.83-5.43,2.05-12.59,6.08-16.9,8.56-2.79,1.61-6.97,3.25-12.54,4.92-18.05,5.43-35.56,5.88-52.51,1.33-7.52-2.02-15.42-6.17-22.88-7.84-10-2.23-19.77-1.54-29.31,2.08-5.6,1.8-10.65,4.19-15.15,7.18-1.98,1.32-2.47,2.38-2.47,4.68-.02,5.81-.36,12.8-1.01,20.96-.55-5.14-.58-11.63-.09-19.47.16-2.61.53-4.44,1.12-5.48.16-.28.38-.52.64-.7,7.39-5.13,15.68-8.7,24.87-10.72,3.11-.68,6.65-.45,9.94-.98.11-.01.23-.02.35-.01l8.57.71c.41.03.82.12,1.21.26,2.35.82,6.66,1.61,10.13,3.01,7.94,3.2,14.21,5.41,22.48,7.11.31.07.63.1.95.11,2.71.05,5.46.37,8.25.96,2.15.45,5.37.48,9.65.09,5.51-.5,10.65-1.2,15.44-2.09,7.68-1.43,16.19-3.74,23.28-7.75,1.89-1.07,4.2-2.35,6.91-3.82,11.34-6.16,23.53-9.28,36.56-9.36,3.23-.02,6.38.81,9.66,1.23,8.54,1.1,16.49,3.7,23.84,7.81,5.95,3.33,11.47,6.55,17.71,8.72,17.92,6.25,36.24,7.17,54.95,2.76,4.03-.95,10.64-3.31,19.82-7.08,2.45-1.01,5.26-1.53,7.59-2.13.43-.11.86-.18,1.3-.19,8.86-.21,14.04-.17,15.53.12,8.04,1.53,15.75,4.54,23.13,9.04,2.12,1.29,3.45,2.66,3.99,4.1.62,1.67,1.01,3.63,1.17,5.88.1,1.35.03,6.17-.21,14.46-.07,2.39.61,4.76.59,7.21-.08,13.88.18,26.49.77,37.82.49,9.54.75,18.31.76,26.31.02,9.01.12,23.51.46,35.11.17,5.59.46,15.74.87,30.47.56,20.18.33,40.77.41,62.52.04,12.75-.72,27.47-.94,39.94-.03,1.52-1.09,2.99-3.18,4.41-8.47,5.76-16.44,9.24-23.93,10.43-2.57.41-5.37.79-8.39,1.13-1.47.17-2.96.15-4.43-.06-4.02-.57-7.41-.73-11.07-1.83-1.78-.54-5.79-1.86-12.04-3.95-5.93-1.99-12.24-2.99-18.94-2.99-.43,0-.85-.05-1.27-.15-3.13-.73-6.24-.93-9.35-.59-2.63.29-4.97.48-7.03.57-10.99.49-21.28,3.1-30.85,7.83-1.97.97-3.73,1.8-5.27,2.47-.82.36-1.61.78-2.37,1.26-11.42,7.13-23.85,11.31-37.28,12.53-2.4.22-8.2.23-17.39.04-1.96-.04-6.72-1.05-14.29-3.04-2.46-.65-4.75-1.56-6.86-2.73-3.01-1.67-5.84-2.36-8.84-4.41-3.03-2.06-6.34-3.84-9.93-5.35-7.33-3.08-12.51-5.17-15.53-6.27-3.68-1.34-7.96-1.48-10.97-2.29-2.08-.55-4.41-.97-7-1.24-9.19-.98-18.75-.96-27.3,1.3-2.84.76-5.12.94-7.81,1.83-7.35,2.43-11.92,3.87-13.72,4.32-1.04.26-4.06.7-9.06,1.32-4.27.53-8.05-.49-13.43-1.06-1.83-.19-4.61-.95-8.34-2.26-6.11-2.17-19.06-6.55-19-14.67.09-11.92.11-18.36.06-19.33-.23-4.68-.34-11.13-.34-19.35,0-9.79-.09-20.06-.28-30.83-.03-1.52.41-4.09.23-6-.19-1.98-.23-7.71-.11-17.18.24-18.56.47-34.08.7-46.56.06-3.41.76-7.14.74-10.42-.03-3.81,0-12.65.09-26.53.07-9.95.67-16.7,1.14-27.22,0-.09.07-.16.16-.16h.01c.08,0,.16.06.17.15l.21,1.38Z"/><path class="cls-5" d="M229.73,634.36c.89-1.07,1.27-2.35,1.14-3.86-.23-2.54-.34-3.81-.34-3.82.41-12.78.4-25.8-.05-39.05-.43-12.65-.14-24.48-.2-33.09-.11-14.63.72-30.23.77-46.01.06-18.48.89-37.22,1.15-55.82.12-8.79.42-20.35.91-34.68.69-20.52.97-41.1.82-61.75,9.54-3.62,19.31-4.31,29.31-2.08,7.46,1.67,15.36,5.82,22.88,7.84,16.95,4.55,34.46,4.1,52.51-1.33,5.57-1.67,9.75-3.31,12.54-4.92,4.31-2.48,11.47-6.51,16.9-8.56,12.11-4.6,24.49-5.88,37.16-3.83,5.13.82,10.76,2.34,16.9,4.56,1.66.6,5.48,2.55,11.47,5.84,4.73,2.6,8.59,4.45,11.58,5.54,15.53,5.69,31.63,7.36,48.31,5.01,9-1.27,15.98-4.02,25.97-7.82,4.03-1.53,7.26-2.48,9.71-2.85,2.23-.33,5.6-.54,10.13-.62,9.68-.18,19.01,3.66,27.59,8.18,2.58,1.36,4.04,2.29,4.39,2.78.26.36.45.77.56,1.21.41,1.59.65,4.3.73,8.13.41,20.93,1.07,46.93,2,78,1.71,57.65,2.22,115.64,1.52,173.98-.01,1.03-.87,2.13-2.58,3.32-13.06,9.03-27.23,12.45-42.51,10.27-3.54-.51-6.98-1.39-10.31-2.65-11.32-4.3-22.95-6.42-35.2-6.07-5.09.15-9.93.52-14.51,1.11-8.73,1.14-17.31,3.74-25.74,7.8-1.43.69-6.77,3.5-16.04,8.43-4.78,2.54-11.05,4.59-18.82,6.14-8.83,1.76-18.87,1.91-30.14.45-9.57-1.25-16.83-4.15-25.5-9.16-9.49-5.47-17.81-9.33-24.98-11.56-6.57-2.05-14.67-3.39-24.28-4.02-9.83-.65-19.49.42-29,3.22-6.5,1.91-12.32,4.31-18.93,5.22-9.56,1.33-18.83.17-27.82-3.48ZM313.04,419.57c-10.41-.24-19.07,9.67-19.36,22.14s7.93,22.76,18.33,22.99c10.41.24,19.07-9.67,19.36-22.14.28-12.46-7.93-22.76-18.33-22.99ZM475.91,420.62c-10.3-.04-18.68,10-18.73,22.4s8.27,22.5,18.57,22.54h0c10.3.04,18.68-9.99,18.73-22.4h0c.04-12.41-8.27-22.5-18.57-22.54h0ZM297.14,464.5c-6.22-12.32-17.36-18.11-30.9-16.24-5.47.75-11.58,2-15.47,5.39-2.91,2.54-5.42,5.47-7.52,8.78-6.66,10.53-4.73,26.88,3.87,35.49,6.48,6.48,14.51,9.65,24.08,9.52,2.17-.03,6.22-.82,12.13-2.38.57-.15,1.12-.38,1.63-.68,8.19-4.81,13.14-11.93,14.84-21.38,1.17-6.5.29-12.67-2.66-18.5ZM486.29,475.52c-2.13,15.93,9.42,30.61,25.78,32.8,16.36,2.18,31.35-8.96,33.48-24.89h0c2.13-15.93-9.42-30.61-25.78-32.8s-31.35,8.96-33.48,24.89h0ZM436.87,468.15c-.14-3.26-4.57-5.44-7.3-6.3-3.53-1.11-6.52-.41-8.97,2.1-.17.17-.32.36-.45.57-2.48,4.1-4.08,6.58-4.81,7.45-6.53,7.83-17.67,9.92-27.34,7.64-5.3-1.25-9.87-4.48-13.72-9.7-1.5-2.04-2.62-5.55-4.7-7.17-4.18-3.27-10.24-1.37-13.38,2.58-1.41,1.78-1.47,4.32-1.08,6.43,2.03,11.12,10.09,17.94,20.31,23.42,4.25,2.28,8.63,3.67,13.13,4.16,15.47,1.72,29.52-2.25,40.21-14.04,1.71-1.89,3.1-3.9,4.16-6.03.72-1.43,4.08-7.69,3.94-11.11Z"/><path class="cls-8" d="M109.72,370.87c4.49-2.08,8.24-1.24,11.26,2.52,3.02,3.76,3.25,11.88,2.96,17.21-.71,13.07-4.4,25.14-11.07,36.21-5.42,8.98-13.02,15.68-22.81,20.11-3.71,1.67-6.52,2.61-8.43,2.82-4.61.51-9.6.38-14.98-.39-4.87-.69-9.59-2.2-14.17-4.53-14.02-7.11-22.45-19.05-28.21-33.69-1.84-4.7-2.85-9.13-3.04-13.28-.24-5.32-.84-13.32.95-18.76,3.33-10.12,9.28-18.02,17.84-23.69,2.19-1.46,5.29-2.78,9.29-3.96,3.44-1.01,6.78-1.34,10.03-.99,9.57,1.05,16.92,5.73,22.05,14.05,1.65,2.68,3.13,6.3,4.43,10.87,1.34,4.71,2.25,7.4,7.56,7.87,3.13.27,5.54-.54,7.25-2.44,1.21-1.35,2.83-3.4,4.88-6.15.33-.45,1.47-1.53,3.42-3.26.24-.21.5-.38.79-.52ZM97.62,384.24c-5.18,1.2-8.86.01-11.04-3.56-.55-.9-1.25-3.06-2.1-6.48-.48-1.95-1.28-4.09-2.41-6.43-5.53-11.5-14.8-16.82-27.83-15.96-2.84.19-5.32.73-7.45,1.6-15.13,6.23-24.86,19.68-24.92,36.09-.03,6.03.48,11.12,1.53,15.26,2.59,10.29,7.35,19.42,14.27,27.37,9.06,10.42,21,16.01,35.81,16.77,4.34.22,8.13-.19,11.38-1.24,10.15-3.25,19.55-9.56,25.79-18.89,8.37-12.49,12.48-26.71,12.34-42.66-.04-4.73-.4-11.28-4.74-14.21-6.68-4.51-12.06,3.31-15.49,8.09-1.18,1.64-3.67,3.91-5.14,4.25Z"/><path class="cls-2" d="M97.62,384.24c1.47-.34,3.96-2.61,5.14-4.25,3.43-4.78,8.81-12.6,15.49-8.09,4.34,2.93,4.7,9.48,4.74,14.21.14,15.95-3.97,30.17-12.34,42.66-6.24,9.33-15.64,15.64-25.79,18.89-3.25,1.05-7.04,1.46-11.38,1.24-14.81-.76-26.75-6.35-35.81-16.77-6.92-7.95-11.68-17.08-14.27-27.37-1.05-4.14-1.56-9.23-1.53-15.26.06-16.41,9.79-29.86,24.92-36.09,2.13-.87,4.61-1.41,7.45-1.6,13.03-.86,22.3,4.46,27.83,15.96,1.13,2.34,1.93,4.48,2.41,6.43.85,3.42,1.55,5.58,2.1,6.48,2.18,3.57,5.86,4.76,11.04,3.56Z"/><path class="cls-3" d="M233.93,356.28c.15,20.65-.13,41.23-.82,61.75-.49,14.33-.79,25.89-.91,34.68-.26,18.6-1.09,37.34-1.15,55.82-.05,15.78-.88,31.38-.77,46.01.06,8.61-.23,20.44.2,33.09.45,13.25.46,26.27.05,39.05,0,0,.11,1.28.34,3.82.13,1.51-.25,2.79-1.14,3.86-4.48-1.33-9.01-3.63-13.58-6.92-3.42-2.46-3.03-4.3-3.05-8.8-.29-48.17-.41-77.34-.34-87.53.17-25.81.88-62.99,2.11-111.54l.43-30.47c.65-8.16.99-15.15,1.01-20.96,0-2.3.49-3.36,2.47-4.68,4.5-2.99,9.55-5.38,15.15-7.18Z"/><path class="cls-8" d="M313.04,419.57c10.41.24,18.62,10.53,18.33,22.99-.28,12.46-8.95,22.37-19.36,22.14-10.41-.24-18.62-10.53-18.33-22.99s8.95-22.37,19.36-22.14ZM312.26,420.71c-9.79.07-17.66,9.76-17.58,21.65h0c.08,11.89,8.09,21.47,17.88,21.41h0c9.79-.07,17.66-9.76,17.58-21.65h0c-.08-11.89-8.09-21.47-17.88-21.41h0Z"/><path class="cls-8" d="M475.91,420.62c10.3.04,18.61,10.13,18.57,22.53h0c-.04,12.41-8.43,22.44-18.73,22.4h0c-10.3-.04-18.61-10.13-18.57-22.53h0c.04-12.41,8.43-22.44,18.73-22.4ZM475.65,421.67c-9.71.07-17.52,9.69-17.44,21.48h0c.08,11.8,8.02,21.3,17.74,21.24h0c9.71-.07,17.52-9.69,17.44-21.48h0c-.08-11.8-8.02-21.3-17.74-21.24h0Z"/><ellipse class="cls-1" cx="312.41" cy="442.24" rx="17.73" ry="21.53" transform="translate(-3.08 2.19) rotate(-.4)"/><ellipse class="cls-1" cx="475.8" cy="443.03" rx="17.59" ry="21.36" transform="translate(-3.08 3.33) rotate(-.4)"/><path class="cls-6" d="M266.24,448.26c13.54-1.87,24.68,3.92,30.9,16.24,2.95,5.83,3.83,12,2.66,18.5-1.7,9.45-6.65,16.57-14.84,21.38-.51.3-1.06.53-1.63.68-5.91,1.56-9.96,2.35-12.13,2.38-9.57.13-17.6-3.04-24.08-9.52-8.6-8.61-10.53-24.96-3.87-35.49,2.1-3.31,4.61-6.24,7.52-8.78,3.89-3.39,10-4.64,15.47-5.39Z"/><ellipse class="cls-6" cx="515.91" cy="479.47" rx="29.1" ry="29.89" transform="translate(-27.58 927.44) rotate(-82.4)"/><path class="cls-8" d="M436.87,468.15c.14,3.42-3.22,9.68-3.94,11.11-1.06,2.13-2.45,4.14-4.16,6.03-10.69,11.79-24.74,15.76-40.21,14.04-4.5-.49-8.88-1.88-13.13-4.16-10.22-5.48-18.28-12.3-20.31-23.42-.39-2.11-.33-4.65,1.08-6.43,3.14-3.95,9.2-5.85,13.38-2.58,2.08,1.62,3.2,5.13,4.7,7.17,3.85,5.22,8.42,8.45,13.72,9.7,9.67,2.28,20.81.19,27.34-7.64.73-.87,2.33-3.35,4.81-7.45.13-.21.28-.4.45-.57,2.45-2.51,5.44-3.21,8.97-2.1,2.73.86,7.16,3.04,7.3,6.3ZM394.85,482.14c-4.03-.5-7.21-1.22-9.55-2.15-5.15-2.05-9.19-5.41-12.13-10.06-1.74-2.76-2.8-4.45-3.19-5.07-2.51-4.02-8.68-2.86-11.65-.27-1.53,1.33-2.24,2.67-2.15,4.03.26,3.77,1,6.96,2.23,9.58,3.54,7.54,11.32,13.08,19,16.25,1.35.56,3.32,1.35,5.9,2.37,4.94,1.95,10.93,1.38,15.65,1.47,2.5.05,5.31-.32,8.43-1.11,7.81-1.97,14.38-5.84,19.71-11.6,2.29-2.47,4.08-5.01,5.38-7.6,1.55-3.1,2.63-6.02,3.25-8.75.3-1.3-.2-2.66-1.26-3.46-3.93-2.95-9.13-5.07-13.22-1.03-.19.19-.36.4-.5.63-1.66,2.65-4.01,6.95-6.63,9.27-3.84,3.41-7.99,5.53-12.44,6.37-3.16.6-5.04.96-5.63,1.08-.4.09-.8.1-1.2.05Z"/><path class="cls-1" d="M396.05,482.09c.59-.12,2.47-.48,5.63-1.08,4.45-.84,8.6-2.96,12.44-6.37,2.62-2.32,4.97-6.62,6.63-9.27.14-.23.31-.44.5-.63,4.09-4.04,9.29-1.92,13.22,1.03,1.06.8,1.56,2.16,1.26,3.46-.62,2.73-1.7,5.65-3.25,8.75-1.3,2.59-3.09,5.13-5.38,7.6-5.33,5.76-11.9,9.63-19.71,11.6-3.12.79-5.93,1.16-8.43,1.11-4.72-.09-10.71.48-15.65-1.47-2.58-1.02-4.55-1.81-5.9-2.37-7.68-3.17-15.46-8.71-19-16.25-1.23-2.62-1.97-5.81-2.23-9.58-.09-1.36.62-2.7,2.15-4.03,2.97-2.59,9.14-3.75,11.65.27.39.62,1.45,2.31,3.19,5.07,2.94,4.65,6.98,8.01,12.13,10.06,2.34.93,5.52,1.65,9.55,2.15.4.05.8.04,1.2-.05Z"/><path class="cls-4" d="M189.48,521.7c.35.04.62.34.62.69v13.7c0,.53-.41.96-.94.98-.52.03-1.35-.1-2.5-.38-15.68-3.89-30.82-10.3-44.38-19.36-19.05-12.74-34.77-29-47.15-48.79-.25-.4-.13-.93.28-1.18.03-.02.07-.04.1-.06l10.01-4.35c.52-.23,1.13-.05,1.46.42,19.47,28.29,47.47,54.37,82.5,58.33Z"/><path class="cls-4" d="M600.58,505.16c4.77,3.04,8.9,5.81,12.4,8.32,18.29,13.11,35.44,29.63,49.22,48.11,5.19,6.95,9.7,13.45,13.55,19.52.8,1.27,1.26,2.33,1.38,3.19.02.14-.05.28-.17.34l-10.21,5.9c-.35.2-.8.08-1-.27,0,0,0-.02-.01-.02-6.96-13.24-16.94-24.72-27.8-35.62-10.91-10.95-23.23-20.72-36.97-29.31-1.05-.65-1.69-1.8-1.69-3.04v-16.4c0-.47.38-.85.84-.85.16,0,.32.05.46.13Z"/><path class="cls-8" d="M665.57,676.72c-4.12-.73-6.35-8.68-6.54-12.24-.47-8.53-.34-15.48.38-20.85.95-7.19,3.62-15.1,8.01-23.72,2.09-4.11,4.66-7.4,7.71-9.85,3.52-2.84,7.08-5.03,10.68-6.57.41-.18,2.39-.63,5.93-1.36,4.74-.98,8.1.12,14.11,1.2.35.06.69.16,1.01.31,7.67,3.35,14.17,8.39,19.5,15.12,10.08,12.72,14.8,27.34,14.16,43.85-.26,6.78-2.02,12.35-5.28,16.72-.71.97-3.02,3.32-6.91,7.06-.36.34-.78.63-1.22.86-11.05,5.54-23.13,4.11-31.78-4.78-2.89-2.96-5.27-9.3-6.84-13.08-.53-1.27-1.69-2.56-3.46-3.87-5.07-3.77-7.7,4.84-10.46,7.48-2.78,2.66-5.02,4.43-9,3.72ZM659.91,648.25c-.32,6.07-1.84,27.87,7.52,27.23,5.65-.39,7.77-4.38,11.11-9.21,3.25-4.71,8.64-1.92,10.32,1.99,2.71,6.34,4.84,10.52,6.38,12.53,7.85,10.26,25.08,11.63,34.88,2.88,9.61-8.57,10.42-18.95,9.19-31.64-.55-5.57-2.1-11.42-4.65-17.56-6.81-16.41-22.44-33.61-41.63-31.43-6.46.73-12.52,3.59-18.17,8.58-5.53,4.89-9.16,13.01-11.81,20.34-1.78,4.92-2.83,10.35-3.14,16.29Z"/><path class="cls-2" d="M667.43,675.48c-9.36.64-7.84-21.16-7.52-27.23.31-5.94,1.36-11.37,3.14-16.29,2.65-7.33,6.28-15.45,11.81-20.34,5.65-4.99,11.71-7.85,18.17-8.58,19.19-2.18,34.82,15.02,41.63,31.43,2.55,6.14,4.1,11.99,4.65,17.56,1.23,12.69.42,23.07-9.19,31.64-9.8,8.75-27.03,7.38-34.88-2.88-1.54-2.01-3.67-6.19-6.38-12.53-1.68-3.91-7.07-6.7-10.32-1.99-3.34,4.83-5.46,8.82-11.11,9.21Z"/><path class="cls-8" d="M574.79,654.79c-18.9,9.61-42.36,10.52-62.22,4.07-7.6-2.47-11.72-3.77-12.36-3.92-11.15-2.49-22.26-2.12-33.31,1.11-6.17,1.8-10.55,3.41-13.13,4.82-3.13,1.72-6.63,3.64-10.5,5.76-17.12,9.38-37.04,12.55-56.52,11.73-4.71-.2-8.9-.66-12.55-1.37-9.89-1.94-18.13-4.05-25.58-8.02-5.47-2.92-13.43-8.38-20.52-10.72-7.2-2.39-12.64-3.94-16.32-4.67-8.79-1.74-20.42-1.05-30.39,2.05-6.5,2.03-11.82,3.96-17.94,5.11-13.25,2.49-26.3,1.55-39.14-2.8l-9.29-3.92c-.26-.1-.56.02-.66.28-.02.06-.04.12-.04.19v31.15c0,.51.33.96.81,1.12l15.89,5.34c8.62,2.57,15.03,4.32,19.23,5.25,2.6.57,8.65,1.7,18.16,3.38,6.95,1.23,13.03,2.19,18.25,2.88,29.62,3.95,57.45,6.3,83.5,7.06,34.75,1.01,70.74-.19,107.95-3.6,20.77-1.9,40.87-5.06,60.6-9.28,12.44-2.67,23.94-5.61,35.04-10.72.78-.36,1.29-1.12,1.32-1.98l.99-30.29c.31,13.64.29,23.89-.07,30.76-.05.87-.81,1.7-2.28,2.51-3.76,2.06-7.49,3.64-11.19,4.73-7.51,2.22-14.42,4.06-20.73,5.51-18.67,4.3-39.84,7.63-56.69,9.3-12.53,1.25-19.23,1.92-20.11,2.02-7.26.84-12.92.53-20.39,1.29-4.12.42-7,.3-11.36.32-.46,0-1.28.17-2.45.49-.37.11-.76.15-1.14.13-3.31-.14-6.32.36-9.6.36-24.81-.01-39.23.02-43.26.1-5.63.11-10.04.04-13.25-.2-5.84-.43-10.26-.65-13.26-.68-3.39-.03-6.65-.36-9.77-.99-4.13-.83-8.69-.25-13.06-.94-1.25-.2-7.34-.88-18.27-2.03-12.41-1.31-21.68-2.48-27.79-3.51-9.2-1.55-18.24-3.15-27.11-4.79-6.55-1.21-14.46-3.59-19.57-4.89-6.12-1.55-10.94-3.77-16.88-5.73-1.36-.45-2.75-.35-3.49-1.6-.19-.33-.3-.7-.32-1.08l-1.23-30.26c-.05-1.25.92-2.31,2.17-2.36.18,0,.37,0,.55.04,2.19.45,4.38,1.3,6.59,2.57,1.43.81,4.05,1.61,7.86,2.4.39.08.78.19,1.16.32,2.95,1.03,5.18,1.61,6.67,1.73,7.59.59,15.25.54,22.97-.15.85-.07,3.3-.6,7.36-1.59,6-1.46,12.52-4.05,18.17-5.44,2.5-.61,4.58-.93,6.23-.95,4.31-.06,9.65-1.14,14.15-.28.87.17,2.62.37,5.26.62.81.07,2.53.48,5.14,1.23,4.82,1.37,11.39,2.73,16.77,5.57,4.85,2.56,9.9,5.47,15.15,8.73,1.99,1.25,6.94,3.12,14.84,5.61,4.46,1.41,10.85,2.45,19.16,3.12,5.39.44,12.71.37,21.97-.22,3.91-.25,7.11-.66,9.61-1.25,4.05-.96,8.43-1.48,12.57-2.86,6.71-2.23,12.82-4.94,18.31-8.14,5.46-3.18,9.33-5.22,11.62-6.12,8.87-3.49,18.49-6.26,27.65-5.94,5.16.18,9.84.22,16.27,1.84,2.58.65,5.33,1.46,8.25,2.45,6.21,2.09,9.98,3.21,11.31,3.35,12.58,1.29,21.73,1.71,27.44,1.27,9.25-.71,17.94-3.01,26.09-6.92.18-.09.38-.08.59.01.12.06.16.24.12.53Z"/><path class="cls-9" d="M574.79,654.79h1.27s-.99,30.3-.99,30.3c-.03.86-.54,1.62-1.32,1.98-11.1,5.11-22.6,8.05-35.04,10.72-19.73,4.22-39.83,7.38-60.6,9.28-37.21,3.41-73.2,4.61-107.95,3.6-26.05-.76-53.88-3.11-83.5-7.06-5.22-.69-11.3-1.65-18.25-2.88-9.51-1.68-15.56-2.81-18.16-3.38-4.2-.93-10.61-2.68-19.23-5.25.14-4.28.27-12.16.39-23.65.03-2.84-.51-5.17-1.6-6.98-.17-.28-.45-.47-.76-.54l-4.73-.98c-.08-.01-.17-.06-.23-.12-.61-.54-.53-1.17.22-1.89,12.84,4.35,25.89,5.29,39.14,2.8,6.12-1.15,11.44-3.08,17.94-5.11,9.97-3.1,21.6-3.79,30.39-2.05,3.68.73,9.12,2.28,16.32,4.67,7.09,2.34,15.05,7.8,20.52,10.72,7.45,3.97,15.69,6.08,25.58,8.02,3.65.71,7.84,1.17,12.55,1.37,19.48.82,39.4-2.35,56.52-11.73,3.87-2.12,7.37-4.04,10.5-5.76,2.58-1.41,6.96-3.02,13.13-4.82,11.05-3.23,22.16-3.6,33.31-1.11.64.15,4.76,1.45,12.36,3.92,19.86,6.45,43.32,5.54,62.22-4.07Z"/><path class="cls-7" d="M224.31,657.94c-.75.72-.83,1.35-.22,1.89.06.06.15.11.23.12l4.73.98c.31.07.59.26.76.54,1.09,1.81,1.63,4.14,1.6,6.98-.12,11.49-.25,19.37-.39,23.65l-15.89-5.34c-.48-.16-.81-.61-.81-1.12v-31.15c0-.28.23-.51.51-.51.06,0,.13.01.19.04l9.29,3.92Z"/><path class="cls-8" d="M572.83,712.72c-7.42,2.6-14.95,5.57-22.33,7.31-18.8,4.42-38.21,7.7-58.24,9.84-24.19,2.59-44.29,4.22-60.28,4.89-58.21,2.44-116.53-1.4-174.96-11.51-5.11-.89-9.93-1.97-14.46-3.24-9.18-2.58-17.04-4.35-25.49-7.52-.26-.1-.56.03-.66.3-.02.06-.03.13-.03.19.23,9.03,1.21,17.8,2.93,26.3,1.28,6.29,4.16,12.77,8.63,19.44-1.63-.71-2.99-2.27-4.08-4.66-3.27-7.24-5.2-12.66-6.4-20.28-1.15-7.27-1.89-13.77-2.24-19.52-.07-1.23.47-2.12,1.62-2.67.44-.2.94-.22,1.39-.04l6.41,2.56s.04.01.06.02c1.14.13,4.16.94,9.06,2.41,12.04,3.62,23.6,6.15,34.67,7.58,5.55.72,8.78,1.17,9.67,1.35,3.6.72,6.58,1.1,8.95,1.15,3.99.08,7.66,1.43,11.95,1.78,3.69.29,7.98.77,12.85,1.44,2.62.35,4.78.54,6.47.57,3.56.05,7.55.79,11.37.55,1.53-.1,3.06.14,4.57.71.48.18.99.28,1.51.3,4.83.17,7.33.26,7.51.25,4.58-.06,8.74.83,13.94.78,6.59-.06,15.36,1.4,19.68,1.29,13.46-.35,22.77-.43,33.91-.3,7.33.08,11.87,0,13.63-.26,5.17-.73,9.6-1.05,13.31-.97,5.67.14,10.62-1.33,16.06-.79,1.71.17,4.05.01,7.02-.46,4.05-.65,9.16-1.07,15.33-1.24,3.36-.09,6.92-.84,9.54-1.03,10.04-.75,19.6-1.85,28.69-3.32,4.91-.79,14.2-2.47,27.88-5.06,9.29-1.75,18.43-4.44,27.41-8.05,1.39-.57,2.44-.6,3.15-.09Z"/><path class="cls-7" d="M572.83,712.72c.14.09.54.09,1.19.02-.54,9.41-1.71,18.55-3.5,27.43-1.05,5.19-2.29,9.26-3.72,12.21-4.75,9.77-13.14,16.5-22.89,21.13-13.08,6.22-26,9.32-40.42,11.34-12.25,1.71-25.59,3.05-40,4.01-16.14,1.07-27.73,1.69-34.76,1.85-26.79.6-50.12.52-69.98-.24-25.09-.97-50.82-3.35-77.17-7.14-16.26-2.34-32.31-7.01-45.48-16.54l-8.16-8.07c-4.47-6.67-7.35-13.15-8.63-19.44-1.72-8.5-2.7-17.27-2.93-26.3,0-.28.22-.52.5-.52.07,0,.13,0,.19.03,8.45,3.17,16.31,4.94,25.49,7.52,4.53,1.27,9.35,2.35,14.46,3.24,58.43,10.11,116.75,13.95,174.96,11.51,15.99-.67,36.09-2.3,60.28-4.89,20.03-2.14,39.44-5.42,58.24-9.84,7.38-1.74,14.91-4.71,22.33-7.31Z"/><path class="cls-8" d="M236.1,766.79c13.17,9.53,29.22,14.2,45.48,16.54,26.35,3.79,52.08,6.17,77.17,7.14,19.86.76,43.19.84,69.98.24,7.03-.16,18.62-.78,34.76-1.85,14.41-.96,27.75-2.3,40-4.01,14.42-2.02,27.34-5.12,40.42-11.34,9.75-4.63,18.14-11.36,22.89-21.13,1.43-2.95,2.67-7.02,3.72-12.21,1.79-8.88,2.96-18.02,3.5-27.43.36,10.61-.63,20.67-2.96,30.2-2.3,9.41-6.86,17.44-14.44,23.54-3.59,2.89-6.46,4.92-8.63,6.1-9.09,4.97-18.07,8.32-26.95,10.07-3.24.63-6.26,1.27-9.05,1.9-2.41.54-8.12,1.39-17.12,2.56-1.31.17-7.05.78-17.2,1.81-7.41.75-13.21,1.17-17.42,1.25-3.33.06-6.12.28-8.38.67-3.83.66-7.36.16-11.19.63-4.9.61-11.1.86-18.59.77-1.7-.03-3.92.07-6.67.28-2.85.21-5.32-.27-8.92-.3-6.37-.05-20.58-.02-42.65.08-3.03.02-6.21-.14-9.56-.47-5.99-.6-11.74-.78-18.05-1.59-3.82-.49-7.69-.46-11.32-.87-9.31-1.05-14.56-1.6-15.76-1.66-3.27-.17-7.88-.65-13.85-1.44-8.87-1.17-13.49-1.77-13.86-1.79-8.61-.48-18.03-4.21-25.04-6.3-2.15-.63-6.72-2.65-13.71-6.04-2.95-1.43-5.15-3.21-6.6-5.35Z"/><path class="cls-8" d="M303.04,811.67l.41,37.47c0,.17.13.32.3.34l13.68,2.27c.38.07.74-.19.81-.58,0-.05.01-.11,0-.16l-2.21-39.05c-.01-.18-.15-.33-.32-.35l-11.49-1.37c-.73-.32-.42-.57.93-.74.13-.02.25-.02.38,0l9.54,1.26c.96.12,1.69.91,1.74,1.87l2.17,38.2c.05.89-.64,1.65-1.52,1.69-.1,0-.2,0-.3-.01-3.43-.45-6.74-1.04-9.93-1.79-1.55-.37-3.29.14-4.54-1.17-.2-.21-.31-.49-.31-.78l-.26-36.85c0-.4.32-.72.72-.72.03,0,.06,0,.08,0,.06,0,.1.16.11.47Z"/><path class="cls-4" d="M304.23,810.24l11.49,1.37c.17.02.31.17.32.35l2.21,39.05c.02.39-.27.73-.66.75-.05,0-.11,0-.16,0l-13.68-2.27c-.17-.02-.29-.17-.3-.34l-.41-37.47c.23-1.13.62-1.6,1.19-1.43Z"/><path class="cls-4" d="M474.83,811.85l13.57-.76c.17-.01.31.11.32.28,0,0,0,.01,0,.02v37.75c0,.14-.11.27-.25.29l-15.7,2.7c-.16.03-.32-.08-.35-.24,0-.02,0-.05,0-.08l2.13-39.67c0-.15.13-.28.28-.29Z"/><path class="cls-8" d="M468.38,875.78c.34-.54.87-.95,1.48-1.14,3.02-.97,7.32-2.06,12.91-3.29,7.73-1.7,15.98-1.46,23.12-.29.07,0,3.12.69,9.16,2.06,9.63,2.17,18.71,6.16,27.24,11.96,4.35,2.96,8.03,6.73,11.03,11.32,2.41,3.68,4.25,10.68.81,14.31-3.81,4.01-11.37,6.35-17.04,7.22-6.43.99-12.84,1.43-19.22,1.34-.37,0-.74.02-1.11.09-1.92.37-3.91.49-5.97.36-12.76-.75-28.2-.89-39.44-7.96-2.67-1.67-3.27-3.87-4.85-7.14-1.07-2.22-1.53-4.75-1.38-7.6.35-6.49,1.18-12.94,2.49-19.35.13-.65.38-1.28.77-1.89ZM468.64,876.78c-1.79,8.04-2.59,15.68-2.41,22.92.01.65.12,1.29.32,1.91,1.62,5.06,2.82,8.49,7.3,10.48,7.01,3.12,14.61,4.99,22.79,5.62,10.47.8,21,.84,31.6.12,5.25-.35,10.18-1.16,14.8-2.42,5.97-1.63,12.71-4.46,11.94-11.79-.86-8.09-9.29-15.64-16.01-19.57-14.92-8.73-29.23-12.46-45.01-12.45-7.99,0-16.11,1.37-24.34,4.1-.49.16-.87.57-.98,1.08Z"/><path class="cls-8" d="M323.64,876.95c1.89,8.08,2.58,15.8,2.08,23.15-.21,3.06-1.49,5.68-3.83,7.87-4.43,4.14-8.33,6.66-11.71,7.57-5.02,1.35-9.45,2.2-13.28,2.53-4.3.38-7.72.85-12.19.92-11.11.18-15.82.56-23.96-.39-4.71-.55-8.19-1.02-10.43-1.4-3.54-.61-10.75-3.36-13.27-6.43-2.67-3.24-3.12-6.88-1.36-10.93,6.25-14.43,22.23-21.6,37.47-26.48,4.16-1.33,8.26-1.65,12.62-2.57,1.37-.29,2.76-.43,4.16-.43,5.51-.01,12.28-.43,18.01.98,4.81,1.19,8.78,2.25,11.9,3.18,1.17.35,2.18.81,3.03,1.36.38.24.66.63.76,1.07ZM322.85,877.48c-.17-.78-.75-1.42-1.51-1.67-17.49-5.74-34.71-5.81-51.64-.2-11.05,3.66-22.87,9.25-29.74,18.42-5.81,7.75-7.03,16.22,3.87,20.04,6.94,2.43,14.55,3.77,22.83,4.02,1.71.05,5.44.07,11.17.04,10.67-.05,21.23-.75,31.15-3.54,4.11-1.15,7.86-3.16,11.23-6.02,4.09-3.46,5.14-7.88,4.86-13.45-.33-6.51-1.07-12.39-2.22-17.64Z"/><path class="cls-2" d="M322.85,877.48c1.15,5.25,1.89,11.13,2.22,17.64.28,5.57-.77,9.99-4.86,13.45-3.37,2.86-7.12,4.87-11.23,6.02-9.92,2.79-20.48,3.49-31.15,3.54-5.73.03-9.46.01-11.17-.04-8.28-.25-15.89-1.59-22.83-4.02-10.9-3.82-9.68-12.29-3.87-20.04,6.87-9.17,18.69-14.76,29.74-18.42,16.93-5.61,34.15-5.54,51.64.2.76.25,1.34.89,1.51,1.67Z"/><path class="cls-2" d="M468.64,876.78c.11-.51.49-.92.98-1.08,8.23-2.73,16.35-4.09,24.34-4.1,15.78-.01,30.09,3.72,45.01,12.45,6.72,3.93,15.15,11.48,16.01,19.57.77,7.33-5.97,10.16-11.94,11.79-4.62,1.26-9.55,2.07-14.8,2.42-10.6.72-21.13.68-31.6-.12-8.18-.63-15.78-2.5-22.79-5.62-4.48-1.99-5.68-5.42-7.3-10.48-.2-.62-.31-1.26-.32-1.91-.18-7.24.62-14.88,2.41-22.92Z"/></svg>