<svg width="519" height="567" viewBox="0 0 519 567" fill="none" xmlns="http://www.w3.org/2000/svg">
<path d="M185.52 21.0737C162.72 28.3237 138.9 40.4737 119.45 54.3637C112.16 59.5737 103.82 66.2137 94.4295 74.2837C86.4595 81.1437 78.8595 88.6237 71.6495 96.7237C61.9395 107.634 53.6095 118.224 46.6595 128.484C34.1295 147.014 23.9495 167.204 16.1195 189.074" stroke="#847E71" stroke-width="2"/>
<path d="M16.1196 189.074C8.97958 209.014 4.43958 229.514 2.48958 250.564C-0.490425 282.694 0.809575 315.814 8.12958 347.054C13.6796 370.734 21.6596 392.924 32.8796 413.964C56.4696 458.214 89.5396 493.814 132.09 520.764C161.1 539.134 194.78 551.194 228.64 558.074C243.89 561.164 261.56 563.354 281.65 564.624C309.32 566.374 336.52 566.454 363.27 564.844C366.74 564.634 370.48 563.884 374.47 562.574C386.75 558.564 394.6 550.414 398.01 538.114C398.09 537.794 398.31 537.534 398.61 537.404C428.28 523.704 458.94 509.834 484.4 495.704C494.71 489.984 502.94 484.194 509.11 478.324C515.62 472.124 518.43 464.604 517.53 455.764C516.38 444.464 508.19 437.004 498.71 432.064C493.24 429.214 487.01 426.624 480.02 424.284C449.6 414.124 419.81 405.234 390.65 397.604C390.27 397.504 389.96 397.254 389.77 396.914C384.95 388.184 377.73 382.304 368.12 379.274C360.35 376.834 352.57 377.384 344.83 379.444C332.48 382.724 324.36 385.254 313.96 387.204C299.89 389.834 285.82 391.314 271.76 391.624C262.75 391.824 254.06 391.354 245.67 390.204C228.93 387.914 213.51 382.404 199.42 373.664C181.37 362.464 167.34 343.344 160.6 323.274C154.18 304.134 153.2 281.994 156.14 262.274C157.57 252.684 160.12 243.484 163.77 234.684" stroke="#9B8B75" stroke-width="2"/>
<path d="M163.77 234.683C174.86 208.223 197.01 189.953 224.23 181.583" stroke="#847E71" stroke-width="2"/>
<path d="M224.23 181.584C240.75 176.734 257.49 175.104 274.44 176.704C278.79 177.114 286.28 178.234 296.89 180.074C305.46 181.564 312.85 183.164 319.06 184.864C333.51 188.824 342.53 191.274 346.14 192.214C360.74 196.034 376.09 191.294 385.48 179.554C386.96 177.694 388.29 174.994 389.6 172.984C389.8 172.684 390.1 172.454 390.45 172.334C422.18 161.674 450.22 151.614 474.57 142.154C482.63 139.024 491.08 135.054 499.93 130.264C501.63 129.344 503.53 128.064 505.63 126.424C512.05 121.404 516.36 115.394 517.26 107.134C519.35 87.9936 502.2 77.5236 487.71 69.8836C482.25 67.0036 477.51 64.6336 473.5 62.7736C449.65 51.7336 424.12 40.4836 396.92 29.0336C396.21 28.7336 395.7 28.0936 395.58 27.3236C393.9 16.7036 384.52 7.90356 374.85 4.50356C364.24 0.773556 353.29 1.16356 342.22 1.04356C315.19 0.763556 288.7 1.83356 262.76 4.25356C237.36 6.62356 209.6 12.4236 185.52 21.0736" stroke="#9B8B75" stroke-width="2"/>
<path d="M224.23 181.584C219.97 180.884 216.15 181.354 212.43 183.744C207.09 187.174 202.41 189.534 195.88 189.434C195.47 189.434 195.13 189.754 195.12 190.154C195.12 190.194 195.12 190.224 195.12 190.264C195.71 194.894 190.72 197.434 186.23 200.744C175.94 208.344 167.72 219.644 163.05 230.914C162.44 232.384 162.68 233.634 163.76 234.684" stroke="#221504" stroke-width="2"/>
<path d="M16.1195 189.074C16.1795 189.464 16.2995 189.714 16.4895 189.844C16.8095 190.064 17.2495 189.974 17.4795 189.634C17.5295 189.564 17.5595 189.494 17.5795 189.414C18.2195 187.134 18.6495 184.854 19.8995 182.294C20.8695 180.304 22.2995 176.954 24.1895 172.264C25.2595 169.594 26.8695 166.574 28.9995 163.214C29.7995 161.954 29.8895 160.224 30.6895 159.414C32.8795 157.184 34.6995 147.234 38.8695 146.754C39.1495 146.724 39.3495 146.474 39.3195 146.194C39.2895 145.904 39.0895 145.644 38.6995 145.404C38.4095 145.224 38.2995 144.854 38.4495 144.544C40.3995 140.454 41.7995 137.834 42.6695 136.704C46.0495 132.294 48.9695 128.184 51.4395 124.384C51.6095 124.114 51.8295 123.874 52.0795 123.674C52.6595 123.204 53.3795 122.734 54.2395 122.264C56.2095 121.164 55.8095 118.694 56.9395 116.974C58.4295 114.694 59.7995 113.144 61.0295 112.334C61.2995 112.154 61.6095 112.054 61.9395 112.054H62.3695C62.7495 112.054 63.0695 111.764 63.1095 111.384C63.5295 106.944 67.0295 105.474 69.2695 102.224C72.1995 97.9637 75.7195 94.2537 79.6195 91.1237C80.2295 90.6337 80.7695 90.0637 81.2295 89.4337C83.0695 86.9037 85.1195 84.8537 87.3895 83.2837C89.1995 82.0337 90.7495 80.6937 92.0395 79.2637C94.3595 76.6937 96.8595 74.5837 99.5495 72.9337C99.8595 72.7537 100.13 72.5037 100.35 72.2137C100.69 71.7637 102.29 70.1937 105.15 67.4837C106.62 66.0937 108.23 65.1437 109.97 64.6537C110.86 64.4037 111.54 63.8237 112.03 62.9337C112.84 61.4437 114.04 60.2837 115.63 59.4337C118.12 58.1037 120.18 56.5037 121.82 54.6337C122.96 53.3237 124.29 52.3737 125.57 51.6737C132.14 48.0637 136.25 45.6037 137.91 44.2937C139.36 43.1637 142.55 41.7737 147.47 40.1437C147.78 40.0337 148.08 39.8937 148.36 39.7137C154.83 35.5637 159.83 32.3537 167.26 30.4637C167.53 30.3937 167.84 30.4237 168.17 30.5537C168.34 30.6237 168.42 30.8137 168.35 30.9837C168.31 31.0837 168.22 31.1537 168.12 31.1737C167.67 31.2637 167.42 31.4037 167.36 31.5837C167.25 31.9337 167.35 32.2237 167.64 32.4737C168.03 32.8037 168.44 32.9537 168.87 32.9437C169.27 32.9337 169.58 32.6037 169.57 32.2137C169.57 32.0137 169.47 31.8137 169.32 31.6837C169.11 31.5037 168.93 31.2837 168.78 31.0337C168.62 30.7637 168.71 30.4037 168.97 30.2237C172.82 27.5837 175.2 26.1437 176.12 25.9137C179.25 25.1437 181.91 24.2337 184.12 23.1837C184.98 22.7737 185.45 22.0737 185.52 21.0737" stroke="#221504" stroke-width="2"/>
<path d="M339.08 18.8937C340.7 23.1437 342.05 27.5637 343.13 32.1737C345.09 40.5437 346.5 48.4337 347.37 55.8437C351.09 87.6037 349.09 118.634 341.37 148.934C339.58 155.984 337.32 162.994 334.59 169.954C334.42 170.404 334.64 170.914 335.1 171.094C335.13 171.104 335.17 171.114 335.2 171.124C340.71 172.454 344.23 173.334 345.77 173.774C350.3 175.064 353.85 175.724 356.42 175.734C372.49 175.804 375.59 160.334 377.49 147.344C382.2 115.264 383.66 82.9337 381.87 50.3437C381.15 37.1137 379.48 21.1837 362.74 19.5937C354.63 18.8237 346.89 18.3737 339.54 18.2437C339.27 18.2437 339.06 18.4437 339.05 18.7137C339.05 18.7737 339.05 18.8337 339.08 18.8937Z" stroke="#92540F" stroke-width="2"/>
<path d="M317.26 165.454C319.19 161.044 320.97 156.204 322.6 150.924C327.42 135.404 330.25 119.874 331.08 104.344C332.58 76.2435 331.31 46.4135 321.02 19.8035C320.69 18.9435 319.86 18.3935 318.94 18.4235L299.92 19.0335C299.22 19.0535 298.59 19.4435 298.26 20.0635C293.63 28.7735 292.21 38.3935 295.41 48.2635C295.91 49.8135 297.42 52.5435 299.95 56.4735C304.46 63.4935 306.98 72.1935 307.51 82.5635C308.36 99.4535 304.18 113.784 294.97 125.554C291.24 130.324 289.18 133.214 288.79 134.214C285.37 143.014 285.37 151.484 288.81 160.074C288.98 160.504 289.37 160.814 289.82 160.894L316.61 165.794C316.88 165.844 317.15 165.704 317.26 165.454Z" stroke="#9A6834" stroke-width="2"/>
<path d="M187.03 38.8237L187.4 38.1537C187.53 37.9237 187.45 37.6337 187.22 37.5037C187.11 37.4437 186.98 37.4237 186.86 37.4537C180.42 39.0837 174.75 42.2737 168.42 45.0137C158.79 49.1737 149.09 54.3837 139.32 60.6537C138.2 61.3737 133.55 64.1437 125.38 68.9737C124.06 69.7537 120.26 73.0337 113.97 78.8037C110.82 81.6937 105.17 85.5537 101.35 89.2037C96.2196 94.1237 93.2696 97.0037 92.5196 97.8437C91.4896 98.9937 86.5196 104.354 77.5996 113.924C75.9796 115.654 71.6496 121.234 64.6096 130.654C60.1196 136.664 57.0496 142.594 52.9796 148.814C48.7996 155.194 44.6896 164.454 41.5696 169.914C38.8696 174.624 37.3296 179.114 36.9596 183.394" stroke="#221504" stroke-width="2"/>
<path d="M36.9596 183.394C29.7496 202.354 24.8396 219.254 22.2296 234.094C20.6796 242.924 19.7196 251.854 19.3496 260.874C19.3396 261.134 19.5396 261.364 19.8096 261.374C19.9496 261.374 20.0796 261.324 20.1696 261.234C34.9296 246.834 52.5296 239.074 72.9596 237.954C91.7796 236.924 108.72 242.204 123.78 253.784C129.01 257.814 133.46 262.114 137.13 266.694C137.25 266.824 137.45 266.844 137.58 266.724C137.64 266.674 137.68 266.604 137.69 266.524C139.07 251.774 142.88 237.714 149.12 224.324" stroke="#9A6834" stroke-width="2"/>
<path d="M149.12 224.323C151.36 223.643 152.77 222.633 153.36 221.293C155.98 215.333 159.33 209.663 163.41 204.273C164.26 203.143 165.29 201.973 166.49 200.743C169.71 197.463 170.83 196.453 174.55 192.153C176.16 190.293 177.98 188.603 179.99 187.083C180.18 186.943 180.32 186.733 180.37 186.503C180.54 185.723 180.25 185.383 179.48 185.493" stroke="#221504" stroke-width="2"/>
<path d="M179.48 185.494C204.57 165.294 237.44 157.024 269.28 158.664C269.71 158.684 270.08 158.354 270.1 157.914C270.1 157.844 270.1 157.774 270.08 157.704C267.11 144.724 269.32 132.404 276.69 120.734C278.14 118.444 280.11 115.584 282.61 112.134C290.75 100.944 292.23 85.2837 287.99 72.3537C286.25 67.0737 282.53 61.7937 280.32 56.5437C275.42 44.8937 275.03 33.1537 279.15 21.3037C279.28 20.9537 279.09 20.5637 278.73 20.4337C278.64 20.4037 278.54 20.3837 278.44 20.3937C262.84 21.8037 246.05 23.3237 229.78 26.9837C217.67 29.7137 210.59 31.3437 208.53 31.8737C202.47 33.4337 195.3 35.7537 187.03 38.8237" stroke="#9A6834" stroke-width="2"/>
<path d="M179.48 185.494C166.54 196.174 156.42 209.114 149.12 224.324" stroke="#825B30" stroke-width="2"/>
<path d="M36.9596 183.394C41.2096 173.164 45.4896 164.244 49.7896 156.634C80.1496 102.914 128.51 60.0637 187.03 38.8237" stroke="#825B30" stroke-width="2"/>
<path d="M394.37 151.834C394.33 152.044 394.46 152.244 394.66 152.284C394.73 152.294 394.79 152.294 394.86 152.274C411.17 146.924 427.04 141.444 442.47 135.814C459.98 129.424 474.03 123.664 484.6 118.544C488.92 116.454 493.16 114.074 496.26 111.314C504.68 103.834 497.18 95.6535 490.01 91.5935C477.85 84.7035 465.31 78.3235 452.4 72.4735C433.45 63.8835 415.86 56.1235 399.61 49.1835C399.46 49.1135 399.28 49.1835 399.21 49.3335C399.19 49.3735 399.18 49.4235 399.19 49.4735C400.88 81.2135 399.68 112.944 395.58 144.654C395.31 146.714 394.91 149.104 394.37 151.834Z" stroke="#92540F" stroke-width="2"/>
<path d="M32.9796 264.624C27.6296 268.654 22.9596 273.544 18.9496 279.304C18.6596 279.714 18.4896 280.204 18.4496 280.704C18.1796 284.094 18.1496 288.064 18.3796 292.594C20.9496 343.334 35.4496 388.554 61.8996 428.264C98.0196 482.474 152 521.334 215.07 536.994C228.14 540.234 238.34 542.374 245.66 543.404C257.56 545.084 270.25 546.434 283.74 547.444C283.92 547.444 284.07 547.324 284.08 547.144C284.08 547.094 284.08 547.044 284.05 547.004C282.03 542.574 280.78 538.004 280.31 533.294" stroke="#924D3A" stroke-width="2"/>
<path d="M280.31 533.294C279.47 524.084 280.88 515.514 284.53 507.594C287.28 501.614 288.67 498.594 288.69 498.544C293.64 483.964 292.09 466.514 282.44 454.434C271.85 441.184 266.72 426.884 269.97 410.004C270.01 409.764 269.85 409.534 269.61 409.494C269.58 409.494 269.56 409.494 269.53 409.494C254.12 409.644 238.87 407.674 223.78 403.594C201.38 397.544 182.23 385.594 166.32 367.754C159.71 360.344 154.49 352.564 150.64 344.404C147.09 336.864 144.57 330.644 143.1 325.744C139.8 314.774 137.85 302.064 137.26 287.594C137.19 285.864 136.53 283.994 135.29 281.984C113.55 246.714 65.7096 238.064 32.9796 264.634" stroke="#995E48" stroke-width="2"/>
<path d="M280.31 533.294C279.44 533.304 278.53 533.144 277.6 532.814C276.5 532.424 275.62 532.214 274.95 532.184C262.72 531.654 251.98 530.534 242.72 528.844C227.73 526.094 218.16 524.184 213.99 523.114C203.38 520.374 195.93 518.214 191.66 516.644C188.35 515.434 186.16 514.664 185.09 514.334C179.78 512.714 177.58 511.574 173.04 510.074C171.73 509.644 169.97 508.854 167.76 507.724C158.98 503.244 150.23 498.294 141.52 492.884C115.26 476.574 93.2696 455.994 75.5396 431.134C67.2096 419.444 60.3296 406.574 54.8996 392.534C50.6296 381.464 47.3996 371.614 45.1996 362.974C37.6696 333.354 33.4596 300.714 35.6196 269.604C35.6996 268.484 35.5296 267.264 35.1096 265.934C35.0096 265.644 34.7696 265.414 34.4596 265.344C33.8696 265.214 33.3696 264.974 32.9796 264.624" stroke="#F2897A" stroke-width="2"/>
<path d="M344.03 547.623C343.96 547.853 344.1 548.103 344.33 548.163C344.37 548.173 344.41 548.183 344.45 548.183C350.5 548.183 356.75 547.893 363.2 547.303C371.77 546.513 377.49 542.423 380.36 535.033C381.48 532.133 382.08 527.413 382.39 524.603C385.95 491.513 385.02 458.603 379.61 425.893C378.63 419.983 377.43 414.713 376.02 410.083C373.9 403.193 369.47 398.463 362.74 395.903C359.17 394.543 355.13 394.993 351.54 395.893C345.59 397.373 339.48 399.013 333.2 400.803C332.96 400.873 332.81 401.123 332.88 401.373C332.88 401.403 332.9 401.433 332.92 401.463C335.75 406.763 337.97 411.953 339.59 417.043C346.4 438.453 350.04 459.293 350.49 479.563C351 502.063 350.15 525.313 344.03 547.623Z" stroke="#924D3A" stroke-width="2"/>
<path d="M297.87 533.113C299 539.013 301.11 543.953 304.18 547.933C304.45 548.283 304.859 548.483 305.299 548.483H324.69C325.21 548.483 325.68 548.133 325.82 547.623L327.1 543.083" stroke="#924D3A" stroke-width="2"/>
<path d="M327.1 543.083C328.24 539.043 329.16 534.933 329.85 530.763C332.62 514.093 333.67 498.033 332.98 482.593C332.46 471.113 331.7 461.873 330.69 454.863C328.8 441.773 325.41 428.593 320.54 415.313C319.11 411.423 317.54 408.123 315.84 405.433C315.73 405.273 315.549 405.193 315.359 405.213L288.72 408.543C288.08 408.623 287.56 409.083 287.41 409.713C284.87 420.563 286.91 431.923 293.95 440.713C296.03 443.303 297.44 445.123 298.18 446.173C309.3 462.033 311.759 484.693 305.799 503.023C303.749 509.363 299.89 514.443 298.39 520.853C297.4 525.103 297.22 529.193 297.87 533.113" stroke="#995E48" stroke-width="2"/>
<path d="M327.1 543.083C325.91 543.043 325.21 542.553 325 541.613C324.51 539.443 325.729 536.143 322.109 534.363C321.869 534.243 321.61 534.173 321.34 534.163L297.87 533.113" stroke="#F2897A" stroke-width="2"/>
<path d="M396.45 417.233C396.16 417.153 395.86 417.313 395.78 417.593C395.76 417.673 395.75 417.763 395.77 417.843C401.83 450.243 402.89 484.133 400.72 516.803C400.71 517.053 400.9 517.263 401.15 517.273C401.22 517.273 401.3 517.263 401.36 517.233C413.63 511.443 431.66 502.803 455.46 491.293C466.45 485.983 477.68 479.723 489.16 472.513C492.87 470.183 500.16 464.053 500.16 459.253C500.16 453.413 494.09 449.023 489.12 447.013C481.68 444.013 473.76 440.913 467.14 438.783C442.61 430.913 419.04 423.723 396.45 417.233Z" stroke="#924D3A" stroke-width="2"/>
<path d="M364.76 33.7437C361.51 34.5237 361.63 38.0337 361.91 40.7237C363.39 55.0537 364.19 68.9237 364.32 82.3237C364.35 86.4237 368.92 89.4137 372.5 87.2637C374.79 85.8937 374.82 81.9837 374.85 79.3437C374.94 71.8137 375.05 67.1937 375.16 65.4637C375.39 62.1137 375.289 58.7437 374.839 55.3737C373.989 48.8337 373.88 42.7937 370.51 36.4037C369.24 34.0137 367.33 33.1237 364.76 33.7437Z" stroke="#F39A3A" stroke-width="2"/>
<path d="M370.86 459.024C373.97 459.364 374.66 454.604 374.46 452.454C373.33 439.984 370.23 425.854 368.19 417.674C367.14 413.504 362.43 409.084 358.56 413.414C358.34 413.664 358.18 413.964 358.1 414.294C357.63 416.244 357.47 417.624 357.63 418.444C359.5 427.974 361.63 439.274 364.02 452.344C364.76 456.374 367.04 458.594 370.86 459.024Z" stroke="#F2897A" stroke-width="2"/>
<path d="M409.99 438.004C409.64 440.774 410.66 442.724 413.05 443.844C417.7 446.024 422.71 447.084 427.77 448.414C438.02 451.124 450.03 453.754 463.8 456.324C467.35 456.994 471.48 458.024 476.19 459.434C478.57 460.154 482.46 460.664 484.02 459.614C487.51 457.274 486.92 453.784 484.31 451.354C483.69 450.784 482.2 450.124 479.84 449.394C472.39 447.084 469.17 445.884 465.15 445.114C463.88 444.874 462.57 444.444 461.22 443.824C461 443.724 460.78 443.634 460.55 443.544C459.66 443.224 454 441.964 443.59 439.764C438.54 438.694 431.15 436.904 421.4 434.384C416.62 433.154 413.39 433.444 410.41 437.044C410.18 437.314 410.04 437.654 409.99 438.004Z" stroke="#F2897A" stroke-width="2"/>
<path d="M224.23 181.584C219.97 180.884 216.15 181.354 212.43 183.744C207.09 187.174 202.41 189.534 195.88 189.434C195.47 189.434 195.13 189.754 195.12 190.154C195.12 190.194 195.12 190.224 195.12 190.264C195.71 194.894 190.72 197.434 186.23 200.744C175.94 208.344 167.72 219.644 163.05 230.914C162.44 232.384 162.68 233.634 163.76 234.684C160.11 243.484 157.56 252.684 156.13 262.274C153.19 281.994 154.17 304.134 160.59 323.274C167.33 343.344 181.36 362.464 199.41 373.664C213.5 382.404 228.92 387.914 245.66 390.204C254.05 391.354 262.74 391.824 271.75 391.624C285.81 391.314 299.88 389.834 313.95 387.204C324.35 385.254 332.47 382.724 344.82 379.444C352.56 377.384 360.34 376.834 368.11 379.274C377.72 382.304 384.94 388.184 389.76 396.914C389.95 397.254 390.26 397.504 390.64 397.604C419.8 405.234 449.59 414.124 480.01 424.284C487 426.624 493.23 429.214 498.7 432.064C508.18 437.004 516.37 444.464 517.52 455.764C518.42 464.604 515.61 472.124 509.1 478.324C502.93 484.194 494.7 489.984 484.39 495.704C458.93 509.834 428.27 523.704 398.6 537.404C398.3 537.534 398.08 537.794 398 538.114C394.59 550.414 386.74 558.564 374.46 562.574C370.47 563.884 366.73 564.634 363.26 564.844C336.51 566.454 309.31 566.374 281.64 564.624C261.55 563.354 243.88 561.164 228.63 558.074C194.77 551.194 161.09 539.134 132.08 520.764C89.5296 493.814 56.4596 458.214 32.8696 413.964C21.6496 392.924 13.6696 370.734 8.11956 347.054C0.809557 315.814 -0.490443 282.694 2.48956 250.564C4.43956 229.514 8.97956 209.014 16.1196 189.074C16.1796 189.464 16.2996 189.714 16.4896 189.844C16.8096 190.064 17.2496 189.974 17.4796 189.634C17.5296 189.564 17.5596 189.494 17.5796 189.414C18.2196 187.134 18.6496 184.854 19.8996 182.294C20.8696 180.304 22.2996 176.954 24.1896 172.264C25.2596 169.594 26.8696 166.574 28.9996 163.214C29.7996 161.954 29.8896 160.224 30.6896 159.414C32.8796 157.184 34.6996 147.234 38.8696 146.754C39.1496 146.724 39.3496 146.474 39.3196 146.194C39.2896 145.904 39.0896 145.644 38.6996 145.404C38.4096 145.224 38.2996 144.854 38.4496 144.544C40.3996 140.454 41.7996 137.834 42.6696 136.704C46.0496 132.294 48.9696 128.184 51.4396 124.384C51.6096 124.114 51.8296 123.874 52.0796 123.674C52.6596 123.204 53.3796 122.734 54.2396 122.264C56.2096 121.164 55.8096 118.694 56.9396 116.974C58.4296 114.694 59.7996 113.144 61.0296 112.334C61.2996 112.154 61.6096 112.054 61.9396 112.054H62.3696C62.7496 112.054 63.0696 111.764 63.1096 111.384C63.5296 106.944 67.0296 105.474 69.2696 102.224C72.1996 97.9636 75.7196 94.2536 79.6196 91.1236C80.2296 90.6336 80.7696 90.0636 81.2296 89.4336C83.0696 86.9036 85.1196 84.8536 87.3896 83.2836C89.1996 82.0336 90.7496 80.6936 92.0396 79.2636C94.3596 76.6936 96.8596 74.5836 99.5496 72.9336C99.8596 72.7536 100.13 72.5036 100.35 72.2136C100.69 71.7636 102.29 70.1936 105.15 67.4836C106.62 66.0936 108.23 65.1436 109.97 64.6536C110.86 64.4036 111.54 63.8236 112.03 62.9336C112.84 61.4436 114.04 60.2836 115.63 59.4336C118.12 58.1036 120.18 56.5036 121.82 54.6336C122.96 53.3236 124.29 52.3736 125.57 51.6736C132.14 48.0636 136.25 45.6036 137.91 44.2936C139.36 43.1636 142.55 41.7736 147.47 40.1436C147.78 40.0336 148.08 39.8936 148.36 39.7136C154.83 35.5636 159.83 32.3536 167.26 30.4636C167.53 30.3936 167.84 30.4236 168.17 30.5536C168.34 30.6236 168.42 30.8136 168.35 30.9836C168.31 31.0836 168.22 31.1536 168.12 31.1736C167.67 31.2636 167.42 31.4036 167.36 31.5836C167.25 31.9336 167.35 32.2236 167.64 32.4736C168.03 32.8036 168.44 32.9536 168.87 32.9436C169.27 32.9336 169.58 32.6036 169.57 32.2136C169.57 32.0136 169.47 31.8136 169.32 31.6836C169.11 31.5036 168.93 31.2836 168.78 31.0336C168.62 30.7636 168.71 30.4036 168.97 30.2236C172.82 27.5836 175.2 26.1436 176.12 25.9136C179.25 25.1436 181.91 24.2336 184.12 23.1836C184.98 22.7736 185.45 22.0736 185.52 21.0736C209.6 12.4236 237.36 6.62356 262.76 4.25356C288.7 1.83356 315.19 0.763556 342.22 1.04356C353.29 1.16356 364.24 0.773556 374.85 4.50356C384.52 7.90356 393.9 16.7036 395.58 27.3236C395.7 28.0936 396.21 28.7336 396.92 29.0336C424.12 40.4836 449.65 51.7336 473.5 62.7736C477.51 64.6336 482.25 67.0036 487.71 69.8836C502.2 77.5236 519.35 87.9936 517.26 107.134C516.36 115.394 512.05 121.404 505.63 126.424C503.53 128.064 501.63 129.344 499.93 130.264C491.08 135.054 482.63 139.024 474.57 142.154C450.22 151.614 422.18 161.674 390.45 172.334C390.1 172.454 389.8 172.684 389.6 172.984C388.29 174.994 386.96 177.694 385.48 179.554C376.09 191.294 360.74 196.034 346.14 192.214C342.53 191.274 333.51 188.824 319.06 184.864C312.85 183.164 305.46 181.564 296.89 180.074C286.28 178.234 278.79 177.114 274.44 176.704C257.49 175.104 240.75 176.734 224.23 181.584ZM339.08 18.8936C340.7 23.1436 342.05 27.5636 343.13 32.1736C345.09 40.5436 346.5 48.4336 347.37 55.8436C351.09 87.6036 349.09 118.634 341.37 148.934C339.58 155.984 337.32 162.994 334.59 169.954C334.42 170.404 334.64 170.914 335.1 171.094C335.13 171.104 335.17 171.114 335.2 171.124C340.71 172.454 344.23 173.334 345.77 173.774C350.3 175.064 353.85 175.724 356.42 175.734C372.49 175.804 375.59 160.334 377.49 147.344C382.2 115.264 383.66 82.9336 381.87 50.3436C381.15 37.1136 379.48 21.1836 362.74 19.5936C354.63 18.8236 346.89 18.3736 339.54 18.2436C339.27 18.2436 339.06 18.4436 339.05 18.7136C339.05 18.7736 339.05 18.8336 339.08 18.8936ZM317.26 165.454C319.19 161.044 320.97 156.204 322.6 150.924C327.42 135.404 330.25 119.874 331.08 104.344C332.58 76.2436 331.31 46.4136 321.02 19.8036C320.69 18.9436 319.86 18.3936 318.94 18.4236L299.92 19.0336C299.22 19.0536 298.59 19.4436 298.26 20.0636C293.63 28.7736 292.21 38.3936 295.41 48.2636C295.91 49.8136 297.42 52.5436 299.95 56.4736C304.46 63.4936 306.98 72.1936 307.51 82.5636C308.36 99.4536 304.18 113.784 294.97 125.554C291.24 130.324 289.18 133.214 288.79 134.214C285.37 143.014 285.37 151.484 288.81 160.074C288.98 160.504 289.37 160.814 289.82 160.894L316.61 165.794C316.88 165.844 317.15 165.704 317.26 165.454ZM187.03 38.8236L187.4 38.1536C187.53 37.9236 187.45 37.6336 187.22 37.5036C187.11 37.4436 186.98 37.4236 186.86 37.4536C180.42 39.0836 174.75 42.2736 168.42 45.0136C158.79 49.1736 149.09 54.3836 139.32 60.6536C138.2 61.3736 133.55 64.1436 125.38 68.9736C124.06 69.7536 120.26 73.0336 113.97 78.8036C110.82 81.6936 105.17 85.5536 101.35 89.2036C96.2196 94.1236 93.2696 97.0036 92.5196 97.8436C91.4896 98.9936 86.5196 104.354 77.5996 113.924C75.9796 115.654 71.6496 121.234 64.6096 130.654C60.1196 136.664 57.0496 142.594 52.9796 148.814C48.7996 155.194 44.6896 164.454 41.5696 169.914C38.8696 174.624 37.3296 179.114 36.9596 183.394C29.7496 202.354 24.8396 219.254 22.2296 234.094C20.6796 242.924 19.7196 251.854 19.3496 260.874C19.3396 261.134 19.5396 261.364 19.8096 261.374C19.9496 261.374 20.0796 261.324 20.1696 261.234C34.9296 246.834 52.5296 239.074 72.9596 237.954C91.7796 236.924 108.72 242.204 123.78 253.784C129.01 257.814 133.46 262.114 137.13 266.694C137.25 266.824 137.45 266.844 137.58 266.724C137.64 266.674 137.68 266.604 137.69 266.524C139.07 251.774 142.88 237.714 149.12 224.324C151.36 223.644 152.77 222.634 153.36 221.294C155.98 215.334 159.33 209.664 163.41 204.274C164.26 203.144 165.29 201.974 166.49 200.744C169.71 197.464 170.83 196.454 174.55 192.154C176.16 190.294 177.98 188.604 179.99 187.084C180.18 186.944 180.32 186.734 180.37 186.504C180.54 185.724 180.25 185.384 179.48 185.494C204.57 165.294 237.44 157.024 269.28 158.664C269.71 158.684 270.08 158.354 270.1 157.914C270.1 157.844 270.1 157.774 270.08 157.704C267.11 144.724 269.32 132.404 276.69 120.734C278.14 118.444 280.11 115.584 282.61 112.134C290.75 100.944 292.23 85.2836 287.99 72.3536C286.25 67.0736 282.53 61.7936 280.32 56.5436C275.42 44.8936 275.03 33.1536 279.15 21.3036C279.28 20.9536 279.09 20.5636 278.73 20.4336C278.64 20.4036 278.54 20.3836 278.44 20.3936C262.84 21.8036 246.05 23.3236 229.78 26.9836C217.67 29.7136 210.59 31.3436 208.53 31.8736C202.47 33.4336 195.3 35.7536 187.03 38.8236ZM394.37 151.834C394.33 152.044 394.46 152.244 394.66 152.284C394.73 152.294 394.79 152.294 394.86 152.274C411.17 146.924 427.04 141.444 442.47 135.814C459.98 129.424 474.03 123.664 484.6 118.544C488.92 116.454 493.16 114.074 496.26 111.314C504.68 103.834 497.18 95.6535 490.01 91.5936C477.85 84.7036 465.31 78.3236 452.4 72.4736C433.45 63.8836 415.86 56.1236 399.61 49.1836C399.46 49.1136 399.28 49.1836 399.21 49.3336C399.19 49.3736 399.18 49.4236 399.19 49.4736C400.88 81.2136 399.68 112.944 395.58 144.654C395.31 146.714 394.91 149.104 394.37 151.834ZM32.9796 264.624C27.6296 268.654 22.9596 273.544 18.9496 279.304C18.6596 279.714 18.4896 280.204 18.4496 280.704C18.1796 284.094 18.1496 288.064 18.3796 292.594C20.9496 343.334 35.4496 388.554 61.8996 428.264C98.0196 482.474 152 521.334 215.07 536.994C228.14 540.234 238.34 542.374 245.66 543.404C257.56 545.084 270.25 546.434 283.74 547.444C283.92 547.444 284.07 547.324 284.08 547.144C284.08 547.094 284.08 547.044 284.05 547.004C282.03 542.574 280.78 538.004 280.31 533.294C279.47 524.083 280.88 515.514 284.53 507.594C287.28 501.614 288.67 498.594 288.69 498.544C293.64 483.964 292.09 466.514 282.44 454.434C271.85 441.184 266.72 426.884 269.97 410.004C270.01 409.764 269.85 409.534 269.61 409.494C269.58 409.494 269.56 409.494 269.53 409.494C254.12 409.644 238.87 407.674 223.78 403.594C201.38 397.544 182.23 385.594 166.32 367.754C159.71 360.344 154.49 352.564 150.64 344.404C147.09 336.864 144.57 330.644 143.1 325.744C139.8 314.774 137.85 302.064 137.26 287.594C137.19 285.864 136.53 283.994 135.29 281.984C113.55 246.714 65.7096 238.064 32.9796 264.634V264.624ZM344.03 547.624C343.96 547.854 344.1 548.104 344.33 548.164C344.37 548.174 344.41 548.184 344.45 548.184C350.5 548.184 356.75 547.894 363.2 547.304C371.77 546.514 377.49 542.424 380.36 535.034C381.48 532.134 382.08 527.414 382.39 524.604C385.95 491.514 385.02 458.604 379.61 425.894C378.63 419.984 377.43 414.714 376.02 410.084C373.9 403.194 369.47 398.464 362.74 395.904C359.17 394.544 355.13 394.994 351.54 395.894C345.59 397.374 339.48 399.014 333.2 400.804C332.96 400.874 332.81 401.124 332.88 401.374C332.88 401.404 332.9 401.434 332.92 401.464C335.75 406.764 337.97 411.954 339.59 417.044C346.4 438.454 350.04 459.294 350.49 479.564C351 502.064 350.15 525.314 344.03 547.624ZM297.87 533.114C299 539.014 301.11 543.954 304.18 547.934C304.45 548.284 304.86 548.484 305.3 548.484H324.69C325.21 548.484 325.68 548.134 325.82 547.624L327.1 543.084C328.24 539.044 329.16 534.934 329.85 530.764C332.62 514.094 333.67 498.034 332.98 482.594C332.46 471.114 331.7 461.874 330.69 454.864C328.8 441.774 325.41 428.594 320.54 415.314C319.11 411.424 317.54 408.124 315.84 405.434C315.73 405.274 315.55 405.194 315.36 405.214L288.72 408.544C288.08 408.624 287.56 409.084 287.41 409.714C284.87 420.564 286.91 431.924 293.95 440.714C296.03 443.304 297.44 445.124 298.18 446.174C309.3 462.034 311.76 484.694 305.8 503.024C303.75 509.364 299.89 514.444 298.39 520.854C297.4 525.104 297.22 529.194 297.87 533.114ZM396.45 417.234C396.16 417.154 395.86 417.314 395.78 417.594C395.76 417.674 395.75 417.764 395.77 417.844C401.83 450.244 402.89 484.134 400.72 516.804C400.71 517.054 400.9 517.264 401.15 517.274C401.22 517.274 401.3 517.264 401.36 517.234C413.63 511.444 431.66 502.804 455.46 491.294C466.45 485.984 477.68 479.724 489.16 472.514C492.87 470.184 500.16 464.054 500.16 459.254C500.16 453.414 494.09 449.024 489.12 447.014C481.68 444.014 473.76 440.914 467.14 438.784C442.61 430.914 419.04 423.724 396.45 417.234Z" fill="#392208"/>
<path d="M339.08 18.8937C338.99 18.6437 339.11 18.3637 339.36 18.2737C339.42 18.2537 339.48 18.2437 339.54 18.2437C346.89 18.3737 354.63 18.8237 362.74 19.5937C379.48 21.1837 381.15 37.1137 381.87 50.3437C383.66 82.9337 382.2 115.264 377.49 147.344C375.59 160.334 372.49 175.804 356.42 175.734C353.85 175.724 350.3 175.064 345.77 173.774C344.23 173.334 340.71 172.454 335.2 171.124C334.73 171.004 334.44 170.534 334.56 170.054C334.56 170.014 334.58 169.984 334.59 169.954C337.32 162.994 339.58 155.984 341.37 148.934C349.09 118.634 351.09 87.6037 347.37 55.8437C346.5 48.4337 345.09 40.5437 343.13 32.1737C342.05 27.5637 340.7 23.1437 339.08 18.8937ZM364.76 33.7437C361.51 34.5237 361.63 38.0337 361.91 40.7237C363.39 55.0537 364.19 68.9237 364.32 82.3237C364.35 86.4237 368.92 89.4137 372.5 87.2637C374.79 85.8937 374.82 81.9837 374.85 79.3437C374.94 71.8137 375.05 67.1937 375.16 65.4637C375.39 62.1137 375.29 58.7436 374.84 55.3736C373.99 48.8336 373.88 42.7937 370.51 36.4037C369.24 34.0137 367.33 33.1237 364.76 33.7437Z" fill="#EB8515"/>
<path d="M317.26 165.454C317.15 165.704 316.88 165.844 316.61 165.794L289.82 160.894C289.37 160.814 288.98 160.504 288.81 160.074C285.37 151.484 285.37 143.014 288.79 134.214C289.18 133.214 291.24 130.324 294.97 125.554C304.18 113.784 308.36 99.4535 307.51 82.5635C306.98 72.1935 304.46 63.4935 299.95 56.4735C297.42 52.5435 295.91 49.8135 295.41 48.2635C292.21 38.3935 293.63 28.7735 298.26 20.0635C298.59 19.4435 299.22 19.0535 299.92 19.0335L318.94 18.4235C319.86 18.3935 320.69 18.9435 321.02 19.8035C331.31 46.4135 332.58 76.2435 331.08 104.344C330.25 119.874 327.42 135.404 322.6 150.924C320.97 156.204 319.19 161.044 317.26 165.454Z" fill="#FAAE5F"/>
<path d="M179.48 185.493C166.54 196.173 156.42 209.113 149.12 224.323C142.88 237.713 139.07 251.773 137.69 266.523C137.67 266.703 137.51 266.823 137.33 266.803C137.25 266.803 137.18 266.753 137.13 266.693C133.46 262.113 129.01 257.813 123.78 253.783C108.72 242.203 91.7795 236.923 72.9595 237.953C52.5295 239.073 34.9295 246.833 20.1695 261.233C19.9795 261.423 19.6795 261.423 19.4895 261.233C19.3895 261.133 19.3395 261.003 19.3495 260.873C19.7195 251.853 20.6795 242.923 22.2295 234.093C24.8395 219.253 29.7495 202.353 36.9595 183.393C41.2095 173.163 45.4895 164.243 49.7895 156.633C80.1495 102.913 128.51 60.0633 187.03 38.8233C195.3 35.7533 202.47 33.4333 208.53 31.8733C210.59 31.3433 217.67 29.7133 229.78 26.9833C246.05 23.3233 262.84 21.8033 278.44 20.3933C278.82 20.3633 279.15 20.6433 279.19 21.0133C279.19 21.1133 279.19 21.2133 279.15 21.3033C275.03 33.1533 275.42 44.8933 280.32 56.5433C282.53 61.7933 286.25 67.0733 287.99 72.3533C292.229 85.2833 290.75 100.943 282.609 112.133C280.109 115.583 278.14 118.443 276.69 120.733C269.32 132.403 267.11 144.723 270.08 157.703C270.17 158.133 269.91 158.553 269.49 158.643C269.42 158.663 269.35 158.663 269.28 158.663C237.44 157.023 204.57 165.293 179.48 185.493Z" fill="#FAAE5F"/>
<path d="M185.52 21.0737C185.45 22.0737 184.98 22.7737 184.12 23.1837C181.91 24.2337 179.25 25.1437 176.12 25.9137C175.2 26.1437 172.82 27.5837 168.97 30.2237C168.71 30.4037 168.62 30.7637 168.78 31.0337C168.93 31.2837 169.11 31.5037 169.32 31.6837C169.62 31.9337 169.66 32.3837 169.4 32.6837C169.27 32.8437 169.07 32.9337 168.87 32.9437C168.44 32.9537 168.03 32.8037 167.64 32.4737C167.35 32.2237 167.25 31.9337 167.36 31.5837C167.42 31.4037 167.67 31.2637 168.12 31.1737C168.299 31.1437 168.41 30.9737 168.37 30.7937C168.35 30.6837 168.27 30.5937 168.17 30.5537C167.84 30.4237 167.53 30.3937 167.26 30.4637C159.83 32.3537 154.83 35.5637 148.36 39.7137C148.08 39.8937 147.78 40.0337 147.47 40.1437C142.55 41.7737 139.36 43.1637 137.91 44.2937C136.25 45.6037 132.14 48.0637 125.57 51.6737C124.29 52.3737 122.96 53.3237 121.82 54.6337C120.18 56.5037 118.119 58.1037 115.63 59.4337C114.04 60.2837 112.84 61.4437 112.03 62.9337C111.54 63.8237 110.86 64.4037 109.97 64.6537C108.23 65.1437 106.62 66.0937 105.15 67.4837C102.29 70.1937 100.689 71.7637 100.35 72.2137C100.13 72.5037 99.8595 72.7537 99.5495 72.9337C96.8595 74.5837 94.3595 76.6937 92.0395 79.2637C90.7495 80.6937 89.1995 82.0337 87.3895 83.2837C85.1195 84.8537 83.0695 86.9037 81.2295 89.4337C80.7695 90.0637 80.2295 90.6337 79.6195 91.1237C75.7195 94.2537 72.1995 97.9637 69.2695 102.224C67.0295 105.474 63.5295 106.944 63.1095 111.384C63.0695 111.764 62.7495 112.054 62.3695 112.054H61.9395C61.6095 112.054 61.2995 112.154 61.0295 112.334C59.7995 113.144 58.4295 114.694 56.9395 116.974C55.8095 118.694 56.2095 121.164 54.2395 122.264C53.3795 122.734 52.6595 123.204 52.0795 123.674C51.8295 123.874 51.6095 124.114 51.4395 124.384C48.9695 128.184 46.0495 132.294 42.6695 136.704C41.7995 137.834 40.3995 140.454 38.4495 144.544C38.2995 144.854 38.4095 145.224 38.6995 145.404C39.0895 145.644 39.2895 145.904 39.3195 146.194C39.3495 146.474 39.1495 146.724 38.8695 146.754C34.6995 147.234 32.8795 157.184 30.6895 159.414C29.8895 160.224 29.7995 161.954 28.9995 163.214C26.8695 166.574 25.2595 169.594 24.1895 172.264C22.2995 176.954 20.8695 180.304 19.8995 182.294C18.6495 184.854 18.2195 187.134 17.5795 189.414C17.4695 189.804 17.0695 190.044 16.6995 189.944C16.6295 189.924 16.5595 189.894 16.4895 189.844C16.2995 189.714 16.1795 189.464 16.1195 189.074C23.9495 167.204 34.1295 147.014 46.6595 128.484C53.6095 118.224 61.9395 107.634 71.6495 96.7237C78.8595 88.6237 86.4595 81.1437 94.4295 74.2837C103.82 66.2137 112.16 59.5737 119.45 54.3637C138.9 40.4737 162.72 28.3237 185.52 21.0737Z" fill="#0A0800"/>
<path d="M361.91 40.7237C361.63 38.0337 361.51 34.5237 364.76 33.7437C367.33 33.1237 369.24 34.0137 370.51 36.4037C373.88 42.7937 373.989 48.8337 374.839 55.3737C375.289 58.7437 375.39 62.1137 375.16 65.4637C375.05 67.1937 374.94 71.8137 374.85 79.3437C374.82 81.9837 374.79 85.8937 372.5 87.2637C368.92 89.4137 364.35 86.4237 364.32 82.3237C364.19 68.9237 363.39 55.0537 361.91 40.7237Z" fill="#FAAE5F"/>
<path d="M187.03 38.8235C128.51 60.0635 80.1496 102.914 49.7896 156.634C45.4896 164.244 41.2096 173.164 36.9596 183.394C37.3296 179.114 38.8696 174.624 41.5696 169.914C44.6896 164.454 48.7996 155.194 52.9796 148.814C57.0496 142.594 60.1196 136.664 64.6096 130.654C71.6496 121.234 75.9796 115.654 77.5996 113.924C86.5196 104.354 91.4896 98.9935 92.5196 97.8435C93.2696 97.0035 96.2196 94.1235 101.35 89.2035C105.17 85.5535 110.82 81.6935 113.97 78.8035C120.26 73.0335 124.06 69.7535 125.38 68.9735C133.55 64.1435 138.2 61.3735 139.32 60.6535C149.09 54.3835 158.79 49.1735 168.42 45.0135C174.75 42.2735 180.42 39.0835 186.86 37.4535C187.12 37.3835 187.38 37.5435 187.45 37.7935C187.48 37.9135 187.47 38.0435 187.4 38.1535L187.03 38.8235Z" fill="#0A0800"/>
<path d="M394.37 151.834C394.91 149.104 395.31 146.714 395.58 144.654C399.68 112.944 400.88 81.2136 399.19 49.4736C399.19 49.3036 399.31 49.1636 399.47 49.1636C399.52 49.1636 399.56 49.1636 399.61 49.1836C415.86 56.1236 433.45 63.8836 452.4 72.4736C465.31 78.3236 477.85 84.7036 490.01 91.5936C497.18 95.6536 504.68 103.834 496.26 111.314C493.16 114.074 488.92 116.454 484.6 118.544C474.03 123.664 459.98 129.424 442.47 135.814C427.04 141.444 411.17 146.924 394.86 152.274C394.66 152.344 394.45 152.234 394.38 152.034C394.36 151.974 394.36 151.904 394.37 151.834Z" fill="#EB8515"/>
<path d="M224.23 181.583C197.01 189.953 174.86 208.223 163.77 234.683C162.69 233.633 162.45 232.383 163.06 230.913C167.73 219.643 175.95 208.343 186.24 200.743C190.73 197.433 195.72 194.893 195.13 190.263C195.08 189.853 195.37 189.493 195.77 189.443C195.81 189.443 195.84 189.443 195.88 189.443C202.41 189.543 207.09 187.183 212.43 183.753C216.15 181.363 219.97 180.893 224.23 181.593V181.583Z" fill="#0A0800"/>
<path d="M179.48 185.493C180.25 185.383 180.54 185.723 180.37 186.503C180.32 186.733 180.18 186.943 179.99 187.083C177.98 188.603 176.16 190.293 174.55 192.153C170.83 196.453 169.71 197.463 166.49 200.743C165.29 201.973 164.26 203.143 163.41 204.273C159.33 209.663 155.98 215.333 153.36 221.293C152.77 222.633 151.36 223.643 149.12 224.323C156.42 209.113 166.54 196.173 179.48 185.493Z" fill="#0A0800"/>
<path d="M280.31 533.294C279.44 533.304 278.53 533.144 277.6 532.814C276.5 532.424 275.62 532.214 274.95 532.184C262.72 531.654 251.98 530.534 242.72 528.844C227.73 526.094 218.16 524.184 213.99 523.114C203.38 520.374 195.93 518.214 191.66 516.644C188.35 515.434 186.16 514.664 185.09 514.334C179.78 512.714 177.58 511.574 173.04 510.074C171.73 509.644 169.97 508.854 167.76 507.724C158.98 503.244 150.23 498.294 141.52 492.884C115.26 476.574 93.2696 455.994 75.5396 431.134C67.2096 419.444 60.3296 406.574 54.8996 392.534C50.6296 381.464 47.3996 371.614 45.1996 362.974C37.6696 333.354 33.4596 300.714 35.6196 269.604C35.6996 268.484 35.5296 267.264 35.1096 265.934C35.0096 265.644 34.7696 265.414 34.4596 265.344C33.8696 265.214 33.3696 264.974 32.9796 264.624C65.7096 238.054 113.55 246.704 135.29 281.974C136.53 283.984 137.19 285.854 137.26 287.584C137.85 302.054 139.8 314.764 143.1 325.734C144.57 330.634 147.09 336.854 150.64 344.394C154.49 352.554 159.71 360.334 166.32 367.744C182.23 385.584 201.38 397.534 223.78 403.584C238.87 407.664 254.12 409.634 269.53 409.484C269.78 409.484 269.98 409.684 269.98 409.924C269.98 409.954 269.98 409.974 269.98 410.004C266.73 426.884 271.86 441.184 282.45 454.434C292.1 466.514 293.65 483.964 288.7 498.544C288.68 498.594 287.29 501.614 284.54 507.594C280.89 515.514 279.48 524.084 280.32 533.294H280.31Z" fill="#F89A88"/>
<path d="M32.9796 264.624C33.3696 264.974 33.8696 265.214 34.4596 265.344C34.7696 265.414 35.0096 265.644 35.1096 265.934C35.5296 267.264 35.6996 268.484 35.6196 269.604C33.4596 300.714 37.6696 333.354 45.1996 362.974C47.3996 371.614 50.6296 381.464 54.8996 392.534C60.3296 406.574 67.2096 419.444 75.5396 431.134C93.2696 455.994 115.26 476.574 141.52 492.884C150.23 498.294 158.98 503.244 167.76 507.724C169.97 508.854 171.73 509.644 173.04 510.074C177.58 511.574 179.78 512.714 185.09 514.334C186.16 514.664 188.35 515.434 191.66 516.644C195.93 518.214 203.38 520.374 213.99 523.114C218.16 524.184 227.73 526.094 242.72 528.844C251.98 530.534 262.72 531.654 274.95 532.184C275.62 532.214 276.5 532.424 277.6 532.814C278.53 533.144 279.44 533.304 280.31 533.294C280.78 538.004 282.03 542.574 284.05 547.004C284.12 547.164 284.05 547.344 283.89 547.414C283.84 547.434 283.79 547.444 283.74 547.444C270.25 546.434 257.56 545.084 245.66 543.404C238.34 542.374 228.14 540.234 215.07 536.994C152 521.334 98.0196 482.474 61.8996 428.264C35.4496 388.554 20.9496 343.334 18.3796 292.594C18.1496 288.064 18.1796 284.094 18.4496 280.704C18.4896 280.204 18.6596 279.714 18.9496 279.304C22.9596 273.544 27.6296 268.654 32.9796 264.624Z" fill="#EB776B"/>
<path d="M344.03 547.623C350.15 525.313 351 502.063 350.49 479.563C350.04 459.293 346.4 438.453 339.59 417.043C337.97 411.953 335.75 406.763 332.92 401.463C332.8 401.243 332.88 400.963 333.11 400.843C333.14 400.823 333.17 400.813 333.2 400.803C339.48 399.013 345.59 397.373 351.54 395.893C355.13 394.993 359.17 394.543 362.74 395.903C369.47 398.463 373.9 403.193 376.02 410.083C377.43 414.713 378.63 419.983 379.61 425.893C385.02 458.603 385.95 491.513 382.39 524.603C382.08 527.413 381.48 532.133 380.36 535.033C377.49 542.423 371.77 546.513 363.2 547.303C356.75 547.893 350.5 548.193 344.45 548.183C344.21 548.183 344.01 547.983 344.01 547.743C344.01 547.703 344.01 547.663 344.03 547.623ZM370.86 459.023C373.97 459.363 374.66 454.603 374.46 452.453C373.33 439.983 370.23 425.853 368.19 417.673C367.14 413.503 362.43 409.083 358.56 413.413C358.34 413.663 358.18 413.963 358.1 414.293C357.63 416.243 357.47 417.623 357.63 418.443C359.5 427.973 361.63 439.273 364.02 452.343C364.76 456.373 367.04 458.593 370.86 459.023Z" fill="#EB776B"/>
<path d="M327.1 543.083C325.91 543.044 325.21 542.553 325 541.613C324.51 539.443 325.729 536.143 322.109 534.363C321.869 534.243 321.61 534.173 321.34 534.163L297.87 533.113C297.22 529.193 297.4 525.103 298.39 520.853C299.89 514.443 303.749 509.363 305.799 503.023C311.759 484.693 309.299 462.033 298.18 446.173C297.44 445.123 296.03 443.303 293.95 440.713C286.91 431.923 284.87 420.563 287.41 409.713C287.56 409.083 288.08 408.623 288.72 408.543L315.359 405.213C315.549 405.193 315.73 405.273 315.84 405.433C317.54 408.123 319.11 411.423 320.54 415.313C325.41 428.593 328.8 441.773 330.69 454.863C331.7 461.873 332.46 471.113 332.98 482.593C333.67 498.033 332.62 514.093 329.85 530.763C329.16 534.933 328.24 539.044 327.1 543.083Z" fill="#F89A88"/>
<path d="M370.86 459.024C367.04 458.594 364.76 456.374 364.02 452.344C361.63 439.274 359.5 427.974 357.63 418.444C357.47 417.624 357.63 416.244 358.1 414.294C358.18 413.964 358.34 413.664 358.56 413.414C362.43 409.084 367.14 413.504 368.19 417.674C370.23 425.854 373.33 439.984 374.46 452.454C374.66 454.604 373.97 459.364 370.86 459.024Z" fill="#F89A88"/>
<path d="M396.45 417.234C419.04 423.724 442.61 430.914 467.14 438.784C473.76 440.914 481.68 444.014 489.12 447.014C494.09 449.024 500.17 453.414 500.16 459.254C500.16 464.054 492.87 470.184 489.16 472.514C477.68 479.724 466.45 485.984 455.46 491.294C431.66 502.804 413.63 511.444 401.36 517.234C401.13 517.344 400.87 517.234 400.76 517.014C400.73 516.944 400.71 516.874 400.72 516.804C402.89 484.134 401.83 450.244 395.77 417.844C395.71 417.554 395.9 417.274 396.2 417.224C396.28 417.204 396.37 417.214 396.45 417.234ZM409.99 438.004C409.64 440.774 410.66 442.724 413.05 443.844C417.7 446.024 422.71 447.084 427.77 448.414C438.02 451.124 450.03 453.754 463.8 456.324C467.35 456.994 471.48 458.024 476.19 459.434C478.57 460.154 482.46 460.664 484.02 459.614C487.51 457.274 486.92 453.784 484.31 451.354C483.69 450.784 482.2 450.124 479.84 449.394C472.39 447.084 469.17 445.884 465.15 445.114C463.88 444.874 462.57 444.444 461.22 443.824C461 443.724 460.78 443.634 460.55 443.544C459.66 443.224 454 441.964 443.59 439.764C438.54 438.694 431.15 436.904 421.4 434.384C416.62 433.154 413.39 433.444 410.41 437.044C410.18 437.314 410.04 437.654 409.99 438.004Z" fill="#EB776B"/>
<path d="M410.41 437.044C413.39 433.444 416.62 433.154 421.4 434.384C431.15 436.904 438.54 438.694 443.59 439.764C454 441.964 459.66 443.224 460.55 443.544C460.78 443.634 461 443.724 461.22 443.824C462.57 444.444 463.88 444.874 465.15 445.114C469.17 445.884 472.39 447.084 479.84 449.394C482.2 450.124 483.69 450.784 484.31 451.354C486.92 453.784 487.51 457.274 484.02 459.614C482.46 460.664 478.57 460.154 476.19 459.434C471.48 458.024 467.35 456.994 463.8 456.324C450.03 453.754 438.02 451.124 427.77 448.414C422.71 447.084 417.7 446.024 413.05 443.844C410.66 442.724 409.64 440.774 409.99 438.004C410.04 437.654 410.18 437.314 410.41 437.044Z" fill="#F89A88"/>
<path d="M327.1 543.083L325.82 547.623C325.68 548.133 325.21 548.483 324.69 548.483H305.299C304.859 548.483 304.45 548.283 304.18 547.933C301.11 543.953 299 539.013 297.87 533.113L321.34 534.163C321.61 534.173 321.869 534.243 322.109 534.363C325.729 536.143 324.51 539.443 325 541.613C325.21 542.553 325.91 543.043 327.1 543.083Z" fill="#EB776B"/>
</svg>
