<?xml version="1.0" encoding="UTF-8"?>
<svg xmlns="http://www.w3.org/2000/svg" width="200" height="200" viewBox="0 0 200 200">
  <title>Chunky Crayon listing background tile</title>
  <path d="M11.401519441232086 27.74494771398604 C28.1013691928342 30.01619376210496 35.07428245824873 27.959905429612846 62.20070732794702 19.743427330628037 M14.02681390363723 29.73394247274846 C30.659754767474535 28.945403080191465 50.88435819672495 26.17182219600305 64.88728398997337 20.685480004362763" fill="none" stroke="#E58163" stroke-width="1.6" stroke-opacity="0.22" stroke-linecap="round" stroke-linejoin="round" data-stroke="0" />
  <path d="M162.06857206157738 31.436735880898304 C163.3696229644388 32.39588246914395 162.66880529006272 34.66713012617127 162.83327220577303 35.495690628568596 C162.99773912148333 36.32425113096592 163.85122058712258 35.71998633164079 163.05537355583914 36.408098895282265 C162.2595265245557 37.09621145892374 160.2234739108734 38.91908946545542 158.05819001807237 39.62436601041744 C155.89290612527134 40.32964255537946 151.94860564644722 41.12756032656825 150.06367019903288 40.63975816505438 C148.17873475161855 40.15195600354051 146.96401556042352 37.740256662190184 146.7485773335863 36.69755304133424 C146.53313910674908 35.65484942047829 148.48914629134447 35.24349268840549 148.77104083800953 34.383536439918714 C149.05293538467458 33.52358019143194 147.5119180698639 32.04577622093269 148.4399446135766 31.537815550413605 C149.36797115728933 31.029854879894526 152.1397887709119 30.81530720794955 154.33920010028584 31.335772416804232 C156.53861142965977 31.856237625658913 160.65708181049064 33.5515589940354 161.63641258982022 34.6606068035417 C162.6157433691498 35.76965461304799 160.0469034913544 37.853963495355934 160.21518477626333 37.99005927384198 M157.66903362175432 31.22096955468869 C159.1144364463004 31.732949196123577 159.70839149944808 33.82148102116352 160.97562462747007 34.78486484664533 C162.24285775549205 35.74824867212713 165.95908530706532 36.57968520719046 165.27243238988623 37.00127250757954 C164.58577947270715 37.42285980796863 158.66632916832475 36.88005365686581 156.85570712439554 37.31438864897985 C155.04508508046632 37.74872364109389 155.63383525850435 39.838379475803656 154.40870012631098 39.60728246026376 C153.1835649941176 39.376185444723866 150.35985005690105 37.03547918963355 149.50489633123522 35.927806555740496 C148.64994260556938 34.82013392184744 149.35831049183636 34.052443802399345 149.2789777723159 32.96124665690546 C149.19964505279543 31.870049511411572 148.23354390551754 29.7658358648428 149.02890001411248 29.380623682777166 C149.82425612270742 28.995411500711533 152.37014556504477 30.310359898297424 154.05111442388548 30.64997356451165 C155.7320832827262 30.989587230725878 158.5845580201331 31.847967799708258 159.11471316715685 31.418305680062534 C159.6448683141806 30.98864356041681 157.72588038979163 28.190312769993117 157.23204530602789 28.072000846637323" fill="none" stroke="#E58163" stroke-width="1.6" stroke-opacity="0.22" stroke-linecap="round" stroke-linejoin="round" data-stroke="1" />
  <path d="M34.48766785301268 101.21493277512491 C41.269110607434065 99.4086012261361 41.37592814013735 104.93695879805834 56.543766564503315 109.15583513937891 M35.29161787610501 100.6864974649623 C42.736933296997094 102.81082789552957 52.06069833532348 108.30380180971325 56.39793655853718 111.39561714846641" fill="none" stroke="#E58163" stroke-width="1.6" stroke-opacity="0.22" stroke-linecap="round" stroke-linejoin="round" data-stroke="2" />
  <path d="M52.43074205890298 99.34992530569434 C49.171435773380104 104.02639643710852 48.043879241503774 104.34679373924435 31.51529618278146 113.46203904375434 M55.9240198623389 99.36277496106922 C49.975391368098556 99.94263886593282 46.549929115451874 102.62372099280357 33.553262842819095 110.95068572051824" fill="none" stroke="#E58163" stroke-width="1.6" stroke-opacity="0.22" stroke-linecap="round" stroke-linejoin="round" data-stroke="3" />
  <path d="M85.56113240237534 106.75019506005943 C89.01722132853169 104.82674955380459 96.55444322231908 94.6741178979526 103.28974412865936 95.59083451633155 C110.02504503499965 96.50755113471051 119.65705206977825 111.66446026560168 125.97293784041703 112.25049477033318 C132.28882361105582 112.83652927506468 138.78281419177353 101.41451776691775 141.18505875249207 99.10704154472053 M82.85863148441761 105.5411843228057 C87.31190028141786 103.90008432183613 100.94205962280084 91.02138555301377 107.95244615407437 91.53790332395583 C114.96283268534789 92.05442109489789 119.19082952825676 107.08015848177622 124.92095067205877 108.64029094845802 C130.65107181586077 110.20042341513981 140.22580715313404 102.61375560029694 142.3331730168864 100.89869812404662" fill="none" stroke="#E58163" stroke-width="1.6" stroke-opacity="0.22" stroke-linecap="round" stroke-linejoin="round" data-stroke="4" />
  <path d="M50.36549675695106 166.993977742726 C49.213446248034465 167.21303382690166 52.63386398589881 170.84270298003742 60.60694893768194 173.3555855993967 M49.002147764142975 165.2229719482777 C53.032196008795815 168.45062536561568 55.29312436498973 169.9487072614227 60.045195020811185 175.04300826002532" fill="none" stroke="#E58163" stroke-width="1.6" stroke-opacity="0.22" stroke-linecap="round" stroke-linejoin="round" data-stroke="5" />
  <path d="M58.91103057953857 165.6752183141281 C57.4305169606143 166.17904993927476 56.543869921916766 171.21731706130763 52.14245225631386 176.40053158135257 M59.4493234970448 164.28695878936566 C56.40592500849353 168.33009676619022 52.879508111535614 169.31662271691326 50.57929135843536 174.72839423016015" fill="none" stroke="#E58163" stroke-width="1.6" stroke-opacity="0.22" stroke-linecap="round" stroke-linejoin="round" data-stroke="6" />
  <path d="M41.40303888246417 169.08989542797207 C51.74346240460873 167.06430585844814 49.68740078881383 173.3522326992303 63.00141465589404 169.08685466125607 M44.853627807274464 171.26788494549692 C49.45273379944265 171.60002297860385 57.33414608128369 171.64427309733628 66.57456797994674 169.17096000872553" fill="none" stroke="#E58163" stroke-width="1.6" stroke-opacity="0.22" stroke-linecap="round" stroke-linejoin="round" data-stroke="7" />
  <path d="M121.54611308835447 162.2248879585415 C129.36021119567005 172.07773350797032 141.0739339334555 167.95832946117406 175.17294427417218 178.39305856563152 M120.48602979350835 164.94416244160385 C138.94996538248657 167.34812366199307 154.2326503338553 169.5697468522992 173.72989426422865 173.72602858077735" fill="none" stroke="#E58163" stroke-width="1.6" stroke-opacity="0.22" stroke-linecap="round" stroke-linejoin="round" data-stroke="8" />
  <path d="M172.0211484101024 81.92167374057726 C172.39497976591997 82.08870453412008 172.88419293140592 84.33687736267787 172.9433113359499 84.80000990600952 C173.00242974049385 85.26314244934117 172.7740268219952 84.18234233072751 172.37585883736617 84.7004690005672 C171.97769085273714 85.21859567040688 171.26721441571465 87.53816481535014 170.55430342817573 87.90876992504766 C169.8413924406368 88.27937503474519 168.43847144210628 87.11564493536466 168.0983929121327 86.9240996587523 C167.75831438215914 86.73255438213994 168.22687206751647 87.20370937569153 168.5138322483344 86.75949826537348 C168.80079242915235 86.31528715505543 170.06711440698243 84.84834618718767 169.82015399704045 84.25883299684399 C169.57319358709847 83.66931980650031 167.1359936392356 83.22841104930188 167.03206978868252 83.22241912331135 C166.92814593812943 83.21642719732083 168.6506049145611 84.38671995421558 169.19661089372198 84.2228814409008 C169.74261687288288 84.05904292758603 169.94131670280484 81.89193288836563 170.3081056636479 82.23938804342276 C170.67489462449095 82.5868431984799 171.41470343036255 86.03072372154382 171.39734465878027 86.3076123712436 M170.30241696851908 81.83520742529491 C170.5461375474045 81.97553727376231 170.03307781119153 84.0627993397267 170.67806827917067 84.22709242598262 C171.32305874714982 84.39138551223854 174.37918744594714 82.75259368682848 174.17235977639393 82.82096594283044 C173.96553210684073 82.8893381988324 170.2817223293081 83.67212747213553 169.4371022618515 84.63732596199439 C168.59248219439488 85.60252445185326 169.36735299792701 88.63053831521924 169.10463937165417 88.6121568819836 C168.84192574538133 88.59377544874795 167.61694076506342 85.258950787268 167.86082050421453 84.52703736258053 C168.10470024336564 83.79512393789305 170.82076424310299 84.57413378238776 170.56791780656093 84.22067633385872 C170.31507137001887 83.86721888532968 166.8511105178215 82.75805506867401 166.34374188496224 82.40629267140629 C165.836373252103 82.05453027413857 167.2820336470117 82.13950411614638 167.52370600940534 82.11010195025243 C167.765378371799 82.08069978435847 167.4505348371307 82.44899589393903 167.79377605932413 82.2298796760426 C168.13701728151756 82.01076345814617 169.5418960055103 80.25024962818405 169.583153342566 80.79540464287383" fill="none" stroke="#E58163" stroke-width="1.6" stroke-opacity="0.22" stroke-linecap="round" stroke-linejoin="round" data-stroke="9" />
  <path d="M178.86606007991418 89.26553231029966 C179.13446221168647 89.1334799095161 179.0975626679555 89.35578780511358 179.703016259066 89.84707481336923 C180.30846985017652 90.33836182162489 182.473126605517 91.40366045070002 182.49878162657734 92.2132543598336 C182.52443664763769 93.02284826896718 180.08426661535285 94.65521880819641 179.856946385428 94.70463826817077 C179.62962615550313 94.75405772814513 181.27474879840335 92.90545809540555 181.13486024702814 92.50977111967978 C180.99497169565294 92.11408414395402 179.37595432923413 92.29053062119569 179.01761507717674 92.33051641381618 C178.65927582511935 92.37050220643668 178.79559251288515 92.89663181136737 178.98482473468383 92.74968587540279 C179.1740569564825 92.60273993943821 180.05251267218569 91.8247457810343 180.15300840796877 91.44884079802871 C180.25350414375185 91.07293581502313 179.82442055788408 90.8988931854844 179.5877991493824 90.49425597736929 C179.3511777408807 90.08961876925419 178.76450896795146 88.85088379569315 178.7332799569586 89.02101754933811 C178.70205094596574 89.19115130298307 179.36042573972034 91.21447543815309 179.4004250834253 91.51505849923906 M178.02843522539007 90.41156249944848 C177.60234973263184 90.24727036455383 177.5654851913804 91.93316475154656 178.16035760650578 91.83618765733011 C178.75523002163118 91.73921056311367 181.2966709117232 89.50595241893352 181.5976697161424 89.82969993414986 C181.8986685205616 90.1534474493662 179.7086791011198 93.20641028063021 179.96635043302112 93.77867274862817 C180.22402176492244 94.35093521662613 183.3313886700959 93.11883303876209 183.1436977075503 93.26327474213763 C182.95600674500471 93.40771644551316 179.17238491011796 94.27211041246376 178.84020465774765 94.64532296888135 C178.50802440537734 95.01853552529893 181.10122575000017 95.6050745831874 181.15061619332852 95.5025500806431 C181.20000663665687 95.4000255780988 179.33913879839753 94.91510697853752 179.1365473177177 94.03017595361554 C178.9339558370379 93.14524492869356 179.9452411523075 90.95117629573578 179.9350673092496 90.19296393111117 C179.92489346619172 89.43475156648655 178.84419043109733 89.01182676256565 179.07550425937043 89.4809017658679 C179.30681808764353 89.94997676917015 181.2155871448721 92.83181849131796 181.32295027888813 93.00741395092464" fill="none" stroke="#E58163" stroke-width="1.6" stroke-opacity="0.22" stroke-linecap="round" stroke-linejoin="round" data-stroke="10" />
  <path d="M97.57533570602536 43.829865550249814 C102.45712167608366 43.026031173978 108.87197055003419 43.882341714974494 129.48753312900664 51.91167027875781 M93.78323575221002 44.572994929924604 C110.29841582449154 45.02282521177456 123.1109567004256 46.48710277371481 130.99587311707438 50.99123429693282" fill="none" stroke="#E58163" stroke-width="1.6" stroke-opacity="0.22" stroke-linecap="round" stroke-linejoin="round" data-stroke="11" />
  <path d="M81.83869613872847 141.25108237614438 C82.57328091590135 140.84451003856208 84.5675030629379 140.45649143688905 85.44337103695325 140.43320177584633 C86.3192390109686 140.4099121148036 86.0744922319767 140.60618776410573 87.0939039828206 141.11134440988806 C88.1133157336645 141.6165010556704 91.25061632691408 142.40723361116682 91.5598415420167 143.46414165054037 C91.86906675711931 144.52104968991392 89.78152234698936 146.6801659573994 88.94925527343626 147.4527926461294 C88.11698819988317 148.22541933485942 87.33549093815489 147.56440188894248 86.56623910069813 148.09990178292043 C85.79698726324136 148.63540167689837 85.38937070576715 150.70944090796527 84.33374424869564 150.66579200999706 C83.27811779162413 150.62214311202885 81.4081309802107 148.759450955683 80.23248035826903 147.83800839511113 C79.05682973632736 146.91656583453926 76.62759304215173 146.44452441634837 77.27984051704557 145.13713664656575 C77.93208799193941 143.82974887678313 82.5794714778368 140.77045835243712 84.14596520763206 139.99368177641537 C85.71245893742731 139.21690520039363 87.12345959927192 140.10199539349773 86.67880289581711 140.47647719043536 M80.79244323310414 143.99203671850674 C81.68370439659861 143.77861807539003 82.34731117645845 143.62716799179606 83.99005839707901 143.11432553003905 C85.63280561769957 142.60148306828205 89.4168299082875 140.49384649248768 90.64892655682749 140.9149819479648 C91.88102320536748 141.33611740344193 91.51916100613381 144.3158510464135 91.38263828831894 145.64113826290185 C91.24611557050407 146.96642547939018 90.52779791565804 147.90440801732763 89.82979024993824 148.8667052468948 C89.13178258421844 149.829002476462 87.99184900900099 151.41624558771164 87.19459229400013 151.41492164030495 C86.39733557899928 151.41359769289826 86.33717197947814 149.67511511524367 85.0462499599331 148.85876156245467 C83.75532794038807 148.04240800966568 80.42984623362483 147.26695285017502 79.44906017672994 146.51680032357098 C78.46827411983506 145.76664779696694 79.3778882891129 145.37552812071405 79.16153361856377 144.3578464028305 C78.94517894801463 143.34016468494693 77.78180838725824 140.61857752401428 78.15093215343512 140.4107100162696 C78.520055919612 140.20284250852492 81.08523434592125 142.73129440810104 81.3762762156251 143.11064135636235" fill="none" stroke="#E58163" stroke-width="1.6" stroke-opacity="0.22" stroke-linecap="round" stroke-linejoin="round" data-stroke="12" />
  <path d="M14.6601314721527 83.1527469688647 C14.681278673391892 83.39562038808333 14.573089896333293 85.66702621035554 14.620370077802207 86.20616208954215 C14.66765025927112 86.74529796872875 14.886752478849607 86.34990316851481 14.943812560966176 86.38756224398432 C15.000872643082745 86.42522131945383 14.916734431730308 86.47421344611548 14.962730570501627 86.43211654235915 C15.008726709272945 86.39001963860282 15.612950359514345 85.99921931715289 15.219789393594093 86.13498082144632 C14.82662842767384 86.27074232573975 12.903455465330149 87.63139365221706 12.603764774980114 87.24668556811972 C12.304074084630079 86.86197748402238 13.171929701563887 84.22751025336507 13.42164525149388 83.82673231686228 C13.671360801423873 83.42595438035949 13.937282260087066 85.03492115667204 14.102058074560073 84.84201794910297 C14.26683388903308 84.6491147415339 13.994697457411409 82.98001664016324 14.410300138331923 82.6693130714478 C14.825902819252438 82.35860950273236 16.321404813526733 82.94951381794779 16.595674160083163 82.97779653681035 C16.869943506639594 83.0060792556729 15.910290383490414 82.49420793054065 16.055916217670497 82.83900938462317 M14.092230517193105 81.72494878088425 C14.586706056753966 81.19245560180715 18.6754186997805 81.63996336271804 18.937443150315328 82.24952075118577 C19.199467600850156 82.8590781396535 16.12817234226065 84.87599297121918 15.664377220402077 85.38229311169063 C15.200582098543505 85.88859325216208 16.75571125337529 85.09941815916687 16.15467241916389 85.2873215940145 C15.553633584952493 85.47522502886213 12.399019356902615 86.35494291952136 12.05814421513369 86.5097137207764 C11.717269073364767 86.66448452203144 13.483713377771398 86.7543583922514 14.10942156855035 86.21594640154471 C14.7351297593293 85.67753441083802 15.399384528851646 84.01145067641815 15.812393359807398 83.27924177653627 C16.225402190763152 82.54703287665438 17.11498860199196 81.7193346222855 16.587474554284864 81.82269300225344 C16.059960506577767 81.92605138222139 12.910816602495718 83.83345937433302 12.647309073564811 83.89939205634391 C12.383801544633904 83.96532473835481 14.017919759856747 82.1268416848974 15.006429380699421 82.21828909431885 C15.994939001542095 82.3097365037403 18.31411528241031 84.46423173616476 18.578366798620856 84.44807651287257" fill="none" stroke="#E58163" stroke-width="1.6" stroke-opacity="0.22" stroke-linecap="round" stroke-linejoin="round" data-stroke="13" />
</svg>
