<svg width="1024" height="1024" viewBox="0 0 1024 1024" fill="none" xmlns="http://www.w3.org/2000/svg">
<rect width="1024" height="1024" fill="#FF9F6E"/>
<path d="M412.768 160.845C382.276 170.541 350.42 186.79 324.409 205.366C314.66 212.333 303.506 221.213 290.949 232.006C280.29 241.18 270.126 251.183 260.484 262.016C247.498 276.606 236.358 290.769 227.063 304.49C210.306 329.271 196.692 356.272 186.221 385.52" stroke="#847E71" stroke-width="2"/>
<path d="M186.221 385.52C176.672 412.187 170.6 439.602 167.993 467.754C164.007 510.723 165.746 555.016 175.535 596.794C182.958 628.463 193.63 658.139 208.635 686.276C240.183 745.454 284.409 793.064 341.313 829.105C380.11 853.673 425.151 869.801 470.434 879.002C490.829 883.134 514.46 886.063 541.327 887.762C578.331 890.102 614.707 890.209 650.481 888.056C655.122 887.775 660.124 886.772 665.46 885.02C681.882 879.657 692.381 868.758 696.941 852.308C697.048 851.88 697.342 851.533 697.743 851.359C737.423 833.037 778.426 814.488 812.475 795.591C826.263 787.942 837.269 780.199 845.52 772.348C854.227 764.057 857.985 754 856.781 742.178C855.243 727.066 844.29 717.089 831.612 710.483C824.297 706.671 815.965 703.207 806.617 700.078C765.935 686.49 726.095 674.601 687.098 664.397C686.59 664.264 686.175 663.929 685.921 663.475C679.475 651.8 669.82 643.936 656.968 639.884C646.576 636.621 636.172 637.356 625.821 640.111C609.304 644.498 598.445 647.881 584.537 650.489C565.72 654.006 546.904 655.986 528.101 656.4C516.051 656.668 504.43 656.039 493.209 654.501C470.822 651.439 450.2 644.07 431.357 632.381C407.218 617.403 388.455 591.833 379.441 564.992C370.855 539.395 369.544 509.786 373.476 483.414C375.389 470.589 378.799 458.285 383.68 446.517" stroke="#9B8B75" stroke-width="2"/>
<path d="M383.68 446.517C398.511 411.13 428.134 386.697 464.536 375.503" stroke="#847E71" stroke-width="2"/>
<path d="M464.536 375.503C486.629 369.017 509.017 366.837 531.685 368.977C537.502 369.525 547.519 371.023 561.708 373.484C573.169 375.477 583.052 377.616 591.357 379.89C610.682 385.186 622.745 388.462 627.573 389.719C647.098 394.828 667.626 388.489 680.184 372.788C682.163 370.301 683.942 366.69 685.694 364.002C685.961 363.601 686.363 363.293 686.831 363.133C729.265 348.877 766.764 335.423 799.328 322.772C810.107 318.586 821.408 313.276 833.244 306.871C835.517 305.64 838.058 303.928 840.866 301.735C849.452 295.022 855.216 286.984 856.42 275.938C859.215 250.341 836.279 236.339 816.901 226.121C809.599 222.27 803.26 219.1 797.897 216.613C766.002 201.848 731.859 186.803 695.483 171.491C694.534 171.089 693.852 170.234 693.691 169.204C691.444 155.001 678.9 143.232 665.968 138.685C651.779 133.697 637.135 134.219 622.33 134.058C586.182 133.684 550.755 135.115 516.064 138.351C482.096 141.521 444.971 149.277 412.768 160.845" stroke="#9B8B75" stroke-width="2"/>
<path d="M464.537 375.503C458.839 374.567 453.731 375.196 448.756 378.392C441.614 382.979 435.356 386.135 426.623 386.002C426.074 386.002 425.62 386.43 425.606 386.964C425.606 387.018 425.606 387.058 425.606 387.112C426.395 393.304 419.722 396.7 413.717 401.127C399.956 411.291 388.963 426.403 382.718 441.475C381.902 443.441 382.223 445.112 383.667 446.517" stroke="#221504" stroke-width="2"/>
<path d="M186.221 385.52C186.301 386.041 186.461 386.376 186.716 386.55C187.143 386.844 187.732 386.724 188.039 386.269C188.106 386.175 188.146 386.082 188.173 385.975C189.029 382.925 189.604 379.876 191.276 376.453C192.573 373.791 194.486 369.311 197.013 363.039C198.444 359.468 200.597 355.43 203.446 350.936C204.516 349.251 204.636 346.937 205.706 345.854C208.635 342.872 211.069 329.565 216.645 328.923C217.02 328.883 217.287 328.549 217.247 328.174C217.207 327.787 216.94 327.439 216.418 327.118C216.03 326.877 215.883 326.382 216.084 325.968C218.692 320.498 220.564 316.994 221.727 315.483C226.248 309.585 230.153 304.089 233.456 299.007C233.683 298.646 233.977 298.325 234.312 298.057C235.087 297.429 236.05 296.8 237.2 296.172C239.835 294.701 239.3 291.397 240.811 289.097C242.804 286.048 244.636 283.975 246.281 282.892C246.642 282.651 247.057 282.517 247.498 282.517H248.073C248.581 282.517 249.009 282.129 249.063 281.621C249.624 275.683 254.305 273.717 257.301 269.371C261.219 263.674 265.927 258.712 271.142 254.527C271.958 253.871 272.68 253.109 273.296 252.266C275.756 248.883 278.498 246.141 281.534 244.042C283.954 242.37 286.027 240.578 287.752 238.666C290.855 235.229 294.198 232.407 297.796 230.2C298.21 229.959 298.571 229.625 298.866 229.237C299.32 228.635 301.46 226.536 305.285 222.912C307.251 221.053 309.404 219.782 311.731 219.127C312.921 218.793 313.831 218.017 314.486 216.827C315.569 214.834 317.174 213.283 319.3 212.146C322.63 210.367 325.385 208.228 327.579 205.727C329.103 203.975 330.882 202.704 332.594 201.768C341.38 196.94 346.876 193.65 349.096 191.898C351.036 190.387 355.302 188.528 361.882 186.348C362.296 186.201 362.697 186.014 363.072 185.773C371.724 180.223 378.411 175.931 388.348 173.403C388.709 173.309 389.123 173.349 389.565 173.523C389.792 173.617 389.899 173.871 389.805 174.098C389.752 174.232 389.632 174.326 389.498 174.352C388.896 174.473 388.562 174.66 388.481 174.901C388.334 175.369 388.468 175.757 388.856 176.091C389.377 176.532 389.926 176.733 390.501 176.72C391.036 176.706 391.45 176.265 391.437 175.743C391.437 175.476 391.303 175.208 391.103 175.034C390.822 174.794 390.581 174.5 390.38 174.165C390.166 173.804 390.287 173.323 390.635 173.082C395.783 169.551 398.966 167.626 400.197 167.318C404.382 166.288 407.94 165.071 410.895 163.667C412.046 163.119 412.674 162.183 412.768 160.845" stroke="#221504" stroke-width="2"/>
<path d="M618.131 157.93C620.298 163.614 622.103 169.525 623.547 175.69C626.169 186.884 628.054 197.436 629.218 207.345C634.193 249.82 631.518 291.318 621.194 331.839C618.8 341.268 615.777 350.642 612.126 359.95C611.899 360.552 612.193 361.234 612.808 361.475C612.849 361.488 612.902 361.502 612.942 361.515C620.311 363.294 625.018 364.471 627.078 365.059C633.136 366.784 637.884 367.667 641.321 367.68C662.812 367.774 666.958 347.085 669.499 329.713C675.798 286.811 677.75 243.574 675.356 199.99C674.393 182.297 672.16 160.993 649.773 158.866C638.927 157.837 628.576 157.235 618.746 157.061C618.385 157.061 618.104 157.329 618.091 157.69C618.091 157.77 618.091 157.85 618.131 157.93Z" stroke="#92540F" stroke-width="2"/>
<path d="M588.95 353.932C591.531 348.034 593.912 341.561 596.091 334.5C602.538 313.744 606.322 292.975 607.432 272.206C609.438 234.627 607.74 194.734 593.978 159.147C593.537 157.997 592.427 157.261 591.197 157.301L565.76 158.117C564.824 158.144 563.982 158.665 563.54 159.495C557.348 171.143 555.449 184.008 559.729 197.208C560.398 199.281 562.417 202.932 565.801 208.188C571.832 217.576 575.202 229.211 575.911 243.079C577.048 265.667 571.457 284.831 559.141 300.572C554.152 306.951 551.397 310.816 550.876 312.153C546.302 323.922 546.302 335.249 550.902 346.737C551.13 347.312 551.651 347.727 552.253 347.834L588.081 354.387C588.442 354.453 588.803 354.266 588.95 353.932Z" stroke="#9A6834" stroke-width="2"/>
<path d="M414.787 184.583L415.282 183.687C415.456 183.379 415.349 182.992 415.041 182.818C414.894 182.737 414.72 182.711 414.559 182.751C405.947 184.931 398.364 189.197 389.899 192.861C377.02 198.425 364.048 205.392 350.982 213.777C349.484 214.74 343.265 218.445 332.339 224.904C330.574 225.947 325.492 230.334 317.08 238.05C312.867 241.915 305.311 247.077 300.203 251.959C293.342 258.538 289.397 262.39 288.394 263.513C287.016 265.051 280.37 272.22 268.441 285.018C266.274 287.332 260.483 294.794 251.069 307.392C245.064 315.429 240.958 323.36 235.515 331.678C229.925 340.21 224.429 352.594 220.256 359.896C216.645 366.195 214.586 372.2 214.091 377.924" stroke="#221504" stroke-width="2"/>
<path d="M214.091 377.924C204.449 403.28 197.883 425.881 194.392 445.727C192.319 457.536 191.035 469.479 190.541 481.542C190.527 481.889 190.795 482.197 191.156 482.21C191.343 482.21 191.517 482.143 191.637 482.023C211.376 462.765 234.914 452.387 262.236 450.89C287.405 449.512 310.059 456.573 330.2 472.06C337.194 477.449 343.145 483.2 348.054 489.325C348.214 489.499 348.481 489.526 348.655 489.365C348.736 489.298 348.789 489.205 348.802 489.098C350.648 469.372 355.743 450.569 364.088 432.662" stroke="#9A6834" stroke-width="2"/>
<path d="M364.088 432.662C367.084 431.752 368.969 430.402 369.758 428.61C373.262 420.639 377.742 413.056 383.199 405.848C384.335 404.337 385.713 402.772 387.318 401.127C391.624 396.741 393.122 395.39 398.097 389.639C400.25 387.152 402.684 384.892 405.372 382.859C405.626 382.672 405.813 382.391 405.88 382.083C406.107 381.04 405.72 380.585 404.69 380.733" stroke="#221504" stroke-width="2"/>
<path d="M404.69 380.732C438.244 353.718 482.203 342.658 524.784 344.851C525.359 344.878 525.854 344.437 525.881 343.848C525.881 343.755 525.881 343.661 525.854 343.568C521.882 326.209 524.837 309.733 534.694 294.126C536.633 291.063 539.267 287.238 542.611 282.625C553.497 267.66 555.476 246.717 549.806 229.425C547.479 222.364 542.504 215.302 539.548 208.281C532.995 192.701 532.474 177.001 537.984 161.153C538.157 160.685 537.903 160.163 537.422 159.99C537.302 159.949 537.168 159.923 537.034 159.936C516.171 161.822 493.717 163.855 471.959 168.749C455.763 172.4 446.295 174.58 443.54 175.289C435.436 177.375 425.847 180.478 414.787 184.583" stroke="#9A6834" stroke-width="2"/>
<path d="M404.69 380.732C387.385 395.015 373.851 412.321 364.088 432.662" stroke="#825B30" stroke-width="2"/>
<path d="M214.091 377.924C219.775 364.243 225.498 352.313 231.249 342.136C271.851 270.294 336.525 212.988 414.787 184.583" stroke="#825B30" stroke-width="2"/>
<path d="M692.073 335.717C692.02 335.998 692.194 336.266 692.461 336.319C692.555 336.332 692.635 336.332 692.728 336.306C714.541 329.151 735.764 321.822 756.4 314.293C779.817 305.747 798.606 298.044 812.742 291.197C818.52 288.402 824.19 285.219 828.336 281.528C839.596 271.524 829.566 260.585 819.977 255.155C803.715 245.941 786.945 237.409 769.68 229.585C744.337 218.097 720.813 207.72 699.081 198.438C698.88 198.345 698.64 198.438 698.546 198.639C698.519 198.692 698.506 198.759 698.519 198.826C700.779 241.274 699.174 283.708 693.691 326.115C693.33 328.87 692.795 332.066 692.073 335.717Z" stroke="#92540F" stroke-width="2"/>
<path d="M208.768 486.557C201.614 491.946 195.368 498.486 190.005 506.189C189.618 506.737 189.39 507.393 189.337 508.061C188.976 512.595 188.935 517.904 189.243 523.962C192.68 591.819 212.072 652.294 247.445 705.401C295.75 777.898 367.94 829.868 452.286 850.81C469.765 855.144 483.406 858.005 493.196 859.383C509.11 861.63 526.081 863.435 544.122 864.786C544.363 864.786 544.563 864.625 544.577 864.385C544.577 864.318 544.577 864.251 544.537 864.197C541.835 858.273 540.164 852.161 539.535 845.862" stroke="#924D3A" stroke-width="2"/>
<path d="M539.535 845.863C538.412 833.546 540.297 822.085 545.179 811.493C548.857 803.495 550.715 799.457 550.742 799.39C557.362 779.891 555.289 756.554 542.384 740.399C528.221 722.679 521.361 703.555 525.707 680.981C525.76 680.66 525.546 680.352 525.226 680.299C525.185 680.299 525.159 680.299 525.119 680.299C504.51 680.499 484.115 677.865 463.935 672.408C433.978 664.317 408.368 648.336 387.091 624.478C378.251 614.568 371.27 604.163 366.121 593.251C361.374 583.167 358.003 574.849 356.037 568.296C351.624 553.625 349.016 536.627 348.227 517.276C348.134 514.962 347.251 512.461 345.593 509.773C316.519 462.605 252.54 451.037 208.769 486.57" stroke="#995E48" stroke-width="2"/>
<path d="M539.535 845.862C538.372 845.876 537.155 845.662 535.911 845.22C534.44 844.699 533.263 844.418 532.367 844.378C516.011 843.669 501.648 842.171 489.264 839.911C469.217 836.233 456.419 833.679 450.842 832.248C436.653 828.584 426.69 825.695 420.979 823.595C416.553 821.977 413.624 820.947 412.193 820.506C405.091 818.34 402.149 816.815 396.078 814.809C394.326 814.234 391.972 813.177 389.016 811.666C377.275 805.675 365.573 799.055 353.924 791.82C318.806 770.008 289.397 742.485 265.686 709.239C254.546 693.605 245.345 676.393 238.083 657.617C232.373 642.813 228.053 629.64 225.111 618.085C215.041 578.473 209.41 534.822 212.299 493.217C212.406 491.719 212.179 490.087 211.617 488.309C211.483 487.921 211.162 487.613 210.748 487.52C209.959 487.346 209.29 487.025 208.769 486.557" stroke="#F2897A" stroke-width="2"/>
<path d="M624.751 865.027C624.657 865.334 624.845 865.669 625.152 865.749C625.206 865.762 625.259 865.776 625.313 865.776C633.404 865.776 641.762 865.388 650.388 864.599C661.849 863.542 669.499 858.073 673.337 848.19C674.835 844.311 675.637 837.999 676.052 834.241C680.813 789.988 679.569 745.976 672.334 702.231C671.023 694.328 669.418 687.28 667.533 681.088C664.698 671.874 658.773 665.548 649.773 662.124C644.998 660.305 639.596 660.907 634.794 662.111C626.837 664.09 618.666 666.283 610.267 668.677C609.946 668.771 609.746 669.105 609.839 669.44C609.839 669.48 609.866 669.52 609.893 669.56C613.678 676.648 616.647 683.589 618.813 690.396C627.92 719.028 632.788 746.899 633.39 774.007C634.072 804.097 632.936 835.191 624.751 865.027Z" stroke="#924D3A" stroke-width="2"/>
<path d="M563.019 845.622C564.53 853.512 567.352 860.118 571.457 865.441C571.818 865.909 572.367 866.177 572.955 866.177H598.886C599.582 866.177 600.21 865.709 600.397 865.027L602.109 858.955" stroke="#924D3A" stroke-width="2"/>
<path d="M602.109 858.955C603.634 853.552 604.864 848.056 605.787 842.479C609.492 820.185 610.896 798.708 609.973 778.059C609.278 762.706 608.261 750.349 606.911 740.974C604.383 723.468 599.849 705.842 593.336 688.082C591.424 682.88 589.324 678.467 587.051 674.869C586.904 674.655 586.663 674.548 586.409 674.575L550.782 679.028C549.926 679.135 549.231 679.75 549.03 680.593C545.633 695.103 548.361 710.295 557.776 722.051C560.558 725.514 562.444 727.948 563.433 729.353C578.305 750.563 581.594 780.867 573.624 805.381C570.882 813.86 565.72 820.653 563.714 829.226C562.39 834.91 562.149 840.379 563.019 845.622" stroke="#995E48" stroke-width="2"/>
<path d="M602.109 858.955C600.518 858.902 599.582 858.246 599.301 856.989C598.646 854.087 600.277 849.674 595.436 847.293C595.115 847.133 594.767 847.039 594.406 847.026L563.019 845.622" stroke="#F2897A" stroke-width="2"/>
<path d="M694.855 690.65C694.467 690.543 694.066 690.757 693.959 691.131C693.932 691.238 693.918 691.358 693.945 691.465C702.05 734.795 703.467 780.118 700.565 823.809C700.552 824.144 700.806 824.425 701.14 824.438C701.234 824.438 701.341 824.425 701.421 824.384C717.83 816.641 741.943 805.087 773.772 789.694C788.469 782.592 803.488 774.221 818.84 764.578C823.802 761.462 833.551 753.264 833.551 746.845C833.551 739.035 825.433 733.164 818.787 730.476C808.837 726.464 798.245 722.318 789.392 719.469C756.587 708.945 725.065 699.329 694.855 690.65Z" stroke="#924D3A" stroke-width="2"/>
<path d="M652.474 177.79C648.127 178.833 648.288 183.527 648.662 187.124C650.642 206.289 651.712 224.838 651.885 242.758C651.926 248.241 658.037 252.24 662.825 249.365C665.887 247.532 665.928 242.303 665.968 238.773C666.088 228.703 666.235 222.524 666.382 220.21C666.69 215.73 666.556 211.223 665.954 206.716C664.818 197.97 664.67 189.893 660.164 181.347C658.465 178.151 655.911 176.96 652.474 177.79Z" stroke="#F39A3A" stroke-width="2"/>
<path d="M660.632 746.537C664.791 746.992 665.714 740.626 665.446 737.751C663.935 721.074 659.789 702.177 657.061 691.238C655.657 685.661 649.358 679.75 644.183 685.541C643.888 685.875 643.674 686.276 643.567 686.718C642.939 689.325 642.725 691.171 642.939 692.268C645.44 705.013 648.288 720.125 651.484 737.604C652.474 742.993 655.523 745.962 660.632 746.537Z" stroke="#F2897A" stroke-width="2"/>
<path d="M712.962 718.427C712.494 722.131 713.858 724.739 717.055 726.237C723.273 729.152 729.973 730.57 736.74 732.348C750.448 735.973 766.51 739.49 784.925 742.927C789.673 743.823 795.196 745.2 801.495 747.086C804.678 748.049 809.88 748.731 811.966 747.327C816.634 744.197 815.845 739.53 812.354 736.28C811.525 735.518 809.532 734.635 806.376 733.659C796.413 730.57 792.107 728.965 786.73 727.935C785.032 727.614 783.28 727.039 781.475 726.21C781.18 726.076 780.886 725.956 780.579 725.836C779.388 725.408 771.819 723.722 757.897 720.78C751.144 719.349 741.261 716.955 728.221 713.585C721.829 711.94 717.509 712.328 713.524 717.143C713.216 717.504 713.029 717.959 712.962 718.427Z" stroke="#F2897A" stroke-width="2"/>
<path d="M464.536 375.503C458.839 374.567 453.731 375.196 448.756 378.392C441.614 382.979 435.355 386.135 426.623 386.001C426.074 386.001 425.62 386.429 425.606 386.964C425.606 387.018 425.606 387.058 425.606 387.111C426.395 393.303 419.722 396.7 413.717 401.127C399.956 411.291 388.963 426.403 382.717 441.475C381.902 443.441 382.223 445.112 383.667 446.517C378.786 458.285 375.375 470.589 373.463 483.414C369.531 509.787 370.842 539.395 379.427 564.992C388.441 591.833 407.204 617.403 431.343 632.381C450.187 644.07 470.809 651.439 493.196 654.501C504.416 656.039 516.038 656.668 528.087 656.4C546.89 655.986 565.707 654.006 584.523 650.489C598.432 647.881 609.291 644.498 625.807 640.111C636.158 637.356 646.563 636.621 656.954 639.884C669.806 643.936 679.462 651.8 685.908 663.475C686.162 663.93 686.576 664.264 687.085 664.398C726.082 674.602 765.921 686.491 806.604 700.078C815.952 703.207 824.283 706.671 831.599 710.483C844.277 717.089 855.23 727.066 856.768 742.178C857.971 754 854.213 764.057 845.507 772.348C837.256 780.199 826.249 787.942 812.461 795.592C778.412 814.488 737.409 833.037 697.73 851.359C697.329 851.533 697.035 851.88 696.928 852.308C692.367 868.758 681.869 879.657 665.446 885.02C660.11 886.772 655.109 887.775 650.468 888.056C614.694 890.209 578.318 890.102 541.314 887.762C514.446 886.063 490.815 883.134 470.421 879.002C425.138 869.801 380.096 853.673 341.3 829.105C284.395 793.064 240.169 745.454 208.621 686.277C193.616 658.139 182.944 628.463 175.522 596.795C165.746 555.016 164.007 510.723 167.993 467.754C170.6 439.602 176.672 412.187 186.221 385.52C186.301 386.042 186.461 386.376 186.715 386.55C187.143 386.844 187.732 386.724 188.039 386.269C188.106 386.175 188.146 386.082 188.173 385.975C189.029 382.926 189.604 379.876 191.276 376.453C192.573 373.791 194.485 369.311 197.013 363.039C198.444 359.468 200.597 355.43 203.446 350.936C204.516 349.251 204.636 346.938 205.706 345.854C208.635 342.872 211.069 329.565 216.645 328.923C217.02 328.883 217.287 328.549 217.247 328.175C217.207 327.787 216.94 327.439 216.418 327.118C216.03 326.877 215.883 326.382 216.084 325.968C218.691 320.498 220.564 316.994 221.727 315.483C226.247 309.585 230.153 304.089 233.456 299.007C233.683 298.646 233.977 298.325 234.312 298.057C235.087 297.429 236.05 296.8 237.2 296.172C239.835 294.701 239.3 291.397 240.811 289.097C242.804 286.048 244.636 283.975 246.281 282.892C246.642 282.651 247.057 282.517 247.498 282.517H248.073C248.581 282.517 249.009 282.13 249.063 281.621C249.624 275.684 254.305 273.718 257.301 269.371C261.219 263.674 265.927 258.713 271.142 254.527C271.958 253.871 272.68 253.109 273.295 252.267C275.756 248.883 278.498 246.142 281.534 244.042C283.954 242.37 286.027 240.578 287.752 238.666C290.855 235.229 294.198 232.407 297.796 230.2C298.21 229.96 298.571 229.625 298.866 229.237C299.32 228.636 301.46 226.536 305.285 222.912C307.251 221.053 309.404 219.782 311.731 219.127C312.921 218.793 313.83 218.017 314.486 216.827C315.569 214.834 317.174 213.283 319.3 212.146C322.63 210.367 325.385 208.228 327.578 205.727C329.103 203.975 330.882 202.704 332.594 201.768C341.38 196.94 346.876 193.651 349.096 191.899C351.036 190.387 355.302 188.528 361.881 186.349C362.296 186.201 362.697 186.014 363.072 185.774C371.724 180.224 378.411 175.931 388.348 173.403C388.709 173.309 389.123 173.35 389.565 173.523C389.792 173.617 389.899 173.871 389.805 174.098C389.752 174.232 389.631 174.326 389.498 174.353C388.896 174.473 388.562 174.66 388.481 174.901C388.334 175.369 388.468 175.757 388.856 176.091C389.377 176.532 389.926 176.733 390.501 176.72C391.036 176.706 391.45 176.265 391.437 175.743C391.437 175.476 391.303 175.208 391.103 175.035C390.822 174.794 390.581 174.5 390.38 174.165C390.166 173.804 390.287 173.323 390.634 173.082C395.783 169.552 398.966 167.626 400.197 167.318C404.382 166.288 407.94 165.071 410.895 163.667C412.045 163.119 412.674 162.183 412.768 160.845C444.971 149.277 482.096 141.521 516.064 138.351C550.755 135.115 586.182 133.684 622.33 134.058C637.135 134.219 651.779 133.697 665.968 138.685C678.9 143.232 691.444 155.001 693.691 169.204C693.852 170.234 694.534 171.089 695.483 171.491C731.859 186.803 766.002 201.848 797.897 216.613C803.26 219.1 809.599 222.27 816.901 226.121C836.279 236.339 859.215 250.341 856.42 275.938C855.216 286.984 849.452 295.022 840.866 301.735C838.058 303.928 835.517 305.64 833.244 306.871C821.408 313.276 810.107 318.586 799.328 322.772C766.764 335.423 729.265 348.877 686.831 363.133C686.362 363.293 685.961 363.601 685.694 364.002C683.942 366.69 682.163 370.301 680.184 372.788C667.626 388.489 647.098 394.828 627.573 389.719C622.745 388.462 610.682 385.186 591.357 379.89C583.052 377.616 573.169 375.477 561.708 373.484C547.519 371.023 537.502 369.525 531.685 368.977C509.017 366.837 486.629 369.017 464.536 375.503ZM618.131 157.93C620.297 163.614 622.103 169.525 623.547 175.69C626.168 186.884 628.054 197.435 629.218 207.345C634.192 249.819 631.518 291.317 621.193 331.839C618.8 341.267 615.777 350.642 612.126 359.95C611.899 360.552 612.193 361.234 612.808 361.475C612.848 361.488 612.902 361.501 612.942 361.515C620.311 363.293 625.018 364.47 627.078 365.059C633.136 366.784 637.884 367.666 641.321 367.68C662.812 367.773 666.958 347.085 669.499 329.712C675.797 286.81 677.75 243.574 675.356 199.99C674.393 182.296 672.16 160.992 649.773 158.866C638.927 157.836 628.576 157.235 618.746 157.061C618.385 157.061 618.104 157.328 618.091 157.689C618.091 157.769 618.091 157.85 618.131 157.93ZM588.95 353.932C591.531 348.034 593.912 341.561 596.091 334.5C602.537 313.745 606.322 292.975 607.432 272.206C609.438 234.627 607.74 194.734 593.978 159.147C593.537 157.997 592.427 157.261 591.197 157.301L565.76 158.117C564.824 158.144 563.982 158.665 563.54 159.495C557.348 171.143 555.449 184.008 559.729 197.208C560.398 199.281 562.417 202.932 565.8 208.188C571.832 217.576 575.202 229.211 575.911 243.079C577.048 265.667 571.457 284.831 559.14 300.572C554.152 306.951 551.397 310.816 550.876 312.153C546.302 323.922 546.302 335.249 550.902 346.737C551.13 347.312 551.651 347.727 552.253 347.834L588.081 354.387C588.442 354.453 588.803 354.266 588.95 353.932ZM414.787 184.583L415.282 183.687C415.456 183.38 415.349 182.992 415.041 182.818C414.894 182.738 414.72 182.711 414.56 182.751C405.947 184.931 398.364 189.197 389.899 192.861C377.02 198.425 364.048 205.392 350.982 213.778C349.484 214.741 343.266 218.445 332.339 224.904C330.574 225.948 325.492 230.334 317.08 238.051C312.868 241.915 305.312 247.078 300.203 251.959C293.342 258.539 289.397 262.39 288.394 263.514C287.017 265.052 280.37 272.22 268.441 285.018C266.274 287.332 260.484 294.794 251.069 307.392C245.064 315.43 240.958 323.36 235.515 331.678C229.925 340.211 224.429 352.595 220.256 359.896C216.645 366.195 214.586 372.2 214.091 377.924C204.449 403.28 197.882 425.881 194.392 445.728C192.319 457.536 191.035 469.479 190.54 481.542C190.527 481.889 190.794 482.197 191.155 482.21C191.343 482.21 191.517 482.144 191.637 482.023C211.376 462.765 234.914 452.388 262.236 450.89C287.404 449.512 310.059 456.573 330.2 472.06C337.194 477.449 343.145 483.2 348.053 489.325C348.214 489.499 348.481 489.526 348.655 489.365C348.735 489.298 348.789 489.205 348.802 489.098C350.648 469.372 355.743 450.569 364.088 432.662C367.084 431.752 368.969 430.401 369.758 428.609C373.262 420.639 377.742 413.056 383.199 405.848C384.336 404.337 385.713 402.772 387.318 401.127C391.624 396.74 393.122 395.39 398.097 389.639C400.25 387.152 402.684 384.892 405.372 382.859C405.626 382.672 405.813 382.391 405.88 382.083C406.108 381.04 405.72 380.585 404.69 380.732C438.244 353.718 482.203 342.658 524.784 344.851C525.359 344.878 525.854 344.437 525.881 343.848C525.881 343.755 525.881 343.661 525.854 343.567C521.882 326.209 524.837 309.732 534.694 294.126C536.633 291.063 539.267 287.238 542.611 282.624C553.497 267.659 555.476 246.717 549.806 229.425C547.479 222.363 542.504 215.302 539.548 208.281C532.995 192.701 532.474 177.001 537.984 161.153C538.157 160.685 537.903 160.163 537.422 159.989C537.302 159.949 537.168 159.923 537.034 159.936C516.171 161.822 493.717 163.854 471.959 168.749C455.763 172.4 446.295 174.58 443.54 175.289C435.436 177.375 425.847 180.478 414.787 184.583ZM692.073 335.717C692.019 335.998 692.193 336.265 692.461 336.319C692.554 336.332 692.635 336.332 692.728 336.306C714.54 329.151 735.764 321.822 756.399 314.293C779.816 305.747 798.606 298.044 812.742 291.197C818.519 288.402 824.19 285.219 828.336 281.528C839.596 271.524 829.566 260.585 819.977 255.155C803.715 245.941 786.945 237.409 769.679 229.585C744.337 218.097 720.813 207.719 699.081 198.438C698.88 198.345 698.639 198.438 698.546 198.639C698.519 198.692 698.506 198.759 698.519 198.826C700.779 241.274 699.174 283.708 693.691 326.115C693.33 328.87 692.795 332.066 692.073 335.717ZM208.768 486.557C201.614 491.946 195.368 498.486 190.005 506.189C189.617 506.737 189.39 507.393 189.337 508.061C188.976 512.595 188.935 517.904 189.243 523.962C192.68 591.82 212.072 652.295 247.444 705.401C295.75 777.898 367.94 829.868 452.286 850.811C469.765 855.144 483.406 858.006 493.196 859.383C509.11 861.63 526.081 863.435 544.122 864.786C544.363 864.786 544.563 864.625 544.577 864.385C544.577 864.318 544.577 864.251 544.537 864.198C541.835 858.273 540.163 852.161 539.535 845.862C538.412 833.545 540.297 822.084 545.179 811.493C548.856 803.495 550.715 799.456 550.742 799.39C557.362 779.891 555.289 756.554 542.383 740.399C528.221 722.679 521.36 703.555 525.707 680.981C525.76 680.66 525.546 680.352 525.225 680.299C525.185 680.299 525.158 680.299 525.118 680.299C504.51 680.499 484.115 677.865 463.935 672.408C433.978 664.317 408.368 648.336 387.09 624.478C378.251 614.568 371.27 604.163 366.121 593.251C361.373 583.167 358.003 574.849 356.037 568.296C351.624 553.625 349.016 536.627 348.227 517.276C348.133 514.962 347.251 512.461 345.593 509.773C316.519 462.605 252.54 451.037 208.768 486.57V486.557ZM624.751 865.027C624.657 865.334 624.844 865.669 625.152 865.749C625.205 865.762 625.259 865.776 625.312 865.776C633.403 865.776 641.762 865.388 650.388 864.599C661.849 863.542 669.499 858.073 673.337 848.189C674.835 844.311 675.637 837.999 676.052 834.241C680.812 789.988 679.569 745.976 672.334 702.231C671.023 694.327 669.418 687.28 667.533 681.088C664.697 671.873 658.773 665.548 649.773 662.124C644.998 660.305 639.595 660.907 634.794 662.111C626.837 664.09 618.666 666.283 610.267 668.677C609.946 668.771 609.746 669.105 609.839 669.439C609.839 669.479 609.866 669.52 609.893 669.56C613.678 676.648 616.646 683.589 618.813 690.396C627.92 719.028 632.788 746.899 633.39 774.007C634.072 804.097 632.935 835.19 624.751 865.027ZM563.019 845.622C564.53 853.512 567.352 860.119 571.457 865.441C571.819 865.909 572.367 866.177 572.955 866.177H598.886C599.582 866.177 600.21 865.709 600.398 865.027L602.109 858.955C603.634 853.552 604.864 848.056 605.787 842.479C609.492 820.185 610.896 798.708 609.973 778.059C609.278 762.706 608.261 750.349 606.911 740.974C604.383 723.468 599.849 705.842 593.336 688.082C591.424 682.88 589.324 678.466 587.051 674.869C586.904 674.655 586.663 674.548 586.409 674.575L550.782 679.028C549.926 679.135 549.231 679.75 549.03 680.593C545.633 695.103 548.361 710.295 557.776 722.051C560.558 725.514 562.444 727.948 563.433 729.353C578.305 750.563 581.595 780.867 573.624 805.381C570.882 813.86 565.72 820.653 563.714 829.226C562.39 834.91 562.149 840.379 563.019 845.622ZM694.855 690.65C694.467 690.543 694.066 690.757 693.959 691.131C693.932 691.238 693.919 691.359 693.945 691.466C702.05 734.796 703.467 780.118 700.565 823.81C700.552 824.144 700.806 824.425 701.14 824.438C701.234 824.438 701.341 824.425 701.421 824.385C717.83 816.641 741.943 805.087 773.772 789.694C788.469 782.593 803.488 774.221 818.84 764.578C823.802 761.462 833.551 753.264 833.551 746.845C833.551 739.035 825.433 733.164 818.787 730.476C808.837 726.464 798.245 722.318 789.392 719.47C756.587 708.945 725.065 699.329 694.855 690.65Z" fill="#392208"/>
<path d="M618.131 157.93C618.011 157.596 618.171 157.222 618.505 157.101C618.586 157.074 618.666 157.061 618.746 157.061C628.576 157.235 638.927 157.837 649.773 158.866C672.16 160.993 674.393 182.297 675.356 199.99C677.75 243.574 675.797 286.811 669.498 329.713C666.957 347.085 662.812 367.774 641.321 367.68C637.884 367.667 633.136 366.784 627.078 365.059C625.018 364.471 620.311 363.294 612.942 361.515C612.313 361.354 611.926 360.726 612.086 360.084C612.086 360.031 612.113 359.99 612.126 359.95C615.777 350.642 618.8 341.268 621.193 331.839C631.518 291.318 634.192 249.82 629.218 207.345C628.054 197.436 626.168 186.884 623.547 175.69C622.103 169.525 620.297 163.614 618.131 157.93ZM652.474 177.79C648.128 178.833 648.288 183.527 648.663 187.125C650.642 206.289 651.712 224.838 651.886 242.758C651.926 248.242 658.037 252.24 662.825 249.365C665.888 247.533 665.928 242.304 665.968 238.773C666.088 228.703 666.235 222.524 666.382 220.211C666.69 215.731 666.556 211.224 665.954 206.717C664.818 197.971 664.671 189.893 660.164 181.347C658.465 178.151 655.911 176.961 652.474 177.79Z" fill="#EB8515"/>
<path d="M588.95 353.932C588.803 354.266 588.442 354.453 588.081 354.387L552.253 347.834C551.651 347.727 551.13 347.312 550.902 346.737C546.302 335.249 546.302 323.922 550.876 312.153C551.397 310.816 554.152 306.951 559.141 300.572C571.457 284.831 577.048 265.667 575.911 243.079C575.202 229.211 571.832 217.576 565.801 208.188C562.417 202.932 560.398 199.281 559.729 197.208C555.449 184.008 557.348 171.143 563.54 159.495C563.982 158.665 564.824 158.144 565.76 158.117L591.197 157.301C592.427 157.261 593.537 157.997 593.978 159.147C607.74 194.734 609.438 234.627 607.432 272.206C606.322 292.975 602.538 313.744 596.091 334.5C593.912 341.561 591.531 348.034 588.95 353.932Z" fill="#FAAE5F"/>
<path d="M404.69 380.732C387.385 395.015 373.851 412.321 364.088 432.662C355.743 450.569 350.648 469.372 348.802 489.098C348.775 489.339 348.561 489.499 348.321 489.472C348.214 489.472 348.12 489.405 348.053 489.325C343.145 483.2 337.194 477.45 330.2 472.06C310.059 456.573 287.404 449.512 262.236 450.89C234.914 452.388 211.376 462.765 191.637 482.023C191.383 482.277 190.982 482.277 190.727 482.023C190.594 481.89 190.527 481.716 190.54 481.542C191.035 469.479 192.319 457.536 194.392 445.728C197.882 425.881 204.449 403.28 214.091 377.924C219.775 364.243 225.499 352.314 231.249 342.137C271.851 270.294 336.525 212.989 414.787 184.583C425.847 180.478 435.436 177.375 443.54 175.289C446.295 174.58 455.763 172.4 471.959 168.749C493.717 163.854 516.171 161.822 537.034 159.936C537.542 159.896 537.984 160.27 538.037 160.765C538.037 160.899 538.037 161.033 537.984 161.153C532.474 177.001 532.995 192.701 539.548 208.281C542.504 215.302 547.479 222.364 549.806 229.425C555.476 246.717 553.497 267.66 542.611 282.624C539.267 287.238 536.633 291.063 534.694 294.126C524.837 309.733 521.882 326.209 525.854 343.567C525.974 344.143 525.627 344.704 525.065 344.825C524.971 344.851 524.878 344.851 524.784 344.851C482.203 342.658 438.244 353.718 404.69 380.732Z" fill="#FAAE5F"/>
<path d="M412.768 160.845C412.674 162.183 412.046 163.119 410.895 163.667C407.94 165.071 404.382 166.288 400.197 167.318C398.966 167.626 395.783 169.551 390.635 173.082C390.287 173.323 390.166 173.804 390.38 174.165C390.581 174.5 390.822 174.794 391.103 175.034C391.504 175.369 391.557 175.971 391.21 176.372C391.036 176.586 390.768 176.706 390.501 176.72C389.926 176.733 389.377 176.532 388.856 176.091C388.468 175.757 388.334 175.369 388.481 174.901C388.562 174.66 388.896 174.473 389.498 174.352C389.739 174.312 389.886 174.085 389.832 173.844C389.805 173.697 389.698 173.577 389.565 173.523C389.123 173.349 388.709 173.309 388.348 173.403C378.411 175.931 371.724 180.223 363.072 185.773C362.697 186.014 362.296 186.201 361.882 186.348C355.302 188.528 351.036 190.387 349.096 191.898C346.876 193.65 341.38 196.94 332.594 201.768C330.882 202.704 329.103 203.975 327.579 205.727C325.385 208.228 322.63 210.367 319.3 212.146C317.174 213.283 315.569 214.834 314.486 216.827C313.831 218.017 312.921 218.793 311.731 219.127C309.404 219.782 307.251 221.053 305.285 222.912C301.46 226.536 299.32 228.635 298.866 229.237C298.571 229.625 298.21 229.959 297.796 230.2C294.198 232.407 290.855 235.229 287.752 238.666C286.027 240.578 283.954 242.37 281.534 244.042C278.498 246.141 275.756 248.883 273.296 252.266C272.68 253.109 271.958 253.871 271.142 254.527C265.927 258.712 261.219 263.674 257.301 269.371C254.305 273.717 249.624 275.683 249.063 281.621C249.009 282.129 248.581 282.517 248.073 282.517H247.498C247.057 282.517 246.642 282.651 246.281 282.892C244.636 283.975 242.804 286.048 240.811 289.097C239.3 291.397 239.835 294.701 237.2 296.172C236.05 296.8 235.087 297.429 234.312 298.057C233.977 298.325 233.683 298.646 233.456 299.007C230.153 304.089 226.248 309.585 221.727 315.483C220.564 316.994 218.692 320.498 216.084 325.968C215.883 326.382 216.03 326.877 216.418 327.118C216.94 327.439 217.207 327.787 217.247 328.174C217.287 328.549 217.02 328.883 216.645 328.923C211.069 329.565 208.635 342.872 205.706 345.854C204.636 346.937 204.516 349.251 203.446 350.936C200.597 355.43 198.444 359.468 197.013 363.039C194.486 369.311 192.573 373.791 191.276 376.453C189.604 379.876 189.029 382.925 188.173 385.975C188.026 386.496 187.491 386.817 186.996 386.683C186.903 386.657 186.809 386.617 186.716 386.55C186.461 386.376 186.301 386.041 186.221 385.52C196.692 356.272 210.306 329.271 227.063 304.49C236.358 290.769 247.498 276.606 260.484 262.016C270.126 251.183 280.29 241.18 290.949 232.006C303.506 221.213 314.66 212.333 324.409 205.366C350.42 186.79 382.276 170.541 412.768 160.845Z" fill="#0A0800"/>
<path d="M648.662 187.124C648.288 183.527 648.127 178.833 652.474 177.79C655.911 176.96 658.465 178.151 660.164 181.347C664.67 189.893 664.818 197.97 665.954 206.716C666.556 211.223 666.69 215.73 666.382 220.21C666.235 222.524 666.088 228.703 665.968 238.773C665.928 242.303 665.887 247.532 662.825 249.365C658.037 252.24 651.926 248.241 651.885 242.758C651.712 224.838 650.642 206.289 648.662 187.124Z" fill="#FAAE5F"/>
<path d="M414.787 184.583C336.525 212.989 271.851 270.294 231.249 342.136C225.498 352.314 219.775 364.243 214.091 377.924C214.586 372.2 216.645 366.195 220.256 359.896C224.429 352.594 229.925 340.211 235.515 331.678C240.958 323.36 245.064 315.429 251.069 307.392C260.483 294.794 266.274 287.332 268.441 285.018C280.37 272.22 287.016 265.052 288.394 263.514C289.397 262.39 293.342 258.539 300.203 251.959C305.311 247.078 312.867 241.915 317.08 238.05C325.492 230.334 330.574 225.947 332.339 224.904C343.265 218.445 349.484 214.74 350.982 213.778C364.048 205.392 377.02 198.425 389.899 192.861C398.364 189.197 405.947 184.931 414.559 182.751C414.907 182.657 415.255 182.871 415.348 183.206C415.389 183.366 415.375 183.54 415.282 183.687L414.787 184.583Z" fill="#0A0800"/>
<path d="M692.073 335.717C692.795 332.066 693.33 328.87 693.691 326.115C699.174 283.708 700.779 241.274 698.519 198.826C698.519 198.599 698.679 198.412 698.893 198.412C698.96 198.412 699.014 198.412 699.08 198.438C720.812 207.72 744.336 218.097 769.679 229.585C786.944 237.409 803.715 245.941 819.977 255.155C829.566 260.585 839.596 271.525 828.335 281.528C824.189 285.219 818.519 288.402 812.742 291.197C798.606 298.044 779.816 305.747 756.399 314.293C735.764 321.822 714.54 329.151 692.728 336.306C692.461 336.399 692.18 336.252 692.086 335.985C692.059 335.904 692.059 335.811 692.073 335.717Z" fill="#EB8515"/>
<path d="M464.536 375.503C428.134 386.697 398.511 411.13 383.68 446.516C382.236 445.112 381.915 443.441 382.731 441.475C388.976 426.403 399.969 411.291 413.73 401.127C419.735 396.7 426.409 393.303 425.62 387.111C425.553 386.563 425.94 386.082 426.475 386.015C426.529 386.015 426.569 386.015 426.623 386.015C435.355 386.149 441.614 382.992 448.756 378.405C453.731 375.209 458.839 374.58 464.536 375.517V375.503Z" fill="#0A0800"/>
<path d="M404.69 380.733C405.72 380.585 406.107 381.04 405.88 382.083C405.813 382.391 405.626 382.672 405.372 382.859C402.684 384.892 400.25 387.152 398.097 389.639C393.122 395.39 391.624 396.741 387.318 401.127C385.713 402.772 384.335 404.337 383.199 405.848C377.742 413.056 373.262 420.639 369.758 428.61C368.969 430.402 367.084 431.752 364.088 432.662C373.851 412.321 387.385 395.015 404.69 380.733Z" fill="#0A0800"/>
<path d="M539.535 845.862C538.372 845.876 537.155 845.662 535.911 845.22C534.44 844.699 533.263 844.418 532.367 844.378C516.011 843.669 501.648 842.171 489.264 839.911C469.217 836.234 456.419 833.679 450.842 832.248C436.653 828.584 426.69 825.695 420.979 823.596C416.553 821.977 413.624 820.948 412.193 820.506C405.091 818.34 402.149 816.815 396.078 814.809C394.326 814.234 391.972 813.178 389.016 811.666C377.275 805.675 365.573 799.055 353.924 791.82C318.806 770.008 289.397 742.485 265.686 709.239C254.546 693.605 245.345 676.393 238.083 657.617C232.373 642.813 228.053 629.64 225.111 618.085C215.041 578.473 209.41 534.822 212.299 493.217C212.406 491.719 212.179 490.087 211.617 488.309C211.483 487.921 211.162 487.613 210.748 487.52C209.959 487.346 209.29 487.025 208.769 486.557C252.54 451.023 316.519 462.591 345.593 509.76C347.251 512.448 348.134 514.949 348.227 517.262C349.016 536.614 351.624 553.611 356.037 568.282C358.003 574.835 361.373 583.153 366.121 593.237C371.27 604.15 378.251 614.554 387.091 624.464C408.368 648.322 433.978 664.304 463.935 672.395C484.115 677.851 504.51 680.486 525.119 680.285C525.453 680.285 525.72 680.553 525.72 680.874C525.72 680.914 525.72 680.94 525.72 680.981C521.374 703.555 528.235 722.679 542.397 740.399C555.303 756.554 557.375 779.891 550.756 799.389C550.729 799.456 548.87 803.495 545.192 811.492C540.311 822.084 538.425 833.545 539.549 845.862H539.535Z" fill="#F89A88"/>
<path d="M208.768 486.557C209.29 487.025 209.959 487.346 210.748 487.52C211.162 487.613 211.483 487.921 211.617 488.309C212.179 490.087 212.406 491.719 212.299 493.217C209.41 534.822 215.041 578.473 225.111 618.085C228.053 629.64 232.373 642.813 238.083 657.617C245.345 676.393 254.546 693.605 265.686 709.239C289.397 742.485 318.805 770.008 353.924 791.82C365.573 799.055 377.274 805.675 389.016 811.666C391.972 813.177 394.326 814.234 396.078 814.809C402.149 816.815 405.091 818.34 412.193 820.506C413.624 820.948 416.552 821.977 420.979 823.595C426.689 825.695 436.653 828.584 450.842 832.248C456.419 833.679 469.217 836.233 489.264 839.911C501.648 842.171 516.011 843.669 532.367 844.378C533.263 844.418 534.44 844.699 535.911 845.22C537.155 845.662 538.372 845.876 539.535 845.862C540.164 852.161 541.835 858.273 544.537 864.197C544.63 864.411 544.537 864.652 544.323 864.746C544.256 864.772 544.189 864.786 544.122 864.786C526.081 863.435 509.11 861.63 493.196 859.383C483.406 858.005 469.766 855.143 452.286 850.81C367.94 829.868 295.75 777.898 247.445 705.401C212.072 652.294 192.68 591.819 189.243 523.962C188.935 517.904 188.976 512.595 189.337 508.061C189.39 507.393 189.618 506.737 190.005 506.189C195.368 498.486 201.614 491.946 208.768 486.557Z" fill="#EB776B"/>
<path d="M624.751 865.027C632.935 835.191 634.072 804.097 633.39 774.007C632.788 746.899 627.92 719.028 618.813 690.396C616.647 683.589 613.678 676.648 609.893 669.56C609.733 669.266 609.839 668.891 610.147 668.731C610.187 668.704 610.227 668.691 610.267 668.677C618.666 666.283 626.837 664.09 634.794 662.111C639.596 660.907 644.998 660.305 649.773 662.124C658.773 665.548 664.698 671.874 667.533 681.088C669.418 687.28 671.023 694.328 672.334 702.231C679.569 745.976 680.813 789.988 676.052 834.241C675.637 837.999 674.835 844.311 673.337 848.19C669.499 858.073 661.849 863.542 650.388 864.599C641.762 865.388 633.404 865.789 625.313 865.776C624.992 865.776 624.724 865.508 624.724 865.187C624.724 865.134 624.724 865.08 624.751 865.027ZM660.632 746.538C664.791 746.992 665.714 740.627 665.446 737.751C663.935 721.075 659.789 702.178 657.061 691.238C655.657 685.662 649.358 679.751 644.183 685.541C643.888 685.876 643.674 686.277 643.567 686.718C642.939 689.326 642.725 691.171 642.939 692.268C645.44 705.013 648.288 720.125 651.485 737.604C652.474 742.994 655.523 745.963 660.632 746.538Z" fill="#EB776B"/>
<path d="M602.109 858.955C600.518 858.902 599.582 858.246 599.301 856.989C598.646 854.087 600.277 849.674 595.436 847.293C595.115 847.133 594.767 847.039 594.406 847.026L563.019 845.622C562.149 840.379 562.39 834.91 563.714 829.226C565.72 820.653 570.882 813.86 573.624 805.381C581.594 780.867 578.305 750.563 563.433 729.353C562.444 727.948 560.558 725.514 557.776 722.051C548.361 710.295 545.633 695.103 549.03 680.593C549.231 679.75 549.926 679.135 550.782 679.028L586.409 674.575C586.663 674.548 586.904 674.655 587.051 674.869C589.324 678.467 591.424 682.88 593.336 688.082C599.849 705.842 604.383 723.468 606.911 740.974C608.261 750.349 609.278 762.706 609.973 778.059C610.896 798.708 609.492 820.185 605.787 842.479C604.864 848.056 603.634 853.552 602.109 858.955Z" fill="#F89A88"/>
<path d="M660.632 746.537C655.523 745.962 652.474 742.993 651.484 737.604C648.288 720.125 645.44 705.013 642.939 692.268C642.725 691.171 642.939 689.325 643.567 686.718C643.674 686.276 643.888 685.875 644.183 685.541C649.358 679.75 655.657 685.661 657.061 691.238C659.789 702.177 663.935 721.074 665.446 737.751C665.714 740.626 664.791 746.992 660.632 746.537Z" fill="#F89A88"/>
<path d="M694.855 690.65C725.066 699.329 756.587 708.944 789.392 719.469C798.245 722.318 808.837 726.464 818.787 730.476C825.434 733.164 833.565 739.035 833.551 746.845C833.551 753.264 823.802 761.462 818.841 764.578C803.488 774.221 788.469 782.592 773.772 789.694C741.943 805.087 717.831 816.641 701.421 824.384C701.114 824.532 700.766 824.384 700.619 824.09C700.579 823.997 700.552 823.903 700.565 823.809C703.467 780.118 702.05 734.795 693.945 691.465C693.865 691.077 694.119 690.703 694.521 690.636C694.628 690.609 694.748 690.623 694.855 690.65ZM712.963 718.426C712.494 722.131 713.859 724.739 717.055 726.236C723.274 729.152 729.974 730.569 736.741 732.348C750.448 735.972 766.51 739.49 784.925 742.927C789.673 743.823 795.196 745.2 801.495 747.086C804.678 748.049 809.88 748.731 811.967 747.326C816.634 744.197 815.845 739.53 812.354 736.28C811.525 735.518 809.533 734.635 806.376 733.659C796.413 730.569 792.107 728.965 786.731 727.935C785.032 727.614 783.28 727.039 781.475 726.21C781.181 726.076 780.887 725.956 780.579 725.835C779.389 725.407 771.819 723.722 757.898 720.78C751.144 719.349 741.261 716.955 728.222 713.585C721.829 711.94 717.51 712.328 713.524 717.142C713.217 717.504 713.029 717.958 712.963 718.426Z" fill="#EB776B"/>
<path d="M713.524 717.143C717.509 712.328 721.829 711.94 728.221 713.585C741.261 716.955 751.144 719.349 757.897 720.78C771.819 723.722 779.388 725.408 780.579 725.836C780.886 725.956 781.18 726.076 781.475 726.21C783.28 727.039 785.032 727.614 786.73 727.935C792.107 728.965 796.413 730.57 806.376 733.659C809.532 734.635 811.525 735.518 812.354 736.28C815.845 739.53 816.634 744.197 811.966 747.327C809.88 748.731 804.678 748.049 801.495 747.086C795.196 745.2 789.673 743.823 784.925 742.927C766.51 739.49 750.448 735.973 736.74 732.348C729.973 730.57 723.273 729.152 717.055 726.237C713.858 724.739 712.494 722.131 712.962 718.427C713.029 717.959 713.216 717.504 713.524 717.143Z" fill="#F89A88"/>
<path d="M602.109 858.955L600.397 865.027C600.21 865.709 599.582 866.177 598.886 866.177H572.955C572.367 866.177 571.818 865.909 571.457 865.441C567.352 860.118 564.53 853.512 563.019 845.622L594.406 847.026C594.767 847.039 595.115 847.133 595.436 847.293C600.277 849.674 598.646 854.087 599.301 856.989C599.582 858.246 600.518 858.902 602.109 858.955Z" fill="#EB776B"/>
</svg>
