<svg version="1.1" width="1024" height="1024" xmlns="http://www.w3.org/2000/svg"><path d="M486.500 22.683 C 370.423 25.752,260.982 48.052,168.727 87.435 C 163.615 89.618,161.000 92.444,161.000 95.788 C 161.000 97.321,163.003 104.256,165.451 111.198 L 169.903 123.819 156.701 128.003 C 140.277 133.209,120.722 142.571,106.990 151.803 C 91.232 162.396,87.894 166.007,91.268 168.807 C 91.965 169.386,101.303 172.774,112.018 176.336 C 136.410 184.444,145.239 187.768,146.105 189.169 C 146.995 190.611,146.168 193.226,140.465 207.000 C 131.628 228.344,122.395 258.858,123.178 264.131 C 123.894 268.950,126.214 268.643,137.124 262.284 C 157.372 250.484,174.758 242.668,195.500 236.039 C 204.628 233.122,209.831 231.803,233.252 226.467 C 237.515 225.495,241.545 224.048,242.207 223.251 C 243.939 221.164,243.028 214.196,239.407 201.836 C 239.004 200.459,242.415 199.044,259.210 193.619 C 270.370 190.014,283.550 185.904,288.500 184.485 C 385.272 156.743,485.137 147.424,587.500 156.581 C 647.359 161.936,696.240 172.300,759.505 193.047 C 777.572 198.973,781.010 200.403,780.577 201.814 C 779.049 206.793,777.028 216.901,777.015 219.628 C 777.007 221.348,777.563 223.218,778.250 223.783 C 778.938 224.348,786.700 226.476,795.500 228.511 C 831.420 236.816,860.859 248.121,884.915 262.848 C 889.543 265.682,893.716 268.000,894.187 268.000 C 894.658 268.000,895.559 266.868,896.189 265.484 C 898.632 260.123,890.820 231.882,879.522 205.228 C 876.485 198.063,874.000 191.493,874.000 190.626 C 874.000 188.354,877.016 187.043,903.044 178.006 C 915.909 173.539,927.011 169.406,927.717 168.820 C 930.192 166.766,928.980 164.030,923.750 159.865 C 908.070 147.378,884.250 134.996,862.457 128.005 L 849.415 123.821 853.707 111.286 C 858.439 97.471,858.851 94.212,856.250 91.185 C 855.288 90.065,849.749 87.107,843.942 84.611 C 741.823 40.714,617.727 19.214,486.500 22.683 M588.000 27.413 C 678.111 34.683,757.349 52.169,826.525 80.049 C 852.745 90.617,854.877 91.659,855.518 94.226 C 856.036 96.299,850.533 113.533,834.516 160.000 C 829.144 175.586,818.547 205.589,817.138 209.204 L 816.084 211.909 808.792 208.562 C 789.202 199.572,732.694 181.170,698.000 172.482 C 639.658 157.872,579.905 150.988,511.639 151.010 C 425.581 151.037,351.667 162.336,268.500 188.177 C 242.204 196.348,214.271 206.696,204.882 211.746 C 204.084 212.176,202.198 207.352,189.932 173.500 C 169.515 117.157,162.801 96.732,163.902 94.316 C 165.174 91.524,167.094 90.545,187.051 82.510 C 261.261 52.632,355.637 32.452,446.500 27.033 C 456.400 26.443,466.975 25.799,470.000 25.603 C 484.782 24.643,569.847 25.948,588.000 27.413 M72.306 46.304 C 70.710 48.122,68.809 51.047,68.081 52.804 C 66.772 55.965,66.681 56.000,59.813 56.000 C 47.767 56.000,46.324 58.475,53.553 66.739 L 58.106 71.944 55.375 80.009 C 52.890 87.348,52.786 88.215,54.220 89.648 C 55.567 90.995,56.351 91.043,59.647 89.976 C 61.766 89.290,65.105 87.923,67.067 86.938 L 70.633 85.146 76.994 89.573 C 83.959 94.420,85.128 94.756,87.035 92.457 C 88.020 91.271,88.096 89.180,87.363 83.399 L 86.410 75.883 92.705 71.391 C 96.694 68.545,99.000 66.194,99.000 64.975 C 99.000 62.820,95.326 60.604,90.000 59.546 C 83.456 58.246,83.065 57.960,81.997 53.690 C 80.427 47.415,78.206 43.000,76.620 43.000 C 75.843 43.000,73.902 44.487,72.306 46.304 M502.500 45.347 C 482.546 51.950,471.580 69.434,473.312 91.887 C 474.637 109.074,483.691 123.352,497.227 129.603 C 502.996 132.267,504.424 132.500,515.000 132.500 C 524.965 132.500,527.202 132.183,531.757 130.124 C 534.649 128.817,538.361 126.214,540.007 124.339 C 542.485 121.517,543.000 120.062,543.000 115.888 C 543.000 111.669,542.531 110.377,540.128 107.974 C 535.829 103.675,533.098 103.395,526.099 106.536 C 521.229 108.721,519.000 109.165,514.682 108.807 C 504.431 107.957,499.063 101.155,499.022 88.962 C 498.972 74.086,509.864 64.923,522.069 69.574 C 524.506 70.502,528.564 71.466,531.088 71.716 C 535.198 72.124,536.004 71.843,538.838 69.009 C 541.525 66.321,542.000 65.112,542.000 60.958 C 542.000 54.795,538.392 50.297,530.757 46.943 C 524.309 44.109,508.874 43.238,502.500 45.347 M79.958 54.711 C 81.233 60.146,81.432 60.307,88.339 61.475 C 92.893 62.245,97.000 63.990,97.000 65.154 C 97.000 65.612,94.054 67.903,90.454 70.244 L 83.909 74.500 84.507 78.500 C 86.347 90.800,86.348 91.000,84.581 91.000 C 83.651 91.000,80.225 89.190,76.967 86.978 L 71.045 82.956 65.052 85.478 C 61.757 86.865,58.372 88.000,57.530 88.000 C 55.329 88.000,55.629 84.874,58.510 77.783 L 61.020 71.605 57.727 68.053 C 50.872 60.657,50.440 59.966,52.040 58.954 C 52.843 58.446,56.660 58.024,60.523 58.015 L 67.545 58.000 69.523 54.297 C 70.610 52.260,72.589 49.291,73.921 47.699 L 76.342 44.805 77.539 47.152 C 78.197 48.444,79.286 51.845,79.958 54.711 M529.798 49.008 C 538.884 52.917,542.073 59.091,538.537 65.928 C 536.131 70.582,531.920 71.226,524.859 68.022 C 509.496 61.051,494.163 74.144,496.432 92.299 C 497.283 99.117,500.517 104.714,505.714 108.367 C 511.434 112.387,519.159 112.543,526.864 108.793 C 533.212 105.704,537.123 106.404,539.530 111.059 C 543.531 118.796,539.164 125.325,527.597 128.897 C 512.694 133.500,496.927 129.943,487.427 119.834 C 480.462 112.423,477.535 105.993,475.955 94.635 C 472.802 71.959,484.840 52.051,504.746 47.022 C 511.006 45.440,523.876 46.461,529.798 49.008 M419.557 48.028 C 414.666 48.921,410.000 53.755,410.000 57.930 C 410.000 63.889,416.953 126.747,417.883 129.192 C 419.708 133.991,423.567 136.003,430.885 135.970 C 442.957 135.914,466.521 133.299,469.685 131.663 C 477.591 127.574,476.003 112.545,467.437 110.395 C 466.058 110.049,460.108 110.216,454.215 110.767 C 448.322 111.318,442.795 111.398,441.932 110.946 C 440.656 110.277,439.955 105.078,438.163 82.975 C 435.927 55.401,435.050 51.117,431.240 49.170 C 428.392 47.715,423.756 47.262,419.557 48.028 M581.105 48.515 C 573.011 50.793,566.608 54.681,560.626 60.953 C 551.890 70.112,547.989 80.163,548.012 93.460 C 548.059 121.137,570.441 140.761,597.578 136.918 C 609.819 135.184,620.141 128.492,627.043 117.813 C 632.458 109.434,634.322 101.498,633.841 88.864 C 633.496 79.785,633.056 77.666,630.289 71.777 C 625.991 62.629,619.350 55.777,610.585 51.444 C 604.622 48.497,602.131 47.862,594.994 47.467 C 589.151 47.144,584.816 47.471,581.105 48.515 M949.226 47.861 C 947.900 48.680,945.611 54.766,944.636 60.064 C 944.030 63.353,943.590 63.727,938.916 64.925 C 936.131 65.639,932.648 67.270,931.176 68.551 C 927.697 71.577,928.749 73.398,936.323 77.467 L 941.969 80.500 941.985 88.128 C 942.008 99.693,944.568 100.511,953.588 91.834 L 957.676 87.902 963.003 90.001 C 969.536 92.576,973.379 92.346,973.806 89.353 C 973.974 88.172,972.939 84.419,971.505 81.012 L 968.898 74.817 972.949 69.566 C 979.753 60.747,977.937 58.070,966.059 59.414 L 960.232 60.073 957.132 54.580 C 953.923 48.894,951.241 46.615,949.226 47.861 M605.467 51.672 C 620.674 57.009,630.595 70.335,631.734 86.953 C 633.727 116.028,615.397 136.339,588.591 134.757 C 577.888 134.125,570.464 131.191,563.527 124.851 C 550.059 112.542,546.280 90.968,554.532 73.500 C 558.119 65.906,567.155 56.734,574.247 53.487 C 583.940 49.049,595.998 48.348,605.467 51.672 M430.254 51.395 C 433.180 53.616,433.851 57.461,436.024 84.500 C 437.812 106.737,438.384 110.773,439.974 112.389 C 441.717 114.159,442.563 114.209,453.443 113.174 C 469.578 111.639,472.432 113.117,471.803 122.683 C 471.324 129.974,469.765 130.631,448.295 132.584 C 438.283 133.494,428.474 133.936,426.498 133.566 C 421.240 132.579,419.550 129.070,418.162 116.254 C 411.415 53.973,411.417 54.118,417.000 51.294 C 420.265 49.642,428.023 49.702,430.254 51.395 M955.500 56.000 L 959.145 62.000 967.072 62.000 C 971.433 62.000,974.998 62.337,974.996 62.750 C 974.994 63.163,973.034 65.950,970.640 68.945 L 966.289 74.390 968.582 79.445 C 971.809 86.560,972.549 89.998,970.858 90.010 C 970.111 90.016,966.704 89.038,963.287 87.838 L 957.075 85.656 952.080 90.328 C 944.863 97.079,944.000 96.725,944.000 87.017 L 944.000 79.034 939.250 76.597 C 936.638 75.256,933.672 73.537,932.660 72.777 C 931.004 71.533,930.976 71.265,932.382 70.098 C 933.242 69.384,936.545 67.997,939.723 67.016 L 945.500 65.231 947.045 59.365 C 950.084 47.828,950.448 47.683,955.500 56.000 M379.000 53.701 C 377.625 53.937,370.168 55.166,362.429 56.433 C 340.367 60.044,336.413 62.976,337.395 75.000 C 338.421 87.558,348.747 139.184,350.782 141.926 C 354.620 147.100,358.125 147.351,379.356 143.969 C 401.882 140.381,401.177 140.563,405.005 137.342 C 407.507 135.237,408.000 134.088,408.000 130.361 C 408.000 124.567,405.881 120.608,401.896 118.957 C 399.138 117.815,396.908 117.929,385.672 119.791 C 376.263 121.350,372.285 121.651,371.349 120.874 C 369.497 119.338,368.542 113.256,369.897 111.625 C 370.514 110.880,374.503 109.733,378.760 109.075 C 383.017 108.416,387.955 107.423,389.734 106.867 C 396.447 104.768,398.900 97.629,395.069 91.345 C 392.534 87.188,389.603 86.679,377.733 88.334 C 366.794 89.859,365.411 89.455,364.427 84.444 C 364.029 82.415,364.302 80.994,365.241 80.215 C 366.018 79.570,371.345 78.326,377.077 77.451 C 394.174 74.842,397.000 73.252,397.000 66.245 C 397.000 56.262,390.497 51.729,379.000 53.701 M391.850 58.069 C 394.375 60.779,395.189 65.158,393.872 68.937 C 392.633 72.492,390.297 73.307,376.212 75.093 C 365.169 76.494,362.000 78.372,362.000 83.517 C 362.000 85.604,362.886 87.918,364.325 89.592 L 366.651 92.295 374.366 91.148 C 384.880 89.584,390.549 89.692,392.347 91.490 C 394.447 93.590,395.333 98.510,394.044 100.918 C 392.444 103.907,390.338 104.730,380.064 106.384 C 374.494 107.281,370.037 108.562,368.897 109.593 C 365.295 112.853,367.009 122.462,371.390 123.562 C 372.743 123.901,379.397 123.207,386.175 122.019 C 400.991 119.421,403.287 119.888,405.077 125.864 C 406.552 130.787,405.684 134.506,402.586 136.536 C 399.944 138.267,368.098 143.970,360.973 143.988 C 355.508 144.002,352.498 142.093,351.134 137.747 C 350.253 134.943,341.341 87.122,339.510 75.377 C 338.614 69.631,340.806 64.794,345.265 62.678 C 349.623 60.611,375.321 56.205,383.711 56.087 C 388.774 56.016,390.279 56.383,391.850 58.069 M655.365 57.919 C 651.034 60.560,649.828 64.437,644.458 93.000 C 636.840 133.523,636.895 133.150,638.067 136.703 C 639.542 141.171,644.475 144.000,650.791 144.000 C 657.818 144.000,661.243 140.564,662.937 131.816 C 665.972 116.151,668.327 106.000,668.927 106.000 C 669.285 106.000,671.332 111.033,673.475 117.185 C 675.618 123.337,678.187 129.187,679.185 130.185 C 680.244 131.244,682.452 132.000,684.484 132.000 C 687.638 132.000,688.743 131.106,696.181 122.531 C 700.698 117.323,704.577 113.244,704.800 113.467 C 705.023 113.690,703.780 121.045,702.037 129.812 C 699.096 144.610,698.976 146.006,700.351 149.298 C 704.224 158.568,719.034 159.636,723.516 150.969 C 724.831 148.427,735.372 97.089,737.497 82.882 C 738.430 76.640,736.230 72.461,730.684 69.943 C 720.647 65.386,714.696 67.771,701.267 81.731 C 695.640 87.581,690.843 92.173,690.608 91.934 C 690.373 91.695,687.632 85.650,684.517 78.500 C 681.401 71.350,677.786 64.101,676.483 62.391 C 671.765 56.201,661.684 54.066,655.365 57.919 M668.993 59.614 C 674.182 61.690,675.476 63.628,682.935 80.500 C 686.339 88.200,689.456 94.837,689.861 95.249 C 690.267 95.661,695.732 90.762,702.006 84.362 C 715.864 70.226,718.772 68.698,727.315 71.071 C 732.892 72.619,735.000 75.171,735.000 80.373 C 735.000 86.251,723.326 146.468,721.504 149.993 C 718.713 155.390,708.922 155.922,703.947 150.947 C 701.263 148.263,701.445 144.051,705.010 126.452 C 707.583 113.746,707.818 111.389,706.626 110.197 C 705.434 109.006,703.892 110.340,695.992 119.402 C 683.101 134.187,682.041 134.037,675.690 116.512 C 671.475 104.881,669.166 101.434,667.023 103.577 C 666.455 104.145,664.858 110.660,663.472 118.055 C 659.385 139.876,657.547 142.873,648.957 141.721 C 643.387 140.974,639.999 137.702,640.005 133.076 C 640.012 128.199,651.623 66.922,653.193 63.476 C 654.502 60.604,658.882 58.107,662.730 58.039 C 663.956 58.018,666.774 58.726,668.993 59.614 M309.942 65.903 C 300.342 68.985,299.578 71.368,300.453 95.500 L 301.142 114.500 298.423 110.500 C 289.540 97.429,282.654 89.063,279.575 87.602 C 275.260 85.555,270.716 85.566,266.357 87.635 C 260.463 90.432,259.563 93.412,259.000 112.000 L 258.500 128.500 249.092 110.139 C 238.822 90.094,236.976 88.009,229.500 88.005 C 218.040 87.999,211.444 98.166,216.503 108.036 C 221.328 117.450,249.664 162.935,252.570 165.933 C 255.463 168.916,256.668 169.421,261.778 169.790 C 266.385 170.124,268.555 169.757,271.808 168.098 C 277.903 164.989,279.071 161.864,280.558 144.699 C 281.267 136.516,282.019 129.647,282.230 129.437 C 282.441 129.226,286.749 134.655,291.804 141.502 C 296.859 148.349,302.215 154.749,303.707 155.725 C 307.354 158.112,316.707 158.077,320.391 155.663 C 321.879 154.689,323.972 152.453,325.044 150.696 C 326.882 147.682,326.990 145.479,326.940 112.000 C 326.883 74.047,326.566 71.218,321.977 67.818 C 319.005 65.616,313.543 64.747,309.942 65.903 M320.939 69.750 C 322.127 70.713,323.516 73.300,324.025 75.500 C 324.535 77.700,324.962 94.350,324.975 112.500 C 324.999 149.094,324.714 150.923,318.500 153.968 C 314.602 155.877,307.782 155.743,304.656 153.694 C 303.298 152.804,297.783 145.984,292.399 138.538 C 287.016 131.092,282.051 125.000,281.367 125.000 C 279.942 125.000,279.437 128.212,278.006 146.353 C 277.312 155.149,276.455 160.115,275.290 162.087 C 271.774 168.039,262.059 169.857,255.898 165.716 C 253.477 164.089,248.552 156.974,238.767 140.966 C 219.178 108.919,217.000 104.875,217.000 100.550 C 217.000 91.719,230.881 86.397,236.783 92.965 C 237.727 94.016,242.775 103.116,248.000 113.188 C 253.908 124.576,258.067 131.500,259.000 131.500 C 260.255 131.500,260.590 128.644,261.052 114.000 C 261.361 104.208,262.091 95.614,262.709 94.489 C 264.619 91.015,267.415 89.116,271.526 88.501 C 278.335 87.483,282.723 91.454,295.000 109.740 C 298.443 114.869,301.177 117.945,302.310 117.966 C 303.999 117.998,304.072 117.178,303.399 105.750 C 303.003 99.013,302.638 89.077,302.589 83.672 L 302.500 73.844 305.766 70.922 C 308.429 68.539,309.931 68.000,313.905 68.000 C 317.057 68.000,319.542 68.618,320.939 69.750 M586.843 70.975 C 579.080 73.320,573.866 79.512,571.972 88.634 C 568.145 107.068,584.205 121.058,599.966 113.017 C 609.926 107.936,613.945 91.654,608.078 80.153 C 605.700 75.492,602.074 72.663,596.500 71.119 C 591.963 69.862,590.593 69.842,586.843 70.975 M599.633 74.630 C 606.267 77.778,610.076 88.208,607.999 97.537 C 605.714 107.804,598.415 113.679,589.062 112.780 C 579.662 111.877,574.064 104.782,574.022 93.718 C 573.975 81.350,580.950 73.012,591.349 73.004 C 594.016 73.002,597.744 73.734,599.633 74.630 M758.407 81.509 C 756.705 82.383,754.389 84.764,753.259 86.799 C 750.427 91.903,734.997 147.408,735.015 152.428 C 735.034 157.685,736.732 160.939,740.651 163.228 C 745.422 166.014,776.824 175.000,781.790 175.000 C 785.254 175.000,786.741 174.413,789.003 172.150 C 793.984 167.170,793.952 158.325,788.942 155.196 C 787.843 154.509,781.668 152.353,775.222 150.405 C 768.775 148.456,763.087 146.458,762.582 145.963 C 761.363 144.769,763.597 137.369,765.383 136.683 C 766.134 136.395,770.494 137.249,775.073 138.580 C 786.236 141.825,789.417 141.737,793.077 138.077 C 795.319 135.835,796.000 134.235,796.000 131.212 C 796.000 124.976,793.506 122.770,782.818 119.550 C 771.460 116.128,770.351 115.261,771.622 110.804 C 772.910 106.286,775.717 106.136,787.934 109.931 C 793.367 111.619,798.734 113.000,799.859 113.000 C 808.615 113.000,813.356 100.784,807.250 93.956 C 804.941 91.374,801.856 90.076,788.000 85.859 C 769.032 80.087,762.924 79.189,758.407 81.509 M785.919 87.670 C 803.102 92.977,805.761 94.248,807.120 97.798 C 808.540 101.508,806.636 107.537,803.368 109.678 C 800.932 111.275,800.324 111.201,789.659 108.020 C 773.964 103.338,773.684 103.315,771.145 106.543 C 769.042 109.216,768.406 113.288,769.603 116.407 C 769.963 117.346,774.207 119.212,780.165 121.051 C 793.310 125.107,795.646 127.542,793.020 134.447 C 791.197 139.242,788.208 139.627,776.628 136.557 C 764.919 133.454,762.971 133.776,761.105 139.128 C 759.409 143.993,759.758 146.802,762.250 148.360 C 763.487 149.134,769.450 151.202,775.500 152.957 C 781.550 154.712,787.288 156.860,788.250 157.729 C 791.007 160.219,790.607 167.484,787.545 170.545 C 784.148 173.943,781.577 173.719,763.296 168.430 C 742.746 162.486,739.702 161.110,737.999 156.998 C 736.302 152.901,736.755 150.621,745.526 119.131 C 753.454 90.665,754.419 87.884,757.275 85.251 C 761.791 81.088,765.666 81.415,785.919 87.670 M173.895 135.190 C 182.258 159.929,201.520 211.726,202.903 213.194 C 203.924 214.277,210.632 216.201,221.500 218.529 C 230.850 220.531,238.637 222.306,238.804 222.472 C 238.972 222.639,235.597 223.539,231.304 224.473 C 191.716 233.084,163.137 243.887,135.000 260.875 L 126.500 266.007 126.198 262.641 C 125.584 255.807,132.190 233.888,142.943 207.075 C 146.874 197.272,148.927 190.844,148.574 189.440 C 147.824 186.451,143.311 184.467,116.820 175.484 C 104.556 171.325,94.095 167.495,93.574 166.974 C 90.219 163.619,120.898 144.101,143.762 135.043 C 153.308 131.262,170.168 125.893,170.761 126.445 C 170.904 126.579,172.315 130.514,173.895 135.190 M862.638 130.492 C 877.502 135.383,892.884 142.351,904.842 149.611 C 915.444 156.048,927.160 165.020,926.713 166.360 C 926.285 167.646,926.628 167.515,897.500 177.521 C 873.403 185.800,870.410 187.582,871.965 192.731 C 872.425 194.254,875.078 200.758,877.860 207.184 C 884.437 222.373,889.177 236.693,892.402 251.120 C 893.831 257.512,895.000 263.249,895.000 263.870 C 895.000 265.852,892.971 265.116,884.639 260.112 C 860.368 245.533,831.515 234.417,797.500 226.538 C 788.700 224.499,781.397 222.729,781.272 222.604 C 781.146 222.479,788.796 220.665,798.272 218.573 C 808.317 216.355,816.212 214.088,817.209 213.135 C 818.621 211.784,842.812 144.615,847.060 130.250 C 847.751 127.912,848.468 126.000,848.653 126.000 C 848.837 126.000,855.131 128.021,862.638 130.492 M518.147 168.091 C 507.272 170.190,496.260 181.095,479.662 206.201 C 466.779 225.689,439.717 271.324,426.622 295.645 C 418.427 310.865,417.734 311.827,414.534 312.428 C 404.080 314.389,388.871 325.525,381.857 336.354 C 371.663 352.094,369.960 364.533,368.010 437.500 C 365.343 537.302,364.915 551.418,364.545 551.788 C 363.836 552.497,352.719 548.891,347.543 546.273 C 337.540 541.212,323.901 528.816,316.537 518.092 L 313.573 513.777 315.827 510.138 C 328.311 489.982,331.586 461.199,322.945 447.574 C 316.843 437.953,306.785 435.008,297.028 439.985 L 292.581 442.254 291.040 439.901 C 287.402 434.341,283.418 430.839,277.319 427.836 C 258.007 418.329,231.705 427.007,221.940 446.108 C 214.508 460.645,215.577 480.823,224.704 498.300 C 229.896 508.243,243.045 521.426,252.156 525.822 C 255.817 527.588,261.776 529.764,265.397 530.658 L 271.982 532.283 278.430 541.891 C 299.017 572.569,324.459 591.373,355.771 599.052 L 365.000 601.315 365.019 612.908 C 365.045 629.309,366.801 700.766,367.592 717.597 L 368.254 731.694 358.877 732.383 C 340.002 733.769,289.609 740.092,263.250 744.381 C 258.713 745.119,255.000 745.560,255.000 745.362 C 255.000 745.163,255.727 740.838,256.616 735.750 C 258.663 724.028,257.980 706.043,255.034 694.107 C 252.602 684.255,246.996 671.839,240.935 662.881 C 235.899 655.438,222.881 642.328,217.817 639.601 L 214.305 637.710 213.684 617.105 C 212.121 565.297,202.266 521.781,183.360 483.201 C 167.701 451.246,146.336 425.193,137.592 427.388 C 131.969 428.799,117.796 447.979,107.580 468.000 C 82.316 517.513,75.316 572.532,86.112 636.725 L 88.169 648.951 83.375 654.388 C 62.029 678.599,55.692 717.283,67.422 751.771 C 70.694 761.391,77.675 774.599,80.777 777.040 C 82.168 778.133,83.124 779.175,82.903 779.354 C 82.681 779.533,79.575 780.475,76.000 781.448 C 50.466 788.399,-2.835 811.498,0.036 814.369 C 0.329 814.662,5.430 812.408,11.372 809.359 C 39.386 794.988,73.089 783.117,108.857 775.023 C 116.204 773.360,122.748 772.000,123.400 772.000 C 124.169 772.000,124.570 773.845,124.543 777.250 C 124.501 782.396,124.579 782.539,128.500 784.460 C 139.945 790.070,195.221 783.445,204.112 775.398 C 206.650 773.102,206.489 769.898,203.542 764.083 L 201.084 759.233 203.792 758.656 C 205.281 758.338,212.794 756.710,220.487 755.039 C 228.179 753.368,234.824 752.000,235.253 752.000 C 235.682 752.000,236.806 753.622,237.751 755.604 C 239.436 759.137,239.557 759.195,243.985 758.566 C 246.468 758.213,251.327 757.649,254.782 757.314 C 262.467 756.569,264.010 755.000,257.059 755.000 C 254.277 755.000,252.000 754.842,252.000 754.649 C 252.000 754.456,252.480 752.922,253.066 751.240 C 254.032 748.468,254.710 748.082,260.316 747.113 C 279.582 743.780,323.191 738.112,350.358 735.408 C 368.947 733.559,368.955 733.561,368.985 739.540 C 369.024 747.359,373.931 760.193,379.692 767.545 C 388.268 778.489,409.441 789.134,429.250 792.461 L 433.000 793.091 433.000 809.383 L 433.000 825.675 424.409 827.796 C 402.400 833.229,387.691 845.530,383.333 862.147 C 381.845 867.819,381.785 869.461,382.884 874.372 C 385.338 885.338,393.223 892.296,407.500 896.092 C 414.034 897.830,418.432 898.226,431.500 898.254 C 460.552 898.317,476.115 892.496,483.006 878.988 C 485.637 873.831,486.896 864.043,485.962 856.000 C 483.362 833.587,481.081 812.454,480.553 805.891 L 479.942 798.283 522.984 798.303 L 566.026 798.324 565.511 802.912 C 565.227 805.435,563.601 818.750,561.896 832.500 C 557.258 869.910,558.378 878.001,569.556 887.840 C 578.253 895.496,590.150 898.361,613.000 898.301 C 636.048 898.241,648.159 894.814,656.380 886.025 C 661.288 880.778,662.986 876.217,662.994 868.261 C 663.014 850.104,643.798 831.505,619.650 826.306 L 611.801 824.617 612.389 821.058 C 612.713 819.101,612.985 812.100,612.993 805.500 L 613.007 793.500 622.903 791.345 C 634.320 788.859,647.925 782.844,655.703 776.843 C 666.675 768.378,673.559 755.412,675.466 739.619 L 676.177 733.739 686.838 734.430 C 747.245 738.349,803.755 747.794,878.880 766.530 C 941.542 782.157,985.153 796.524,1014.248 811.124 C 1020.672 814.348,1024.000 815.558,1024.000 814.671 C 1024.000 812.973,1004.827 803.775,986.500 796.681 C 968.149 789.578,951.640 784.051,930.676 777.992 C 915.135 773.501,913.370 772.760,911.110 769.778 C 909.744 767.975,906.635 764.547,904.202 762.161 C 900.959 758.979,900.075 757.525,900.889 756.711 C 902.445 755.155,902.272 750.022,900.494 744.983 C 899.157 741.193,899.154 739.750,900.473 732.107 C 903.225 716.163,906.000 695.921,906.014 691.695 C 906.037 684.559,906.818 683.126,911.348 681.906 C 922.798 678.823,933.039 670.325,938.037 659.760 C 939.666 656.317,941.016 652.825,941.038 652.000 C 941.059 651.175,942.486 649.600,944.209 648.500 C 950.955 644.192,953.826 631.707,948.974 627.778 C 947.676 626.727,945.784 626.085,944.769 626.350 C 943.663 626.639,941.955 625.864,940.507 624.416 C 939.178 623.087,937.681 622.000,937.180 622.000 C 935.112 622.000,931.108 626.233,930.482 629.080 C 929.555 633.302,927.551 633.705,924.190 630.344 C 922.042 628.196,921.181 626.175,920.706 622.168 C 919.394 611.088,911.225 599.146,901.274 593.760 C 884.770 584.829,862.323 585.725,847.763 595.897 C 841.451 600.307,835.559 607.797,833.228 614.374 C 832.183 617.321,830.629 619.650,829.298 620.263 C 825.925 621.817,823.680 627.471,824.290 632.880 C 824.691 636.443,825.504 638.058,827.904 640.061 C 829.607 641.483,831.002 643.288,831.004 644.073 C 831.009 645.931,834.544 651.797,837.656 655.111 L 840.108 657.722 835.052 660.967 C 825.181 667.301,817.540 678.200,814.968 689.615 C 813.386 696.640,813.582 704.713,815.402 707.491 C 817.243 710.301,820.767 711.633,822.301 710.099 C 822.905 709.495,824.644 709.000,826.165 709.000 C 829.213 709.000,831.000 706.661,831.000 702.673 C 831.000 701.320,831.675 699.955,832.500 699.638 C 833.792 699.143,834.000 701.108,833.997 713.781 L 833.994 728.500 831.102 730.438 C 825.162 734.417,822.881 742.796,827.120 745.064 C 829.157 746.154,829.087 746.291,825.358 748.514 L 821.476 750.829 809.488 748.391 C 792.143 744.864,764.925 740.388,746.500 738.033 C 728.033 735.673,689.614 732.000,683.396 732.000 C 676.166 732.000,676.411 732.610,677.276 716.739 C 677.703 708.908,678.378 678.425,678.776 649.000 L 679.500 595.500 693.057 609.000 C 700.513 616.425,708.790 625.741,711.450 629.702 L 716.288 636.904 714.230 641.702 C 709.704 652.257,708.587 658.798,708.542 675.000 C 708.501 690.029,708.586 690.675,711.328 696.258 C 715.016 703.770,719.521 707.213,726.409 707.784 C 729.961 708.079,732.652 707.714,734.685 706.663 C 737.664 705.122,737.739 705.149,741.598 709.101 C 743.744 711.299,747.975 714.313,751.000 715.799 C 755.739 718.126,757.745 718.500,765.500 718.500 C 773.324 718.500,775.242 718.136,780.178 715.712 C 787.695 712.020,796.118 702.911,799.067 695.285 C 802.133 687.353,802.793 673.660,800.586 663.742 C 797.494 649.846,787.419 633.544,777.023 625.616 C 771.736 621.584,761.958 617.064,758.435 617.024 C 757.044 617.008,755.790 615.777,754.591 613.250 C 741.867 586.431,712.437 555.521,685.911 541.117 L 678.322 536.996 677.648 500.248 C 675.951 407.772,674.154 368.830,671.014 356.555 C 665.700 335.777,651.128 320.110,631.977 314.584 L 626.455 312.990 620.630 301.245 C 601.053 261.773,559.690 192.719,547.575 179.281 C 539.762 170.614,528.081 166.173,518.147 168.091 M535.889 173.102 C 544.424 177.367,551.710 186.363,569.016 214.000 C 578.937 229.843,608.052 281.412,616.540 298.177 L 624.985 314.854 630.742 316.516 C 650.404 322.191,665.160 338.714,669.523 359.940 C 671.945 371.725,673.481 408.885,675.626 507.666 L 676.303 538.833 680.402 540.666 C 687.456 543.823,702.114 553.938,711.866 562.381 C 727.759 576.140,740.992 592.650,750.935 611.125 C 754.734 618.183,755.321 618.796,758.820 619.355 C 770.369 621.202,785.185 633.893,792.261 648.001 C 803.197 669.801,802.278 691.876,789.870 705.452 C 782.723 713.271,775.826 716.381,765.500 716.439 C 755.835 716.493,750.428 714.352,743.232 707.620 L 738.398 703.099 734.449 704.505 C 722.618 708.720,713.784 702.256,710.967 687.323 C 708.572 674.630,711.527 651.728,716.926 641.146 L 718.975 637.130 713.781 629.365 C 706.151 617.956,681.360 593.000,677.658 593.000 C 677.296 593.000,676.999 604.362,676.999 618.250 C 676.997 651.384,675.245 717.573,674.000 731.507 C 672.222 751.418,668.353 761.487,658.816 771.024 C 650.033 779.807,634.068 787.268,617.521 790.322 L 610.794 791.563 610.482 809.141 L 610.170 826.718 618.131 828.287 C 641.076 832.807,658.887 848.726,660.690 866.325 C 661.494 874.177,659.557 879.735,654.145 885.104 C 646.108 893.076,634.826 895.980,611.838 895.992 C 588.728 896.005,575.959 892.305,568.031 883.298 C 560.636 874.896,559.628 866.790,562.992 842.742 C 565.042 828.091,568.000 801.447,568.000 797.643 L 568.000 795.500 523.000 795.500 L 478.000 795.500 478.010 799.000 C 478.028 804.930,480.005 825.745,482.048 841.500 C 484.554 860.833,484.545 868.468,482.006 875.253 C 478.728 884.017,471.565 889.618,458.470 893.658 C 453.515 895.187,449.100 895.500,432.500 895.500 C 414.622 895.500,411.751 895.264,405.440 893.279 C 397.839 890.888,391.101 886.610,388.369 882.440 C 385.355 877.841,383.970 870.433,385.054 864.717 C 388.423 846.949,405.607 833.087,429.395 828.945 L 435.500 827.882 435.272 809.691 L 435.044 791.500 425.228 789.342 C 395.529 782.812,378.021 768.923,372.530 747.537 C 370.446 739.422,369.091 710.596,368.462 661.000 C 368.173 638.175,367.684 614.911,367.376 609.302 L 366.815 599.103 361.157 597.988 C 346.410 595.080,329.852 588.010,316.177 578.782 C 302.952 569.858,286.573 551.827,276.772 535.403 C 274.533 531.650,272.711 529.762,271.000 529.421 C 255.794 526.385,246.479 521.432,236.930 511.306 C 211.952 484.821,213.704 444.018,240.377 431.015 C 247.846 427.374,258.543 425.446,266.031 426.391 C 275.744 427.617,285.773 434.625,290.884 443.757 C 291.725 445.259,292.293 445.158,296.792 442.710 C 308.146 436.530,318.889 440.930,323.355 453.589 C 328.283 467.556,324.398 492.338,315.001 506.877 C 310.419 513.967,310.371 513.668,317.575 523.073 C 325.665 533.634,337.097 543.369,347.213 548.312 C 355.187 552.209,365.761 555.572,366.793 554.540 C 367.301 554.032,367.940 533.829,369.546 467.500 C 371.069 404.616,372.207 378.856,374.090 364.612 C 377.310 340.262,391.250 322.603,413.000 315.325 L 419.500 313.149 429.556 294.825 C 450.474 256.704,480.023 208.115,491.761 192.535 C 497.156 185.373,504.373 177.656,508.385 174.756 C 516.267 169.061,526.562 168.442,535.889 173.102 M515.718 187.750 C 506.017 195.083,485.338 226.214,455.760 278.015 C 440.036 305.554,437.347 310.680,438.184 311.517 C 438.482 311.816,452.176 311.543,468.613 310.912 C 498.838 309.752,553.922 310.246,587.500 311.979 C 598.505 312.547,604.853 312.510,605.500 311.873 C 607.111 310.289,588.751 275.491,565.731 236.500 C 551.661 212.668,542.649 199.592,534.887 191.750 C 528.642 185.440,527.918 185.000,523.782 185.000 C 520.503 185.000,518.414 185.712,515.718 187.750 M532.591 192.175 C 540.647 199.794,554.202 220.425,575.441 257.394 C 583.001 270.553,604.203 310.164,603.810 310.396 C 603.640 310.497,597.650 310.264,590.500 309.877 C 563.633 308.426,486.361 307.793,463.527 308.837 C 450.892 309.415,440.493 309.800,440.419 309.694 C 440.189 309.365,473.121 252.068,479.916 240.975 C 492.522 220.396,506.538 200.391,513.004 193.750 C 518.825 187.771,520.007 187.000,523.348 187.000 C 526.519 187.000,527.990 187.823,532.591 192.175 M239.560 211.237 C 240.550 215.492,241.063 219.271,240.700 219.634 C 240.143 220.190,213.592 214.935,209.000 213.360 C 206.898 212.639,211.035 210.586,225.000 205.417 C 233.103 202.417,236.686 201.506,237.130 202.330 C 237.476 202.974,238.570 206.982,239.560 211.237 M807.198 210.181 C 809.898 211.342,811.746 212.608,811.304 212.993 C 810.862 213.378,804.650 214.919,797.500 216.418 C 790.350 217.917,783.263 219.538,781.750 220.020 C 778.334 221.108,778.308 220.687,781.103 209.544 L 783.205 201.161 792.747 204.615 C 797.995 206.514,804.498 209.019,807.198 210.181 M388.315 202.985 C 385.560 204.123,384.000 206.996,384.000 210.934 C 384.000 215.078,387.101 218.000,391.500 218.000 C 396.242 218.000,399.000 215.115,399.000 210.155 C 399.000 204.387,393.637 200.789,388.315 202.985 M667.753 205.882 C 666.420 207.466,664.334 211.212,663.120 214.206 L 660.911 219.648 652.344 220.794 C 638.715 222.618,637.860 224.834,647.360 233.720 L 653.720 239.669 651.917 246.585 C 647.832 262.260,649.953 264.034,663.207 256.034 L 669.915 251.985 676.883 256.493 C 684.181 261.214,688.607 262.188,689.709 259.317 C 690.064 258.391,689.545 253.627,688.555 248.730 L 686.755 239.826 690.627 236.683 C 701.698 227.695,702.721 224.337,695.000 222.330 C 692.525 221.687,688.348 221.125,685.719 221.080 C 682.855 221.032,680.763 220.499,680.503 219.750 C 676.294 207.634,673.689 203.000,671.089 203.000 C 670.588 203.000,669.087 204.297,667.753 205.882 M395.800 206.200 C 397.499 207.899,397.288 212.569,395.429 214.429 C 390.578 219.279,383.710 213.147,387.035 206.934 C 388.222 204.717,393.846 204.246,395.800 206.200 M675.907 213.430 C 677.608 217.517,679.000 221.342,679.000 221.930 C 679.000 222.530,680.957 223.000,683.451 223.000 C 689.389 223.000,698.000 224.905,698.000 226.219 C 698.000 227.175,694.356 230.697,686.701 237.143 L 683.901 239.500 685.944 248.000 C 687.067 252.675,687.989 257.063,687.993 257.750 C 688.006 260.116,684.463 258.990,677.771 254.500 C 670.241 249.449,669.258 249.230,665.885 251.857 C 663.196 253.951,653.918 259.000,652.758 259.000 C 651.533 259.000,651.867 256.084,654.092 247.361 L 656.185 239.158 649.342 232.653 C 641.079 224.797,641.403 223.993,653.182 223.118 L 661.500 222.500 664.330 216.500 C 668.133 208.439,669.782 206.000,671.430 206.000 C 672.206 206.000,674.171 209.260,675.907 213.430 M59.736 216.250 C 56.978 218.345,56.052 222.219,57.492 225.644 C 60.639 233.128,71.400 230.696,71.400 222.500 C 71.400 216.417,64.433 212.684,59.736 216.250 M67.800 218.200 C 68.460 218.860,69.000 220.895,69.000 222.721 C 69.000 226.909,65.487 228.999,61.500 227.182 C 59.532 226.285,59.000 225.304,59.000 222.571 C 59.000 220.320,59.615 218.741,60.750 218.080 C 63.132 216.693,66.348 216.748,67.800 218.200 M310.039 246.961 C 308.961 248.039,307.376 251.526,306.518 254.711 C 303.546 265.734,303.944 265.168,298.109 266.656 C 290.509 268.594,284.089 271.604,283.329 273.585 C 282.292 276.287,284.163 278.207,292.543 283.045 L 300.417 287.591 300.124 296.842 C 299.900 303.899,300.199 306.655,301.383 308.461 C 303.562 311.787,306.015 310.853,313.500 303.851 C 316.940 300.633,320.198 298.000,320.739 298.000 C 321.280 298.000,324.756 299.375,328.463 301.056 C 336.413 304.661,341.323 304.743,341.816 301.281 C 341.989 300.060,340.535 295.146,338.584 290.361 C 334.699 280.830,334.563 281.802,340.761 274.706 C 342.583 272.619,344.836 269.314,345.768 267.361 C 347.396 263.947,347.385 263.752,345.480 262.308 C 343.920 261.125,341.467 260.911,333.908 261.300 L 324.316 261.794 321.774 256.612 C 319.066 251.091,314.417 245.000,312.911 245.000 C 312.410 245.000,311.118 245.882,310.039 246.961 M315.804 250.750 C 316.871 252.262,318.941 255.878,320.406 258.784 L 323.068 264.067 333.253 263.784 C 345.985 263.429,346.290 264.059,338.231 274.046 L 332.359 281.322 335.571 288.911 C 340.090 299.589,340.549 302.000,338.067 302.000 C 336.984 302.000,332.457 300.400,328.008 298.444 L 319.920 294.887 312.838 301.444 C 308.943 305.050,305.167 308.000,304.446 308.000 C 302.301 308.000,301.725 304.211,302.454 294.895 L 303.142 286.101 296.821 282.924 C 289.409 279.198,285.000 276.227,285.000 274.958 C 285.000 273.496,290.611 271.008,298.324 269.051 L 305.500 267.230 307.626 259.365 C 311.071 246.622,312.116 245.522,315.804 250.750 M966.635 256.073 C 961.404 260.188,964.304 269.000,970.889 269.000 C 977.997 269.000,980.992 260.970,975.611 256.342 C 972.256 253.456,970.046 253.390,966.635 256.073 M973.834 257.596 C 975.521 258.778,976.033 259.985,975.806 262.245 C 975.411 266.188,973.009 267.739,969.303 266.444 C 965.483 265.108,964.819 259.941,968.166 257.596 C 969.420 256.718,970.695 256.000,971.000 256.000 C 971.305 256.000,972.580 256.718,973.834 257.596 M856.335 300.028 C 823.065 306.024,798.427 333.590,796.170 367.343 L 795.500 377.355 787.461 381.971 C 761.890 396.657,748.000 410.314,748.000 420.772 C 748.000 434.051,769.591 437.181,807.841 429.447 L 820.181 426.952 823.350 429.726 C 836.952 441.634,858.313 448.131,876.895 446.012 C 900.313 443.341,919.254 430.237,930.446 408.963 C 934.120 401.979,939.000 386.591,939.000 381.988 C 939.000 379.588,940.138 378.477,947.189 374.001 C 973.653 357.200,990.000 340.527,990.000 330.338 C 990.000 321.992,984.025 318.992,967.500 319.040 C 957.213 319.071,948.183 320.355,932.500 324.019 L 923.500 326.122 915.810 318.639 C 907.569 310.621,896.662 304.332,886.000 301.451 C 879.054 299.574,863.099 298.809,856.335 300.028 M885.500 303.660 C 894.214 305.857,906.391 312.544,913.316 318.937 C 922.726 327.622,931.994 343.289,934.434 354.635 C 935.248 358.418,934.950 358.629,914.500 368.809 C 894.365 378.831,877.892 385.683,850.000 395.635 C 837.722 400.017,811.258 408.000,809.013 408.000 C 807.097 408.000,801.260 393.981,799.444 385.019 C 796.478 370.383,798.632 354.437,805.459 340.500 C 815.881 319.221,836.523 304.791,861.000 301.673 C 866.434 300.981,878.873 301.990,885.500 303.660 M741.073 305.635 C 738.702 308.649,738.548 309.914,740.130 313.385 C 743.477 320.732,754.000 317.834,754.000 309.566 C 754.000 303.269,745.069 300.554,741.073 305.635 M750.800 306.200 C 751.460 306.860,752.000 308.570,752.000 310.000 C 752.000 313.355,750.297 315.000,746.823 315.000 C 744.964 315.000,743.504 314.173,742.408 312.500 C 740.891 310.184,740.891 309.816,742.408 307.500 C 744.193 304.776,748.681 304.081,750.800 306.200 M188.455 309.455 C 184.247 313.662,185.944 320.888,191.649 323.057 C 195.066 324.356,200.724 321.855,202.008 318.479 C 205.135 310.254,194.642 303.267,188.455 309.455 M198.429 310.571 C 200.284 312.427,200.512 318.088,198.800 319.800 C 198.140 320.460,196.263 321.000,194.629 321.000 C 188.673 321.000,185.929 315.071,190.000 311.000 C 192.397 308.603,196.264 308.407,198.429 310.571 M69.883 323.750 C 69.296 325.262,68.569 329.967,68.268 334.204 L 67.721 341.907 63.220 343.441 C 57.002 345.559,50.253 349.658,48.939 352.115 C 47.285 355.204,49.932 357.446,59.489 361.053 L 67.714 364.158 68.292 372.342 C 69.376 387.706,71.689 389.662,79.440 381.770 C 82.286 378.871,85.519 375.306,86.625 373.848 L 88.634 371.195 96.909 373.155 C 112.411 376.827,114.178 374.563,106.141 361.331 L 101.195 353.187 105.751 346.396 C 108.893 341.714,110.337 338.502,110.403 336.053 C 110.497 332.624,110.364 332.489,106.595 332.180 C 104.447 332.005,99.531 332.635,95.672 333.580 L 88.655 335.300 86.236 332.400 C 76.425 320.637,72.000 318.297,69.883 323.750 M980.315 322.071 C 996.467 326.556,986.108 344.488,954.729 366.366 C 922.205 389.042,880.468 407.862,834.000 420.806 C 791.000 432.783,760.717 434.717,752.040 426.040 C 743.965 417.965,759.495 400.177,789.360 383.297 C 795.796 379.659,796.955 379.940,796.985 385.146 C 796.997 387.353,795.794 388.550,789.750 392.344 C 774.387 401.987,770.022 409.696,778.043 413.018 C 794.123 419.678,887.795 388.154,935.690 359.963 C 946.827 353.407,957.321 345.685,959.397 342.517 C 962.847 337.252,960.602 332.745,953.911 331.504 C 950.819 330.930,936.992 332.730,930.441 334.559 C 928.881 334.994,928.040 334.450,926.973 332.317 C 926.198 330.768,925.418 329.218,925.240 328.872 C 924.837 328.094,939.889 324.329,950.559 322.538 C 960.377 320.890,975.224 320.657,980.315 322.071 M78.579 326.750 C 80.600 328.813,83.395 332.208,84.789 334.295 C 86.539 336.913,87.817 337.900,88.912 337.479 C 91.615 336.441,103.998 334.000,106.565 334.000 C 107.904 334.000,109.000 334.468,109.000 335.040 C 109.000 336.630,105.176 343.775,101.916 348.274 C 100.312 350.488,99.000 352.667,99.000 353.116 C 99.000 353.565,100.728 356.607,102.841 359.875 C 107.303 366.779,109.549 371.785,108.606 372.727 C 108.242 373.091,103.370 372.358,97.780 371.098 L 87.617 368.806 85.575 371.653 C 81.989 376.653,74.770 384.000,73.443 384.000 C 71.889 384.000,70.929 379.970,70.113 370.034 L 69.500 362.567 62.500 359.970 C 53.452 356.614,51.000 355.244,51.000 353.546 C 51.000 351.834,56.042 348.657,63.691 345.550 L 69.500 343.190 70.133 336.267 C 71.465 321.694,72.491 320.538,78.579 326.750 M463.164 326.003 C 435.272 327.454,419.381 330.239,409.008 335.496 C 398.843 340.647,391.436 350.654,389.021 362.500 C 387.537 369.779,386.280 386.055,387.160 386.599 C 387.574 386.855,391.447 386.163,395.765 385.060 C 417.913 379.405,447.615 376.302,493.353 374.865 C 554.055 372.957,613.936 376.347,647.038 383.565 C 658.446 386.053,657.526 386.578,657.314 377.707 C 656.745 353.818,648.136 338.196,632.722 333.079 C 624.594 330.380,610.411 328.365,590.000 327.007 C 568.527 325.579,484.155 324.911,463.164 326.003 M557.413 328.003 C 603.221 329.456,624.820 331.716,635.085 336.132 C 640.756 338.572,647.371 345.324,650.073 351.432 C 652.284 356.431,654.498 366.631,655.489 376.391 C 656.189 383.276,656.187 383.282,653.845 382.618 C 652.555 382.253,645.200 380.871,637.500 379.547 C 599.155 372.955,542.767 370.621,480.000 373.029 C 443.653 374.423,413.363 377.976,395.436 382.947 L 388.728 384.807 389.392 376.005 C 391.741 344.884,403.656 334.144,440.431 329.998 C 464.399 327.296,510.376 326.512,557.413 328.003 M957.800 335.200 C 960.922 338.322,957.077 343.478,946.032 350.978 C 937.412 356.832,937.304 356.842,935.982 351.934 C 935.355 349.605,933.782 345.302,932.485 342.371 L 930.129 337.042 933.814 336.097 C 940.671 334.339,941.489 334.232,949.050 334.116 C 953.736 334.044,957.055 334.455,957.800 335.200 M936.985 381.750 C 936.977 382.163,936.292 385.425,935.464 389.000 C 927.611 422.878,902.146 444.000,869.154 444.000 C 857.563 444.000,849.094 442.057,838.500 436.966 C 831.216 433.466,822.352 427.314,823.271 426.396 C 823.476 426.191,829.912 424.249,837.572 422.082 C 869.069 413.170,906.881 397.830,928.500 385.195 C 935.699 380.988,937.011 380.455,936.985 381.750 M492.500 388.600 C 464.125 389.454,432.471 392.463,414.211 396.041 C 404.124 398.018,389.788 402.158,387.184 403.846 C 386.258 404.447,385.692 408.647,385.275 418.018 C 384.704 430.858,384.752 431.306,386.592 430.504 C 397.682 425.671,402.679 424.609,414.500 424.574 C 426.053 424.539,426.957 424.696,438.772 428.769 C 458.114 435.438,468.641 434.720,487.042 425.479 C 501.455 418.240,508.510 416.490,523.000 416.560 C 538.254 416.634,544.135 418.092,559.696 425.659 C 579.424 435.252,592.478 436.156,610.000 429.142 C 626.607 422.494,639.295 422.601,657.250 429.538 C 658.821 430.145,659.000 429.450,659.000 422.754 C 659.000 418.651,658.709 412.505,658.352 409.096 C 657.794 403.752,657.346 402.715,655.102 401.563 C 646.690 397.245,615.152 392.109,584.362 390.043 C 568.164 388.956,510.673 388.053,492.500 388.600 M180.174 392.314 C 175.463 397.330,178.659 405.000,185.461 405.000 C 192.140 405.000,195.203 398.071,190.927 392.635 C 188.218 389.191,183.248 389.043,180.174 392.314 M559.500 391.436 C 593.172 392.159,625.058 395.447,643.249 400.072 C 656.419 403.420,655.648 402.539,656.467 415.182 C 656.859 421.217,657.022 426.312,656.830 426.503 C 656.638 426.695,653.785 425.935,650.491 424.814 C 643.131 422.310,630.442 421.413,622.753 422.854 C 619.591 423.447,613.570 425.307,609.372 426.988 C 592.463 433.758,579.782 432.893,560.153 423.628 C 544.603 416.289,539.591 414.919,525.975 414.282 C 511.478 413.605,502.516 415.660,486.000 423.446 C 472.065 430.016,468.615 430.987,459.190 430.994 C 453.178 430.999,449.716 430.250,439.690 426.775 C 427.791 422.651,427.190 422.550,414.500 422.548 C 403.124 422.547,400.594 422.865,394.250 425.097 L 387.000 427.647 387.007 423.574 C 387.011 421.333,387.305 416.417,387.661 412.648 L 388.308 405.797 392.582 403.965 C 402.008 399.925,427.996 395.299,454.500 392.945 C 468.241 391.724,517.323 390.268,530.000 390.705 C 534.125 390.847,547.400 391.176,559.500 391.436 M800.016 395.500 C 800.707 397.700,802.326 401.602,803.614 404.172 L 805.955 408.844 800.727 410.000 C 797.852 410.636,792.125 411.400,788.000 411.699 C 781.544 412.166,780.165 411.970,778.096 410.287 L 775.691 408.331 777.596 405.075 C 779.709 401.460,796.844 389.401,798.025 390.696 C 798.429 391.138,799.324 393.300,800.016 395.500 M189.171 393.655 C 192.827 396.964,190.456 403.000,185.500 403.000 C 180.632 403.000,178.328 397.504,181.655 393.829 C 183.713 391.555,186.772 391.484,189.171 393.655 M144.082 431.837 C 149.411 435.216,159.448 447.018,167.697 459.604 C 174.840 470.501,184.326 488.663,183.540 489.935 C 182.828 491.087,172.597 494.442,163.544 496.492 C 146.208 500.417,114.778 502.234,102.963 499.993 C 100.042 499.439,97.480 498.813,97.269 498.603 C 96.559 497.893,103.687 480.588,109.292 469.414 C 116.294 455.454,127.473 438.663,133.404 433.195 C 135.907 430.888,138.327 429.000,138.782 429.000 C 139.236 429.000,141.622 430.277,144.082 431.837 M508.288 431.536 C 505.421 432.308,499.346 434.815,494.788 437.108 C 470.295 449.425,455.934 450.604,432.162 442.248 C 422.852 438.975,420.422 438.514,413.000 438.610 C 403.677 438.731,396.910 440.769,388.845 445.883 L 384.287 448.774 383.603 471.137 C 382.129 519.293,381.039 580.200,381.020 615.527 C 381.003 646.158,381.249 652.910,382.440 654.611 C 384.633 657.742,395.677 662.723,403.393 664.060 C 412.087 665.567,418.764 664.837,432.000 660.933 C 440.548 658.412,444.359 657.825,452.500 657.778 C 466.074 657.700,474.612 659.899,488.529 667.057 C 504.057 675.043,509.045 676.418,522.500 676.418 C 535.890 676.418,540.968 675.038,557.531 666.899 C 571.658 659.957,579.487 658.041,593.831 658.017 C 602.169 658.003,606.499 658.600,616.274 661.111 C 626.588 663.760,629.734 664.163,637.478 663.824 C 645.454 663.475,647.535 662.968,654.435 659.691 L 662.300 655.956 661.650 578.728 C 661.293 536.253,660.708 489.417,660.352 474.649 L 659.704 447.798 655.666 444.873 C 645.620 437.595,631.604 436.768,614.472 442.440 C 589.991 450.546,578.202 449.771,553.918 438.458 C 547.548 435.490,539.691 432.373,536.458 431.531 C 529.231 429.649,515.284 429.651,508.288 431.536 M536.830 434.020 C 540.840 435.131,548.031 438.004,552.810 440.404 C 575.345 451.719,590.959 452.693,615.901 444.339 C 625.623 441.083,627.257 440.823,635.653 441.187 C 643.375 441.522,645.720 442.051,650.653 444.573 L 656.500 447.561 657.182 454.531 C 658.150 464.410,660.030 572.341,660.014 617.066 L 660.000 654.632 656.250 656.726 C 654.188 657.878,649.825 659.593,646.555 660.538 C 639.113 662.688,626.430 662.059,617.000 659.071 C 606.900 655.872,595.081 654.721,584.964 655.951 C 574.391 657.237,567.536 659.495,554.500 665.988 C 541.606 672.411,535.154 674.000,521.971 674.000 C 509.044 674.000,504.486 672.753,489.064 664.995 C 473.921 657.378,467.348 655.641,453.500 655.600 C 443.851 655.571,441.087 655.985,431.000 658.969 C 416.640 663.217,406.886 663.572,397.000 660.207 C 393.425 658.990,388.976 657.065,387.114 655.929 L 383.728 653.864 384.364 571.182 C 384.714 525.707,385.284 479.847,385.631 469.270 L 386.261 450.041 390.881 447.115 C 398.004 442.603,404.517 440.774,413.500 440.765 C 420.340 440.758,423.312 441.381,434.000 445.064 C 446.026 449.209,446.955 449.372,458.500 449.369 C 472.265 449.366,478.973 447.549,495.060 439.470 C 500.024 436.977,506.428 434.306,509.292 433.534 C 516.994 431.460,528.311 431.659,536.830 434.020 M250.275 440.594 C 240.597 444.159,233.046 454.232,231.533 465.594 C 229.321 482.211,241.305 504.547,256.587 512.291 C 262.924 515.502,272.652 517.429,278.270 516.587 C 289.358 514.924,300.853 506.143,306.481 495.037 C 314.491 479.231,315.003 457.601,307.450 454.159 C 304.089 452.628,300.689 454.082,294.841 459.552 C 292.226 461.998,289.461 464.000,288.698 464.000 C 286.673 464.000,284.321 460.962,283.556 457.358 C 282.518 452.472,277.521 445.373,273.025 442.398 C 267.893 439.002,256.951 438.134,250.275 440.594 M267.500 442.110 C 273.185 443.672,279.057 450.111,281.293 457.235 C 283.100 462.994,285.840 466.000,289.282 466.000 C 290.293 466.000,293.499 463.750,296.406 461.000 C 300.469 457.158,302.429 456.000,304.871 456.000 C 307.417 456.000,308.258 456.547,309.098 458.750 C 312.390 467.378,310.296 482.826,304.284 494.275 C 297.276 507.620,286.402 514.533,272.707 514.351 C 260.175 514.185,246.043 504.845,239.796 492.600 C 233.594 480.443,232.072 465.862,236.079 457.000 C 241.662 444.650,254.538 438.549,267.500 442.110 M944.584 469.907 C 943.065 471.586,941.787 475.507,939.584 485.250 C 939.190 486.992,938.307 488.000,937.175 488.000 C 933.499 488.000,923.174 492.186,920.912 494.593 C 917.704 498.009,918.824 499.486,928.805 505.000 L 936.949 509.500 936.975 519.628 C 937.012 534.735,939.861 535.765,950.862 524.649 L 957.223 518.221 965.278 521.161 C 979.712 526.428,982.061 523.663,975.190 509.494 L 971.308 501.489 976.180 495.065 C 985.174 483.206,984.418 481.538,970.371 482.255 L 960.029 482.783 957.835 479.142 C 953.885 472.587,949.865 468.000,948.071 468.000 C 947.102 468.000,945.533 468.858,944.584 469.907 M951.314 473.250 C 952.643 475.038,954.922 478.576,956.380 481.113 L 959.030 485.726 963.265 484.907 C 968.640 483.867,980.001 483.760,979.996 484.750 C 979.990 485.983,975.969 492.201,972.215 496.782 L 968.702 501.070 972.851 509.801 C 978.049 520.740,978.182 522.483,973.750 521.608 C 971.962 521.255,967.435 519.799,963.690 518.373 L 956.879 515.779 949.455 522.978 C 945.372 526.937,941.461 529.988,940.765 529.757 C 939.875 529.462,939.416 526.175,939.216 518.666 L 938.932 507.995 932.716 504.871 C 929.297 503.152,925.237 500.855,923.693 499.765 C 921.025 497.881,920.971 497.690,922.588 495.902 C 923.524 494.868,927.487 493.065,931.395 491.894 C 935.303 490.724,939.143 489.453,939.929 489.069 C 940.722 488.682,941.977 485.281,942.747 481.436 C 944.127 474.541,946.202 470.000,947.972 470.000 C 948.481 470.000,949.985 471.462,951.314 473.250 M746.669 485.750 C 745.770 487.813,744.609 490.681,744.089 492.125 C 743.378 494.102,742.210 494.926,739.357 495.461 C 735.183 496.244,729.991 498.642,730.015 499.776 C 730.049 501.363,731.834 503.150,736.065 505.830 L 740.500 508.639 740.500 515.569 C 740.500 521.799,740.708 522.530,742.554 522.794 C 743.728 522.962,746.485 521.602,748.989 519.621 L 753.370 516.154 758.152 518.577 C 766.625 522.871,768.270 521.388,765.618 511.849 L 763.955 505.870 767.478 501.755 C 773.255 495.006,772.140 493.000,762.611 493.000 C 757.474 493.000,757.355 492.931,755.619 488.998 C 752.151 481.138,749.154 480.050,746.669 485.750 M753.627 489.498 L 756.500 494.995 762.750 494.998 C 766.404 494.999,769.000 495.431,769.000 496.039 C 769.000 496.610,767.273 498.928,765.163 501.191 L 761.326 505.304 763.279 511.702 C 764.354 515.222,765.009 518.325,764.735 518.598 C 764.462 518.871,761.768 517.884,758.749 516.403 L 753.259 513.710 748.486 517.355 C 745.860 519.360,743.300 521.000,742.796 521.000 C 742.270 521.000,742.141 518.121,742.493 514.250 L 743.106 507.500 737.468 504.136 C 734.366 502.285,732.205 500.396,732.664 499.937 C 733.124 499.478,736.156 498.412,739.401 497.567 C 742.647 496.722,745.370 495.911,745.453 495.765 C 745.536 495.619,746.391 492.913,747.353 489.750 C 748.315 486.587,749.474 484.000,749.929 484.000 C 750.383 484.000,752.047 486.474,753.627 489.498 M452.990 493.250 C 447.488 496.995,445.637 500.340,445.191 507.343 C 444.870 512.383,445.224 514.518,446.935 517.872 C 454.560 532.819,474.033 526.009,473.984 508.412 C 473.946 495.054,462.493 486.782,452.990 493.250 M579.379 492.384 C 571.077 496.137,567.352 508.889,571.935 517.872 C 577.421 528.626,591.468 528.706,597.148 518.016 C 599.748 513.124,599.642 503.902,596.932 499.136 C 592.996 492.214,585.843 489.463,579.379 492.384 M190.773 505.250 C 208.698 552.636,214.730 602.740,209.887 664.000 C 208.959 675.732,203.552 717.917,202.368 722.660 C 201.984 724.197,200.194 725.406,196.164 726.850 C 185.229 730.767,186.355 731.731,185.568 717.776 C 184.476 698.420,182.154 677.981,180.473 672.920 C 177.139 662.882,167.753 655.857,157.676 655.857 C 147.835 655.857,140.659 660.455,136.383 669.500 C 133.206 676.221,133.305 685.202,136.866 713.500 C 138.389 725.600,139.530 735.650,139.400 735.834 C 139.128 736.221,121.537 734.164,118.375 733.376 C 115.850 732.746,115.131 731.291,109.303 715.000 C 80.715 635.100,75.861 568.842,94.058 506.896 L 95.998 500.292 101.249 501.718 C 108.864 503.787,140.653 502.868,156.000 500.136 C 166.707 498.230,178.504 494.961,182.000 492.932 C 182.825 492.453,184.009 492.047,184.631 492.030 C 185.253 492.014,188.017 497.962,190.773 505.250 M39.000 498.000 C 34.896 502.104,37.655 509.000,43.402 509.000 C 47.434 509.000,50.000 506.404,50.000 502.326 C 50.000 496.565,43.135 493.865,39.000 498.000 M46.800 499.200 C 47.460 499.860,48.000 501.345,48.000 502.500 C 48.000 507.215,41.795 508.839,39.876 504.626 C 37.735 499.929,43.226 495.626,46.800 499.200 M419.821 513.373 C 401.784 518.315,396.236 540.528,409.856 553.269 C 415.713 558.747,420.278 560.343,428.578 559.814 C 436.033 559.339,441.608 556.056,446.303 549.377 C 449.691 544.557,450.872 535.901,449.057 529.193 C 445.974 517.796,431.756 510.102,419.821 513.373 M431.500 515.088 C 448.428 519.648,453.741 541.240,440.743 552.653 C 436.013 556.805,431.061 558.317,423.889 557.798 C 402.956 556.284,396.813 526.967,415.398 517.282 C 421.380 514.165,425.823 513.559,431.500 515.088 M606.500 515.900 C 598.011 519.839,593.000 527.912,593.000 537.652 C 593.000 554.976,610.681 566.018,626.571 558.619 C 644.568 550.239,644.568 524.761,626.571 516.381 C 620.279 513.451,612.195 513.257,606.500 515.900 M624.782 517.553 C 646.415 526.590,639.747 559.086,616.282 558.978 C 599.452 558.901,589.484 541.150,597.966 526.361 C 603.085 517.437,615.076 513.498,624.782 517.553 M846.080 522.750 C 840.216 527.543,843.863 537.400,851.500 537.400 C 858.890 537.400,862.700 528.610,857.545 523.455 C 854.590 520.499,849.237 520.170,846.080 522.750 M293.500 525.668 C 290.750 527.085,288.337 528.390,288.137 528.568 C 287.446 529.185,296.856 542.534,303.317 550.103 C 306.887 554.284,313.563 560.730,318.154 564.427 C 331.192 574.928,353.810 585.000,364.354 585.000 L 367.081 585.000 366.790 576.760 L 366.500 568.520 361.763 567.845 C 351.060 566.319,338.539 560.629,328.070 552.532 C 321.272 547.275,309.764 535.354,304.626 528.250 C 302.538 525.362,300.305 523.021,299.665 523.047 C 299.024 523.072,296.250 524.252,293.500 525.668 M493.455 525.455 C 490.534 528.375,490.433 530.173,492.887 535.500 C 495.592 541.373,501.505 546.874,508.763 550.270 C 521.188 556.084,537.000 553.681,546.393 544.552 C 557.222 534.027,557.773 523.000,547.469 523.000 C 543.746 523.000,542.235 524.167,538.626 529.829 C 535.355 534.961,529.596 537.956,523.000 537.956 C 517.427 537.956,510.861 535.077,508.376 531.543 C 503.354 524.401,501.794 523.000,498.866 523.000 C 497.060 523.000,494.954 523.955,493.455 525.455 M856.000 525.000 C 858.403 527.403,858.538 529.786,856.443 532.777 C 854.225 535.945,848.602 535.848,846.477 532.606 C 842.300 526.231,850.601 519.601,856.000 525.000 M304.068 530.750 C 310.374 539.167,320.571 549.491,328.064 555.047 C 336.747 561.485,349.892 567.649,358.250 569.202 L 365.000 570.456 365.000 576.856 L 365.000 583.256 360.750 582.583 C 341.633 579.557,318.903 565.581,303.741 547.529 C 297.766 540.415,290.538 530.097,291.151 529.557 C 291.429 529.314,299.129 525.215,299.630 525.044 C 299.701 525.020,301.698 527.587,304.068 530.750 M501.978 526.250 C 502.560 526.938,504.408 529.452,506.087 531.837 C 514.351 543.582,534.105 542.539,541.215 529.983 C 543.740 525.523,546.845 524.153,550.574 525.852 C 553.909 527.371,553.680 530.449,549.744 537.044 C 546.124 543.108,539.347 548.291,532.693 550.083 C 526.143 551.846,514.317 550.868,508.642 548.093 C 501.226 544.466,495.754 538.367,493.576 531.301 C 492.287 527.121,499.201 522.965,501.978 526.250 M134.951 527.302 C 117.667 532.191,105.811 551.607,108.984 569.828 C 111.167 582.366,118.783 592.727,129.784 598.126 C 133.632 600.014,136.157 600.446,143.500 600.470 C 151.202 600.496,153.322 600.115,158.196 597.830 C 165.456 594.427,171.884 587.996,175.582 580.438 C 178.226 575.035,178.488 573.554,178.494 564.000 C 178.500 554.306,178.261 553.001,175.392 547.000 C 167.796 531.118,150.774 522.827,134.951 527.302 M156.754 530.990 C 162.965 533.661,171.207 542.014,174.279 548.749 C 176.031 552.592,176.451 555.412,176.473 563.500 C 176.497 572.291,176.176 574.192,173.819 579.220 C 170.647 585.988,163.956 592.820,157.292 596.096 C 153.418 597.999,150.871 598.455,144.000 598.475 C 136.700 598.497,134.701 598.108,129.839 595.720 C 123.326 592.521,118.262 587.334,114.285 579.786 C 111.751 574.976,111.500 573.555,111.500 564.000 C 111.500 551.746,113.137 547.062,120.032 539.581 C 130.257 528.489,143.654 525.354,156.754 530.990 M135.463 537.530 C 125.993 541.036,119.122 550.557,118.264 561.364 C 117.388 572.397,121.404 581.035,130.201 587.038 C 136.911 591.617,145.979 592.355,153.863 588.964 C 174.225 580.204,175.355 548.874,155.672 538.833 C 150.395 536.141,140.874 535.527,135.463 537.530 M150.728 539.162 C 153.918 539.965,156.803 541.740,160.073 544.912 C 170.501 555.025,170.547 571.573,160.175 581.901 C 151.125 590.912,137.964 591.480,128.857 583.252 C 122.624 577.620,120.550 572.831,120.523 564.000 C 120.503 557.435,120.887 555.814,123.604 551.000 C 129.504 540.544,139.278 536.279,150.728 539.162 M676.648 555.686 C 676.291 556.042,676.000 560.277,676.000 565.098 L 676.000 573.862 684.250 579.622 C 695.501 587.478,712.099 604.413,719.904 616.000 C 723.424 621.225,726.616 625.859,726.999 626.298 C 727.382 626.737,730.471 625.443,733.863 623.422 L 740.030 619.748 737.485 615.195 C 732.850 606.902,723.621 594.849,714.500 585.177 C 701.585 571.483,678.689 553.644,676.648 555.686 M692.323 567.641 C 706.930 578.610,727.527 601.580,735.589 615.892 C 736.975 618.352,737.165 619.403,736.283 619.715 C 735.614 619.951,733.516 621.196,731.623 622.481 L 728.179 624.818 722.580 616.405 C 712.467 601.208,697.921 586.462,683.032 576.312 L 678.565 573.266 678.532 565.725 L 678.500 558.184 681.323 559.842 C 682.875 560.754,687.825 564.263,692.323 567.641 M890.530 591.550 C 905.232 595.379,916.963 608.446,918.675 622.902 C 919.168 627.063,918.977 628.072,917.600 628.600 C 913.829 630.047,910.623 642.559,912.923 646.856 C 915.578 651.818,904.081 660.811,890.783 664.174 C 883.925 665.908,880.688 666.164,871.520 665.693 C 851.162 664.648,839.608 658.452,833.899 645.517 C 828.310 632.853,833.561 610.738,844.422 601.203 C 849.369 596.859,856.262 592.997,861.776 591.479 C 868.420 589.650,883.379 589.687,890.530 591.550 M859.500 602.348 C 849.318 605.714,842.242 611.504,837.926 620.000 C 833.091 629.517,835.567 642.567,843.761 650.761 C 857.867 664.867,888.232 665.450,901.902 651.877 C 909.973 643.864,912.386 630.666,907.643 620.480 C 904.637 614.025,896.543 606.745,889.202 603.892 C 882.139 601.148,865.713 600.294,859.500 602.348 M883.500 604.359 C 893.926 607.144,901.869 613.057,905.614 620.821 C 908.164 626.107,908.631 636.060,906.580 641.431 C 899.040 661.172,864.048 666.152,845.753 650.088 C 836.253 641.747,834.964 625.489,842.992 615.283 C 850.900 605.230,868.745 600.418,883.500 604.359 M861.316 607.363 C 848.618 610.599,840.708 619.826,840.626 631.500 C 840.554 641.694,845.534 648.510,857.000 653.910 C 861.877 656.206,863.747 656.500,873.500 656.500 C 884.245 656.500,884.651 656.417,891.000 652.916 C 899.295 648.342,903.184 642.605,903.804 634.029 C 904.340 626.625,902.885 622.287,898.008 616.747 C 890.378 608.078,874.472 604.011,861.316 607.363 M885.195 610.522 C 891.583 612.738,898.445 618.981,900.550 624.492 C 903.032 630.992,902.165 638.881,898.376 644.273 C 886.344 661.391,849.224 656.962,843.511 637.726 C 839.667 624.782,848.366 612.164,863.326 608.982 C 868.943 607.788,879.443 608.527,885.195 610.522 M281.000 615.689 C 275.717 617.704,274.216 624.260,278.189 627.961 C 282.989 632.434,291.000 628.919,291.000 622.341 C 291.000 617.750,285.386 614.015,281.000 615.689 M287.800 619.200 C 289.493 620.893,289.289 624.023,287.345 626.171 C 284.139 629.713,278.000 627.738,278.000 623.165 C 278.000 619.566,279.668 618.000,283.500 618.000 C 285.205 618.000,287.140 618.540,287.800 619.200 M829.773 627.249 C 829.248 630.135,829.063 634.073,829.362 635.999 L 829.905 639.500 827.952 637.139 C 825.634 634.336,825.457 630.235,827.449 625.468 C 829.634 620.239,830.874 621.190,829.773 627.249 M939.429 625.571 C 940.293 626.436,941.000 627.786,941.000 628.571 C 941.000 630.273,942.180 630.420,943.693 628.907 C 944.483 628.117,945.369 628.127,946.893 628.943 C 951.350 631.328,948.542 643.773,942.832 646.939 C 940.389 648.293,939.755 648.225,935.332 646.132 C 928.589 642.941,923.578 638.543,924.361 636.503 C 924.705 635.606,925.777 634.953,926.743 635.051 C 930.287 635.413,930.871 634.905,932.479 630.064 C 934.494 623.995,936.534 622.677,939.429 625.571 M922.968 631.939 C 923.698 633.303,923.680 634.080,922.907 634.558 C 922.211 634.987,922.046 636.824,922.457 639.565 C 922.993 643.138,922.748 644.252,921.053 645.947 C 916.778 650.222,913.341 646.910,914.543 639.675 C 915.958 631.158,920.377 627.100,922.968 631.939 M746.863 632.705 C 742.539 633.370,733.809 639.202,730.375 643.718 C 724.158 651.894,720.215 667.608,721.341 679.722 C 722.634 693.631,728.546 696.270,737.248 686.821 C 741.696 681.992,742.712 682.401,746.578 690.573 C 749.636 697.038,755.660 702.658,760.504 703.567 C 768.818 705.126,777.597 701.919,782.126 695.667 C 792.519 681.320,788.468 657.352,773.028 641.849 C 764.527 633.312,757.922 631.004,746.863 632.705 M759.762 635.522 C 774.121 639.786,787.647 663.204,785.641 680.327 C 784.762 687.836,780.823 695.427,776.229 698.467 C 765.679 705.449,753.431 701.404,748.183 689.204 C 744.183 679.906,740.700 679.057,735.105 686.019 C 731.217 690.857,727.006 691.504,725.200 687.540 C 720.664 677.584,724.423 655.164,732.381 644.718 C 736.841 638.862,745.200 634.467,752.568 634.102 C 753.706 634.046,756.943 634.685,759.762 635.522 M219.259 643.048 C 224.973 646.833,234.568 657.001,240.069 665.101 C 252.210 682.980,258.069 708.927,255.062 731.500 C 253.830 740.749,250.614 753.827,249.261 755.086 C 248.843 755.475,246.700 756.084,244.500 756.439 L 240.500 757.084 238.124 750.792 C 233.098 737.478,224.718 722.818,218.500 716.459 C 215.200 713.084,211.279 709.463,209.786 708.412 L 207.072 706.500 208.969 692.500 C 211.261 675.596,212.868 658.238,213.112 647.750 C 213.211 643.487,213.599 640.000,213.975 640.000 C 214.350 640.000,216.728 641.372,219.259 643.048 M935.304 648.482 C 937.753 649.506,939.000 650.677,939.000 651.954 C 939.000 654.920,937.243 655.364,932.574 653.581 C 926.710 651.342,923.568 647.858,924.404 644.525 L 925.053 641.939 928.331 644.439 C 930.133 645.813,933.271 647.633,935.304 648.482 M932.278 655.817 L 936.869 657.560 935.348 660.702 C 931.197 669.272,921.712 676.702,911.211 679.609 C 905.445 681.205,904.788 681.217,903.321 679.750 C 901.575 678.004,900.395 669.546,901.360 665.700 C 901.789 663.991,903.784 662.395,908.232 660.202 C 911.680 658.502,916.277 655.288,918.449 653.060 L 922.398 649.008 925.043 651.541 C 926.497 652.935,929.753 654.859,932.278 655.817 M916.000 652.500 C 914.708 653.875,913.269 655.000,912.803 655.000 C 912.336 655.000,912.691 653.875,913.592 652.500 C 914.493 651.125,915.932 650.000,916.789 650.000 C 917.991 650.000,917.810 650.573,916.000 652.500 M92.470 667.500 C 94.519 675.750,98.566 689.787,101.463 698.693 L 106.731 714.885 103.241 719.693 C 95.404 730.490,89.701 746.288,86.551 765.931 C 85.719 771.117,84.643 775.757,84.159 776.241 C 81.502 778.898,71.505 759.977,67.234 744.206 C 64.842 735.373,64.605 732.836,64.600 716.000 C 64.594 698.611,64.760 696.959,67.363 688.500 C 70.828 677.237,78.148 663.188,83.878 656.802 C 86.285 654.118,88.365 652.052,88.499 652.211 C 88.634 652.370,90.420 659.250,92.470 667.500 M165.685 659.061 C 169.404 660.463,174.728 665.632,177.008 670.054 C 179.929 675.718,181.952 690.807,183.584 719.100 C 184.228 730.252,184.174 730.721,182.194 731.239 C 180.321 731.729,180.084 731.224,179.571 725.639 C 175.623 682.679,174.926 677.469,172.468 672.500 C 171.107 669.750,168.802 666.640,167.345 665.589 C 164.002 663.177,156.351 662.399,151.551 663.983 C 146.948 665.502,142.324 671.633,141.482 677.333 C 140.978 680.744,143.578 707.947,146.635 731.250 C 147.236 735.837,147.170 736.000,144.708 736.000 C 141.595 736.000,141.782 736.782,138.506 710.082 C 135.784 687.907,135.428 678.601,137.072 672.679 C 138.330 668.151,144.281 661.229,148.500 659.388 C 152.152 657.794,161.835 657.610,165.685 659.061 M844.456 660.928 C 844.771 661.439,843.724 663.801,842.128 666.178 C 838.213 672.009,836.083 678.717,835.334 687.573 C 834.583 696.459,832.940 698.577,827.482 697.691 C 825.522 697.373,822.313 696.121,820.352 694.909 C 817.137 692.922,816.840 692.371,817.336 689.317 C 818.312 683.302,822.761 675.133,828.184 669.399 C 835.224 661.955,842.689 658.069,844.456 660.928 M857.910 666.085 C 869.490 669.077,888.144 668.365,898.000 664.555 C 899.247 664.073,899.442 664.916,899.154 669.548 C 898.781 675.559,900.292 680.551,902.909 681.951 C 904.312 682.702,904.446 684.012,903.852 691.163 C 903.471 695.748,903.123 700.506,903.080 701.736 C 902.979 704.575,897.309 708.416,889.967 710.620 C 882.889 712.745,867.486 712.752,859.219 710.635 C 850.973 708.522,845.759 705.759,840.959 700.959 C 837.449 697.449,837.002 696.461,837.017 692.250 C 837.067 678.687,844.153 661.650,848.952 663.556 C 849.803 663.894,853.834 665.032,857.910 666.085 M165.701 666.960 C 171.805 670.681,172.891 674.806,175.456 704.000 C 176.302 713.625,177.266 723.818,177.599 726.650 C 178.123 731.097,177.953 731.878,176.353 732.372 C 173.871 733.138,149.877 736.213,149.492 735.814 C 148.784 735.081,143.795 689.849,143.667 683.000 C 143.443 671.074,148.276 665.007,158.000 665.007 C 160.703 665.007,163.778 665.787,165.701 666.960 M444.073 672.023 C 441.638 672.536,435.563 674.185,430.573 675.688 C 417.691 679.567,403.759 679.532,393.000 675.595 C 388.875 674.085,384.700 672.603,383.722 672.301 C 382.066 671.790,381.963 672.740,382.222 686.122 L 382.500 700.492 388.500 702.875 C 412.546 712.424,454.426 717.806,511.598 718.695 C 561.363 719.468,597.183 716.909,628.500 710.342 C 641.065 707.708,658.612 702.498,660.750 700.767 C 661.641 700.045,662.000 695.773,662.000 685.878 C 662.000 678.245,661.829 672.000,661.621 672.000 C 661.412 672.000,658.825 673.105,655.871 674.455 C 643.810 679.969,628.848 680.090,612.142 674.811 C 604.362 672.352,600.665 671.749,593.000 671.686 C 581.199 671.589,575.567 673.189,560.112 681.025 C 543.970 689.209,538.739 690.475,521.000 690.489 C 504.049 690.502,497.341 688.821,484.263 681.283 C 469.176 672.588,455.901 669.529,444.073 672.023 M467.846 675.875 C 471.159 676.906,477.561 679.879,482.073 682.481 C 495.470 690.209,502.330 692.186,517.689 692.747 C 535.410 693.394,542.271 691.840,561.000 682.941 C 568.975 679.152,577.950 675.534,580.944 674.901 C 589.381 673.119,603.983 674.332,613.500 677.606 C 620.526 680.023,623.022 680.363,634.000 680.394 C 645.098 680.426,647.257 680.140,653.250 677.839 L 660.000 675.248 660.000 682.985 C 660.000 687.240,659.723 692.744,659.384 695.217 C 658.771 699.687,658.734 699.724,652.634 701.823 C 606.347 717.750,506.337 721.852,432.000 710.871 C 415.388 708.418,408.379 706.886,395.359 702.865 C 385.235 699.739,385.217 699.727,384.620 696.117 C 383.824 691.306,383.831 675.000,384.629 675.000 C 384.975 675.000,388.462 676.208,392.379 677.684 C 398.696 680.065,400.855 680.363,411.500 680.325 C 422.007 680.287,424.744 679.898,433.500 677.196 C 445.869 673.379,458.292 672.901,467.846 675.875 M852.063 675.750 C 849.178 678.089,847.050 689.620,848.796 693.452 C 850.309 696.772,852.550 697.572,865.762 699.509 C 878.594 701.391,881.361 700.773,883.548 695.538 C 885.066 691.907,885.501 682.297,884.235 680.400 C 882.828 678.293,879.437 677.199,869.381 675.604 C 856.612 673.580,854.720 673.596,852.063 675.750 M868.720 677.600 C 883.564 679.804,883.365 679.654,882.754 688.190 C 882.116 697.107,880.939 698.372,873.504 698.129 C 866.107 697.887,853.155 695.374,851.278 693.816 C 849.436 692.287,850.323 681.749,852.589 678.250 C 854.326 675.569,854.882 675.546,868.720 677.600 M855.244 681.206 C 854.591 681.993,853.932 684.154,853.778 686.009 C 853.433 690.187,856.238 691.963,863.215 691.985 C 868.328 692.001,870.000 690.449,870.000 685.688 C 870.000 682.304,868.248 681.164,861.900 680.418 C 857.769 679.933,856.141 680.125,855.244 681.206 M867.335 683.946 C 867.794 684.399,868.019 685.834,867.835 687.135 C 867.530 689.285,867.023 689.496,862.258 689.458 C 856.101 689.408,854.630 688.323,855.581 684.534 C 856.253 681.856,856.415 681.797,861.386 682.451 C 864.199 682.821,866.876 683.494,867.335 683.946 M874.544 684.344 C 870.635 687.203,875.097 693.204,879.358 690.820 C 882.304 689.171,880.830 683.000,877.491 683.000 C 876.881 683.000,875.555 683.605,874.544 684.344 M878.823 687.333 C 879.041 688.457,878.471 689.000,877.073 689.000 C 875.933 689.000,875.000 688.400,875.000 687.667 C 875.000 684.604,878.239 684.321,878.823 687.333 M165.655 693.829 C 161.854 698.028,165.543 703.441,170.626 701.124 C 173.709 699.720,173.790 695.667,170.777 693.557 C 167.969 691.590,167.667 691.606,165.655 693.829 M170.803 697.377 C 170.610 698.727,169.776 699.500,168.514 699.500 C 166.226 699.500,165.151 696.143,167.061 694.962 C 169.062 693.726,171.133 695.062,170.803 697.377 M824.287 699.009 C 828.890 701.045,829.629 702.198,828.393 705.418 C 827.486 707.782,825.430 707.335,823.012 704.250 L 820.856 701.500 821.395 704.711 C 822.085 708.818,820.248 710.025,817.838 707.048 C 816.548 705.455,816.000 703.126,816.000 699.234 C 816.000 693.974,816.092 693.773,817.787 695.307 C 818.769 696.196,821.694 697.862,824.287 699.009 M853.314 710.938 C 867.797 715.758,885.577 715.443,896.250 710.178 C 899.413 708.617,902.000 707.776,902.000 708.308 C 902.000 708.839,901.044 715.268,899.876 722.594 L 897.752 735.915 893.322 736.579 C 888.596 737.288,880.506 736.523,876.461 734.985 C 874.262 734.149,874.000 733.469,874.000 728.604 C 874.000 723.367,874.115 723.134,877.000 722.500 C 881.355 721.543,880.697 719.865,876.246 720.577 C 871.197 721.384,860.715 719.416,854.098 716.418 C 851.126 715.072,848.488 714.178,848.235 714.432 C 847.819 714.848,853.301 718.587,855.337 719.275 C 855.797 719.431,855.850 721.282,855.455 723.390 L 854.736 727.221 849.118 726.775 C 846.028 726.530,841.813 725.603,839.750 724.715 L 836.000 723.102 836.000 710.951 L 836.000 698.799 841.486 703.814 C 845.373 707.366,848.822 709.443,853.314 710.938 M218.232 718.835 C 222.721 723.804,229.218 734.730,232.529 742.879 C 233.947 746.370,234.971 749.357,234.804 749.518 C 234.472 749.837,206.051 756.066,202.000 756.708 C 199.952 757.032,199.011 756.327,196.792 752.808 L 194.085 748.513 196.262 747.707 C 197.460 747.264,199.916 745.776,201.720 744.400 C 205.591 741.447,205.896 738.571,203.012 732.216 C 201.131 728.073,201.127 727.873,202.888 726.112 C 204.038 724.962,204.968 722.003,205.412 718.078 C 206.474 708.690,206.619 708.530,210.965 711.972 C 213.028 713.606,216.298 716.695,218.232 718.835 M652.500 718.806 C 637.039 724.088,612.348 728.527,581.000 731.662 C 558.785 733.883,490.230 734.201,468.000 732.186 C 435.815 729.268,408.350 724.642,392.509 719.472 C 388.345 718.112,384.440 717.000,383.832 717.000 C 383.056 717.000,382.927 719.615,383.400 725.750 C 384.890 745.074,387.395 752.449,395.093 760.172 C 410.417 775.548,444.706 781.142,523.500 781.119 C 624.034 781.090,652.208 772.982,658.481 742.276 C 660.288 733.434,661.479 717.383,660.369 716.839 C 659.891 716.606,656.350 717.490,652.500 718.806 M110.990 725.626 C 113.263 731.649,114.829 734.404,116.179 734.757 C 117.483 735.098,117.904 735.790,117.471 736.881 C 116.256 739.947,115.757 744.897,116.404 747.474 C 117.099 750.243,120.483 752.193,127.750 754.013 C 130.088 754.598,132.000 755.223,132.000 755.400 C 132.000 755.578,130.649 758.702,128.999 762.343 C 126.856 767.067,125.353 769.111,123.749 769.481 C 98.231 775.366,91.127 777.034,89.250 777.579 C 86.580 778.355,86.617 778.913,88.548 767.000 C 91.819 746.817,95.983 734.402,103.128 723.534 C 105.491 719.940,107.494 717.000,107.579 717.000 C 107.665 717.000,109.200 720.882,110.990 725.626 M658.407 725.750 C 656.173 754.855,649.179 764.354,624.822 771.361 C 608.010 776.198,587.737 777.902,538.000 778.661 C 478.806 779.563,437.856 776.722,417.500 770.299 C 410.324 768.035,401.654 763.513,397.505 759.870 C 390.034 753.311,386.052 741.981,386.017 727.183 C 386.002 720.675,386.194 719.924,387.750 720.392 C 412.899 727.968,439.714 732.346,477.000 734.963 C 495.751 736.279,546.037 736.287,566.517 734.978 C 597.937 732.970,634.920 727.098,650.500 721.644 C 654.350 720.297,657.821 719.150,658.212 719.097 C 658.604 719.044,658.692 722.038,658.407 725.750 M872.000 732.548 C 872.000 739.226,871.615 742.075,870.598 742.919 C 869.827 743.558,868.908 745.229,868.556 746.632 C 868.109 748.412,867.446 749.001,866.358 748.584 C 865.501 748.255,861.744 747.481,858.009 746.864 L 851.219 745.743 852.958 742.622 C 853.914 740.905,855.472 735.195,856.420 729.933 L 858.143 720.365 865.072 721.853 L 872.000 723.340 872.000 732.548 M848.162 728.748 C 851.373 729.040,854.000 729.604,854.000 730.002 C 854.000 730.401,853.550 733.151,852.999 736.114 C 851.586 743.721,849.678 745.025,840.139 744.900 C 830.831 744.779,827.618 743.968,827.167 741.627 C 826.578 738.572,829.086 734.110,832.618 731.927 C 834.968 730.475,836.000 729.091,836.000 727.393 C 836.000 724.971,836.029 724.964,839.162 726.584 C 840.901 727.483,844.951 728.457,848.162 728.748 M200.953 732.627 C 203.456 738.286,203.516 740.231,201.250 742.245 C 191.353 751.042,136.844 756.602,122.750 750.252 C 118.663 748.411,118.000 747.706,118.000 745.205 C 118.000 743.607,118.508 740.840,119.130 739.057 C 120.112 736.239,120.602 735.896,122.880 736.423 C 129.011 737.842,150.050 738.206,160.000 737.066 C 172.796 735.600,186.781 732.669,193.500 730.046 C 196.250 728.972,198.591 728.073,198.703 728.047 C 198.815 728.021,199.827 730.082,200.953 732.627 M889.173 738.495 C 896.554 738.491,896.865 738.586,897.377 740.995 C 897.669 742.373,898.470 745.869,899.155 748.764 C 900.248 753.383,900.200 754.229,898.762 755.667 C 897.243 757.185,896.125 757.028,883.534 753.528 C 868.745 749.416,868.742 749.413,872.604 743.285 C 873.372 742.067,874.000 740.104,874.000 738.924 C 874.000 736.957,874.314 736.850,877.750 737.639 C 879.813 738.112,884.953 738.498,889.173 738.495 M862.000 749.877 C 874.396 753.089,888.120 756.965,894.741 759.123 C 899.807 760.774,901.826 762.121,905.460 766.276 C 907.923 769.092,909.815 771.518,909.665 771.668 C 909.515 771.819,901.766 769.951,892.446 767.517 C 883.126 765.084,864.475 760.573,851.000 757.494 C 837.525 754.415,826.050 751.766,825.500 751.607 C 824.950 751.449,826.300 750.334,828.500 749.128 C 832.128 747.140,833.523 746.983,843.500 747.435 C 849.550 747.709,857.875 748.808,862.000 749.877 M197.903 758.420 C 202.173 765.353,203.016 767.372,201.923 768.048 C 199.880 769.310,188.053 772.386,187.473 771.806 C 186.743 771.076,182.046 754.780,182.021 752.892 C 182.007 751.820,183.416 750.946,186.250 750.269 C 188.588 749.710,190.950 749.342,191.500 749.450 C 192.050 749.558,194.931 753.594,197.903 758.420 M182.279 762.436 C 183.836 767.819,184.973 772.345,184.805 772.494 C 184.149 773.077,161.999 775.955,153.103 776.614 L 143.707 777.309 144.392 770.905 C 144.769 767.382,145.343 762.362,145.667 759.750 L 146.258 755.000 153.379 754.925 C 157.295 754.883,164.325 754.270,169.000 753.563 C 173.675 752.855,177.938 752.360,178.474 752.463 C 179.009 752.565,180.722 757.053,182.279 762.436 M143.655 759.250 C 143.341 761.587,142.781 766.597,142.411 770.382 L 141.739 777.265 135.343 776.668 C 125.447 775.743,125.540 775.958,130.199 764.750 L 134.252 755.000 139.239 755.000 L 144.227 755.000 143.655 759.250 M304.347 762.930 C 294.719 767.301,299.364 775.000,311.629 775.000 C 317.242 775.000,323.954 772.286,324.967 769.607 C 327.565 762.735,314.263 758.427,304.347 762.930 M319.851 764.098 C 322.187 764.912,323.000 765.807,323.000 767.563 C 323.000 770.625,320.196 772.081,313.052 772.729 C 304.418 773.512,298.177 769.587,302.436 766.053 C 305.882 763.193,314.485 762.227,319.851 764.098 M204.000 771.345 C 204.000 775.081,196.220 778.142,179.428 781.012 C 149.690 786.096,126.000 785.236,126.000 779.071 C 126.000 777.395,126.418 777.310,130.250 778.207 C 140.065 780.502,175.730 777.318,194.000 772.516 C 198.675 771.287,202.838 770.218,203.250 770.141 C 203.662 770.063,204.000 770.605,204.000 771.345 M751.542 773.671 C 744.628 775.634,743.151 780.556,748.323 784.401 C 752.370 787.409,763.642 787.404,767.677 784.392 C 773.838 779.792,769.521 774.096,759.403 773.477 C 756.156 773.278,752.619 773.365,751.542 773.671 M765.000 776.752 C 769.917 779.208,769.714 782.085,764.500 783.830 C 760.226 785.260,752.458 784.851,749.029 783.015 C 745.885 781.333,746.485 778.127,750.250 776.491 C 754.712 774.552,760.812 774.659,765.000 776.752 M450.226 810.205 L 450.500 827.384 457.472 828.670 C 461.307 829.377,464.724 829.628,465.066 829.228 C 465.762 828.414,463.785 795.405,463.000 794.717 C 462.725 794.477,459.677 793.998,456.226 793.653 L 449.953 793.026 450.226 810.205 M582.461 795.250 C 581.831 796.903,579.121 829.391,579.573 829.878 C 579.765 830.086,583.540 829.694,587.962 829.006 L 596.000 827.756 596.000 810.878 L 596.000 794.000 589.469 794.000 C 585.164 794.000,582.775 794.426,582.461 795.250 M462.407 811.111 C 462.794 819.423,462.913 826.420,462.672 826.661 C 462.431 826.902,459.931 826.794,457.117 826.421 L 452.000 825.742 452.000 810.871 L 452.000 796.000 456.852 796.000 L 461.703 796.000 462.407 811.111 M594.000 810.889 L 594.000 825.777 590.250 826.457 C 588.188 826.831,585.416 827.397,584.092 827.716 L 581.684 828.296 582.360 818.398 C 582.732 812.954,583.315 805.688,583.656 802.250 L 584.276 796.000 589.138 796.000 L 594.000 796.000 594.000 810.889 M253.544 798.589 C 241.849 802.872,242.438 810.494,254.661 813.035 C 264.591 815.100,277.807 811.713,280.185 806.493 C 281.727 803.110,279.284 799.701,274.234 798.188 C 268.926 796.598,258.427 796.802,253.544 798.589 M274.546 800.455 C 284.548 804.634,275.361 811.557,260.000 811.416 C 245.576 811.284,242.345 803.827,255.120 800.153 C 260.284 798.667,270.654 798.829,274.546 800.455 M795.251 804.452 C 772.999 809.516,766.575 825.280,781.322 838.632 C 787.003 843.776,799.138 849.937,808.500 852.431 C 817.894 854.934,832.224 855.475,840.780 853.649 C 864.017 848.689,870.648 833.268,855.773 818.779 C 850.449 813.593,839.999 808.107,830.500 805.510 C 822.132 803.223,803.154 802.653,795.251 804.452 M829.500 807.453 C 850.010 812.958,863.938 825.901,861.465 837.158 C 857.642 854.566,817.699 858.147,791.348 843.444 C 784.318 839.522,776.456 831.355,775.494 826.974 C 773.341 817.171,782.559 808.799,799.000 805.626 C 803.874 804.685,823.587 805.866,829.500 807.453 M798.270 809.985 C 787.855 812.210,780.000 818.205,780.000 823.927 C 780.000 836.893,812.793 850.361,836.378 847.080 C 849.988 845.187,856.595 840.084,855.709 832.152 C 854.803 824.039,843.682 815.623,828.500 811.561 C 821.271 809.627,804.128 808.733,798.270 809.985 M822.619 812.537 C 836.212 814.889,849.195 821.608,852.501 828.002 C 857.879 838.402,847.730 845.575,828.000 845.319 C 808.421 845.065,786.848 836.291,783.008 827.020 C 781.234 822.737,783.071 818.894,788.309 815.932 C 796.787 811.137,808.076 810.020,822.619 812.537 M106.075 813.029 C 78.292 818.845,54.674 838.846,56.247 855.224 C 56.832 861.304,59.299 864.826,65.020 867.750 C 77.327 874.038,104.579 867.212,123.030 853.219 C 146.289 835.579,143.348 813.439,117.605 812.392 C 113.697 812.233,108.509 812.520,106.075 813.029 M128.747 816.697 C 134.220 819.420,136.513 823.188,136.431 829.326 C 136.341 836.092,134.124 840.132,126.391 847.624 C 114.913 858.745,92.425 868.029,77.090 867.978 C 51.768 867.894,51.788 844.261,77.125 827.417 C 94.719 815.721,117.341 811.023,128.747 816.697 M105.500 820.045 C 75.392 826.259,51.462 853.348,68.808 861.579 C 71.602 862.905,74.234 863.151,81.420 862.760 C 107.389 861.343,137.932 837.952,130.919 824.849 C 128.315 819.983,116.562 817.761,105.500 820.045 M918.655 820.829 C 916.307 823.423,916.598 825.539,919.631 827.924 C 925.338 832.413,934.914 832.963,938.495 829.006 C 940.168 827.157,940.171 826.910,938.554 824.442 C 936.334 821.054,931.289 819.000,925.187 819.000 C 921.732 819.000,919.827 819.533,918.655 820.829 M124.925 822.752 C 126.809 823.713,128.785 825.214,129.317 826.087 C 133.137 832.356,121.815 845.588,106.000 853.335 C 94.781 858.830,86.924 861.000,78.240 861.000 C 65.232 861.000,61.409 854.764,68.165 844.564 C 78.568 828.860,111.842 816.073,124.925 822.752 M932.872 822.105 C 936.627 823.414,938.771 826.629,937.043 828.357 C 935.428 829.972,927.054 829.735,923.592 827.977 C 919.639 825.969,918.011 823.255,920.000 821.987 C 922.035 820.689,928.994 820.753,932.872 822.105 M431.333 842.524 C 412.341 847.642,398.000 858.821,398.000 868.507 C 398.000 877.673,410.298 881.597,436.344 880.739 C 453.844 880.163,460.305 878.580,465.834 873.514 C 469.460 870.192,469.503 870.059,469.814 861.328 C 469.986 856.472,469.743 850.711,469.274 848.523 C 468.473 844.793,468.083 844.441,462.960 842.835 C 456.161 840.702,438.728 840.531,431.333 842.524 M587.000 841.692 C 579.800 842.900,578.067 844.038,576.902 848.321 C 575.051 855.121,575.223 867.977,577.213 871.620 C 580.987 878.530,593.964 881.503,617.062 880.750 C 633.959 880.199,639.939 878.788,644.436 874.292 C 653.712 865.015,636.383 847.368,613.163 842.447 C 606.969 841.134,592.766 840.724,587.000 841.692 M459.701 844.032 C 467.180 845.641,467.143 845.579,467.743 857.330 L 468.283 867.917 464.839 871.361 C 459.860 876.340,453.150 878.078,436.419 878.722 C 403.177 880.002,391.789 872.115,406.148 857.757 C 411.556 852.348,422.145 846.887,431.720 844.567 C 438.672 842.883,453.077 842.607,459.701 844.032 M612.500 844.499 C 622.245 846.538,634.730 852.898,639.814 858.414 C 652.066 871.706,642.569 879.012,613.066 878.992 C 591.261 878.978,580.567 875.767,578.202 868.524 C 576.665 863.816,578.108 848.464,580.293 846.278 C 583.486 843.086,601.095 842.113,612.500 844.499 M195.500 848.155 C 193.296 849.360,191.000 851.930,191.000 853.191 C 191.000 855.461,195.250 858.000,199.050 858.000 C 208.000 858.000,213.245 851.342,206.948 847.972 C 204.537 846.682,198.002 846.786,195.500 848.155 M207.095 850.615 C 208.244 851.999,208.103 852.498,206.107 854.115 C 203.144 856.514,195.806 856.677,193.905 854.385 C 192.756 853.001,192.897 852.502,194.893 850.885 C 197.856 848.486,205.194 848.323,207.095 850.615 M900.803 896.336 C 891.211 899.048,884.967 905.503,885.022 912.651 C 885.195 935.096,941.126 959.035,967.193 947.822 C 981.833 941.524,981.862 925.733,967.257 913.030 C 961.714 908.210,945.143 899.833,936.500 897.482 C 928.370 895.271,906.995 894.585,900.803 896.336 M930.162 898.409 C 944.370 901.137,957.789 907.408,966.849 915.554 C 972.974 921.061,976.000 926.985,976.000 933.471 C 976.000 937.777,975.580 938.710,972.181 941.942 C 961.563 952.043,936.908 950.792,912.500 938.912 C 897.580 931.650,887.029 920.716,887.013 912.500 C 886.990 900.258,906.541 893.874,930.162 898.409 M270.500 900.660 C 259.872 903.515,257.215 910.474,265.182 914.594 C 269.637 916.898,280.936 916.185,284.718 913.361 C 288.453 910.572,288.582 905.524,284.986 902.839 C 282.430 900.931,274.136 899.683,270.500 900.660 M904.500 901.649 C 897.179 903.655,893.000 907.881,893.000 913.279 C 893.000 916.791,898.180 923.977,903.788 928.247 C 910.337 933.232,924.123 939.602,933.626 942.032 C 938.591 943.302,944.644 944.000,950.692 944.000 C 967.997 944.000,974.893 938.279,970.220 927.799 C 966.224 918.840,954.368 910.376,938.311 905.021 C 930.093 902.280,926.714 901.696,917.500 901.425 C 911.450 901.247,905.600 901.348,904.500 901.649 M283.746 904.569 C 289.341 908.235,283.056 914.009,273.500 913.984 C 267.057 913.967,263.589 912.221,263.190 908.794 C 262.869 906.038,264.419 904.683,269.942 902.897 C 273.423 901.771,280.848 902.670,283.746 904.569 M934.973 905.994 C 957.045 912.304,974.216 927.916,968.567 936.538 C 965.968 940.504,961.226 942.001,951.282 941.993 C 939.811 941.984,927.906 939.099,916.500 933.564 C 895.061 923.160,888.554 909.622,902.500 904.438 C 908.094 902.358,925.107 903.174,934.973 905.994 M124.500 910.402 C 107.557 915.775,99.174 928.112,106.528 936.851 C 110.536 941.614,116.383 943.322,126.954 942.817 C 135.047 942.430,136.758 941.981,143.655 938.443 C 152.575 933.865,156.902 929.152,157.709 923.130 C 158.214 919.367,157.934 918.699,154.357 915.122 C 152.144 912.909,148.733 910.742,146.477 910.115 C 141.231 908.659,129.515 908.812,124.500 910.402 M149.500 913.587 C 164.589 921.443,149.888 939.627,127.500 940.799 C 117.974 941.298,112.217 939.944,108.634 936.361 C 101.309 929.036,109.529 916.765,124.639 912.467 C 131.808 910.427,144.533 911.001,149.500 913.587 M122.500 918.496 C 116.093 921.111,111.000 925.770,111.000 929.016 C 111.000 931.546,114.196 934.760,117.548 935.601 C 122.291 936.792,134.282 935.399,139.773 933.019 C 145.719 930.442,150.252 925.753,149.801 922.646 C 149.636 921.504,147.971 919.541,146.102 918.284 C 141.250 915.022,130.783 915.116,122.500 918.496 M144.434 919.152 C 150.261 921.807,148.516 926.617,140.256 930.674 C 135.204 933.154,133.373 933.500,125.288 933.500 C 118.028 933.500,115.723 933.147,114.408 931.835 C 110.776 928.207,115.327 922.795,124.882 919.381 C 129.418 917.760,141.079 917.623,144.434 919.152 M727.962 924.250 C 724.562 925.965,723.426 927.143,723.188 929.201 C 722.702 933.417,724.714 935.980,730.644 938.695 C 747.821 946.559,768.078 938.299,756.514 928.147 C 749.558 922.039,736.013 920.190,727.962 924.250 M747.179 925.630 C 756.808 928.332,760.884 934.064,755.626 937.509 C 747.663 942.727,726.194 938.251,725.173 931.161 C 724.274 924.911,735.004 922.214,747.179 925.630 M492.081 950.530 C 481.391 953.520,475.000 959.401,475.000 966.248 C 475.000 969.793,475.602 970.919,479.482 974.637 C 497.000 991.422,544.355 982.486,539.540 963.304 C 538.550 959.359,532.837 954.466,526.258 951.929 C 518.688 949.009,500.219 948.253,492.081 950.530 M524.765 953.504 C 531.867 955.945,536.932 960.501,537.650 965.095 C 539.254 975.360,518.938 983.962,499.897 981.080 C 473.052 977.017,468.811 959.366,493.000 952.376 C 499.414 950.523,518.010 951.183,524.765 953.504 M496.344 955.975 C 490.907 957.137,484.409 960.491,483.623 962.539 C 482.291 966.012,483.035 968.888,485.750 970.757 C 491.456 974.686,495.189 975.500,507.500 975.500 C 520.480 975.500,525.164 974.431,529.403 970.502 C 534.376 965.893,531.776 960.623,522.972 957.463 C 517.700 955.571,502.264 954.709,496.344 955.975 M517.083 958.016 C 525.390 959.591,529.500 962.101,529.500 965.598 C 529.500 968.080,528.777 968.861,524.500 971.000 C 520.000 973.250,518.300 973.500,507.500 973.500 C 496.700 973.500,495.000 973.250,490.500 971.000 C 486.198 968.849,485.500 968.089,485.500 965.556 C 485.500 963.309,486.247 962.176,488.653 960.770 C 494.583 957.308,507.003 956.104,517.083 958.016 M326.209 963.024 C 313.497 965.883,318.966 978.468,332.014 976.382 C 337.927 975.436,340.460 972.746,340.118 967.773 C 339.873 964.201,332.369 961.639,326.209 963.024 M333.582 965.000 C 334.362 965.000,335.910 965.910,337.023 967.023 C 341.384 971.384,333.903 976.128,326.014 974.004 C 321.606 972.817,320.065 970.719,321.687 968.114 C 322.850 966.246,328.875 963.901,330.832 964.555 C 331.564 964.800,332.802 965.000,333.582 965.000 M598.500 971.577 C 597.950 971.713,596.294 972.090,594.820 972.414 C 591.086 973.235,589.000 975.626,589.000 979.086 C 589.000 981.334,589.768 982.498,592.250 984.011 C 599.003 988.129,610.000 985.129,610.000 979.170 C 610.000 977.597,609.133 975.525,608.073 974.566 C 606.190 972.862,600.491 971.082,598.500 971.577 M605.777 975.557 C 611.048 979.249,606.259 984.627,598.481 983.751 C 596.017 983.473,593.326 982.685,592.501 982.000 C 590.462 980.309,590.605 976.329,592.750 975.080 C 595.431 973.519,603.278 973.806,605.777 975.557 " stroke="none" fill="black" fill-rule="evenodd"/></svg>